<svg width="150" height="167" viewBox="0 0 150 167" fill="none" xmlns="http://www.w3.org/2000/svg">
<path d="M149.817 0.000291005C122.213 -0.000365839 6.94468 0.000294585 6.94468 0.000294585C10.2949 93.639 -13.2722 139.611 11.4024 155.387C23.0002 162.802 30.5934 139.102 29.9842 123.326C29.5487 112.05 22.3687 79.5601 22.3687 79.5601C22.3687 79.5601 45.5198 107.041 58.3138 71.9265C51.6121 110.094 50.089 155.896 59.8369 164.038C69.2689 171.917 74.4886 161.035 76.2863 148.771C80.9861 116.71 70.4985 92.7916 69.5847 58.186C76.2914 51.7097 79.7385 52.3138 92.4311 53.6059C102 66.18 91.0917 97.6942 97.77 114.712C101.701 124.728 117.137 129.208 108.455 51.3684C106.452 10.0848 126.665 34.0353 127.556 20.7993C128.297 9.78328 145.091 3.79315 149.817 0.000291005Z" fill="#FFDD00"/>
</svg>
