<svg width="850" height="604" viewBox="0 0 850 604" fill="none" xmlns="http://www.w3.org/2000/svg">
<g opacity="0.8">
<path d="M464.78 198.817L504.031 267.441L464.78 336.067H386.298L347.048 267.441L386.298 198.817H464.78ZM353.981 267.441L389.756 329.991H461.322L497.097 267.441L461.321 204.893H389.757L353.981 267.441Z" fill="#F7B81A"/>
<path d="M492.296 267.334L458.864 325.789H391.999L358.567 267.334L391.999 208.879H458.864L492.296 267.334Z" fill="#FFDD00"/>
<path d="M500.725 272.666L461.474 204.042L500.725 135.417H579.206L618.456 204.042L579.206 272.666H500.725ZM611.523 204.042L575.748 141.492H504.183L468.407 204.042L504.184 266.591H575.747L611.523 204.042Z" fill="#F7B81A"/>
<path d="M473.208 204.149L506.64 145.695H573.505L606.937 204.149L573.505 262.604H506.64L473.208 204.149Z" fill="#F7B81A"/>
<path d="M268.635 407.12L229.384 338.496L268.635 269.87H347.116L386.366 338.496L347.116 407.12H268.635ZM379.434 338.496L343.658 275.946H272.093L236.318 338.496L272.094 401.044H343.657L379.434 338.496Z" fill="#F7B81A"/>
<path d="M241.118 338.603L274.55 280.148H341.415L374.848 338.603L341.415 397.058H274.55L241.118 338.603Z" fill="#FFDD00"/>
<path d="M153.13 204.893L113.879 136.269L153.13 67.6432H231.611L270.861 136.269L231.611 204.893H153.13ZM263.929 136.269L228.153 73.7189H156.588L120.812 136.269L156.589 198.817H228.152L263.929 136.269Z" fill="#F7B81A"/>
<path d="M125.613 136.376L159.045 77.9211H225.91L259.343 136.376L225.91 194.831H159.045L125.613 136.376Z" fill="#F7B81A"/>
<path d="M153.13 467.242L113.879 398.617L153.13 329.992H231.611L270.861 398.617L231.611 467.242H153.13ZM263.929 398.617L228.153 336.068H156.588L120.812 398.617L156.589 461.166H228.152L263.929 398.617Z" fill="#F7B81A"/>
<path d="M615.953 336.067L576.985 267.443L615.953 198.817H693.908L732.876 267.443L693.908 336.067H615.953ZM725.955 267.443L690.437 204.893H619.425L583.907 267.443L619.425 329.991H690.437L725.955 267.443Z" fill="#F7B81A"/>
<path d="M588.654 267.55L621.845 209.095H688.229L721.421 267.55L688.229 326.005H621.845L588.654 267.55Z" fill="#F7B81A"/>
<path d="M615.953 207.079L576.985 138.455L615.953 69.8294H693.908L732.876 138.455L693.908 207.079H615.953ZM725.955 138.455L690.437 75.9052H619.425L583.907 138.455L619.425 201.003H690.437L725.955 138.455Z" fill="#F7B81A"/>
<path d="M588.654 138.562L621.845 80.1073H688.229L721.421 138.562L688.229 197.017H621.845L588.654 138.562Z" fill="#FFDD00"/>
<path d="M125.613 398.724L159.045 340.27H225.91L259.343 398.724L225.91 457.18H159.045L125.613 398.724Z" fill="#F7B81A"/>
<path d="M386.299 467.242L347.048 398.617L386.299 329.992H464.78L504.03 398.617L464.78 467.242H386.299ZM497.098 398.617L461.322 336.068H389.757L353.982 398.617L389.758 461.166H461.321L497.098 398.617Z" fill="#F7B81A"/>
<path d="M358.782 398.724L392.215 340.27H459.079L492.512 398.724L459.079 457.18H392.215L358.782 398.724Z" fill="#F7B81A"/>
<path d="M39.7836 401.654L0.532654 333.03L39.7836 264.405H118.265L157.515 333.03L118.265 401.654H39.7836ZM150.582 333.03L114.807 270.48H43.2416L7.46625 333.03L43.2426 395.579H114.806L150.582 333.03Z" fill="#F7B81A"/>
<path d="M12.267 333.137L45.6992 274.683H112.564L145.996 333.137L112.564 391.592H45.6992L12.267 333.137Z" fill="#F7B81A"/>
<path d="M730.379 141.492L691.411 72.8676L730.379 4.24224H808.334L847.301 72.8676L808.334 141.492H730.379ZM840.381 72.8676L804.863 10.318H733.85L698.333 72.8676L733.85 135.416H804.863L840.381 72.8676Z" fill="#F7B81A"/>
<path d="M703.079 72.9747L736.271 14.5202H802.655L835.847 72.9747L802.655 131.43H736.271L703.079 72.9747Z" fill="#F7B81A"/>
<path d="M500.725 138.213L461.474 69.5882L500.725 0.962891H579.206L618.456 69.5882L579.206 138.213H500.725ZM611.523 69.5882L575.748 7.03866H504.183L468.407 69.5882L504.184 132.137H575.747L611.523 69.5882Z" fill="#F7B81A"/>
<path d="M473.208 69.6953L506.64 11.2408H573.505L606.937 69.6953L573.505 128.151H506.64L473.208 69.6953Z" fill="#F7B81A"/>
<path d="M347.115 133.23L386.366 201.854L347.115 270.48H268.634L229.384 201.854L268.634 133.23H347.115ZM236.317 201.854L272.092 264.404H343.657L379.433 201.854L343.656 139.306H272.093L236.317 201.854Z" fill="#F7B81A"/>
<path d="M374.632 201.747L341.2 260.202H274.335L240.903 201.747L274.335 143.292H341.2L374.632 201.747Z" fill="#F7B81A"/>
<path d="M153.13 336.067L113.879 267.443L153.13 198.817H231.611L270.861 267.443L231.611 336.067H153.13ZM263.929 267.443L228.153 204.893H156.588L120.812 267.443L156.589 329.991H228.152L263.929 267.443Z" fill="#F7B81A"/>
<path d="M125.613 267.55L159.045 209.095H225.91L259.343 267.55L225.91 326.005H159.045L125.613 267.55Z" fill="#FFDD00"/>
<path d="M461.541 66.5497L500.792 135.174L461.541 203.799H383.06L343.81 135.174L383.06 66.5497H461.541ZM350.742 135.174L386.518 197.724H458.083L493.858 135.174L458.082 72.6254H386.519L350.742 135.174Z" fill="#F7B81A"/>
<path d="M489.058 135.067L455.625 193.521H388.761L355.328 135.067L388.761 76.6116H455.625L489.058 135.067Z" fill="#FFDD00"/>
<path d="M39.7836 538.294L0.532654 469.67L39.7836 401.045H118.265L157.515 469.67L118.265 538.294H39.7836ZM150.582 469.67L114.807 407.12H43.2416L7.46625 469.67L43.2426 532.219H114.806L150.582 469.67Z" fill="#F7B81A"/>
<path d="M12.267 469.777L45.6992 411.323H112.564L145.996 469.777L112.564 528.232H45.6992L12.267 469.777Z" fill="#F7B81A"/>
<path d="M731.735 270.48L692.484 201.856L731.735 133.23H810.216L849.466 201.856L810.216 270.48H731.735ZM842.534 201.856L806.758 139.306H735.193L699.417 201.856L735.194 264.404H806.757L842.534 201.856Z" fill="#F7B81A"/>
<path d="M704.218 201.963L737.651 143.508H804.515L837.948 201.963L804.515 260.418H737.651L704.218 201.963Z" fill="#FFDD00"/>
<path d="M231.61 466.631L270.861 535.256L231.61 603.881H153.129L113.879 535.256L153.129 466.631H231.61ZM120.812 535.256L156.587 597.805H228.152L263.928 535.256L228.151 472.707H156.588L120.812 535.256Z" fill="#F7B81A"/>
<path d="M259.127 535.149L225.695 593.603H158.83L125.398 535.149L158.83 476.693H225.695L259.127 535.149Z" fill="#FFDD00"/>
</g>
</svg>
