<svg width="768" height="990" viewBox="0 0 768 990" fill="none" xmlns="http://www.w3.org/2000/svg">
<path shape-rendering="crispEdges" d="M568.411 637.606L603.016 697.543L568.411 757.473H499.207L464.606 697.543L499.207 637.606H568.411ZM470.175 697.542L501.992 752.648H565.627L597.445 697.542L565.625 642.429H501.992L470.175 697.542Z" fill="#F7B81A"/>
<path shape-rendering="crispEdges" d="M593.145 697.582L563.494 748.942H504.192L474.542 697.582L504.192 646.223H563.494L593.145 697.582Z" fill="#FFDD00"/>
<path shape-rendering="crispEdges" d="M265.377 577.613L300.038 637.647L265.377 697.68H196.054L161.394 637.647L196.054 577.613H265.377ZM166.963 637.645L198.84 692.857H262.591L294.468 637.645L262.591 582.436H198.84L166.963 637.645Z" fill="#F7B81A"/>
<path shape-rendering="crispEdges" d="M289.923 637.549L260.273 688.909H200.971L171.32 637.549L200.971 586.198H260.273L289.923 637.549Z" fill="#FFDD00"/>
<path shape-rendering="crispEdges" d="M264.404 929.389H197.866L164.598 871.767L197.866 814.145H264.404L297.673 871.767L264.404 929.389Z" fill="#F7B81A"/>
<path shape-rendering="crispEdges" d="M265.796 811.735L300.457 871.769L297.989 876.043L266.835 930.002L265.796 931.802H262.183H196.475L196.395 931.664L161.813 871.769L196.475 811.735H265.796ZM167.382 871.767L199.259 926.979H263.011L294.888 871.767L263.011 816.558H199.259L167.382 871.767Z" fill="#F7B81A"/>
<path shape-rendering="crispEdges" d="M667.95 929.389H601.412L568.143 871.767L601.412 814.145H667.95L701.219 871.767L667.95 929.389Z" fill="#F7B81A"/>
<path shape-rendering="crispEdges" d="M669.342 811.735L702.929 869.909L704.003 871.769L669.342 931.802H668.944H600.02L599.941 931.664L565.359 871.769L600.02 811.735H669.342ZM570.928 871.767L602.805 926.979H666.557L698.434 871.767L666.557 816.558H602.805L570.928 871.767Z" fill="#F7B81A"/>
<path shape-rendering="crispEdges" d="M462.961 929.389H396.424L363.155 871.767L396.424 814.145H462.961L496.231 871.767L462.961 929.389Z" fill="#F7B81A"/>
<path shape-rendering="crispEdges" d="M464.353 811.735L499.015 871.769L464.353 931.802H463.708H463.649H396.34H395.032L394.829 931.451L360.371 871.769L395.032 811.735H464.353ZM365.939 871.767L397.816 926.979H461.569L493.446 871.767L461.569 816.558H397.816L365.939 871.767Z" fill="#F7B81A"/>
<path shape-rendering="crispEdges" d="M161.508 987.268H94.9702L61.7014 929.646L94.9702 872.024H161.508L194.777 929.646L161.508 987.268Z" fill="#F7B81A"/>
<path shape-rendering="crispEdges" d="M162.9 869.611L197.561 929.645L196.395 931.664L162.9 989.678H93.5785L59.4155 929.389L60.9896 922.153L93.1944 869.354L162.9 869.611ZM64.4858 929.643L96.3628 984.855H160.115L191.992 929.643L160.115 874.434H96.3628L64.4858 929.643Z" fill="#F7B81A"/>
<path shape-rendering="crispEdges" d="M565.054 987.268H498.516L465.247 929.646L498.516 872.024H565.054L598.323 929.646L565.054 987.268Z" fill="#F7B81A"/>
<path shape-rendering="crispEdges" d="M566.445 869.611L601.107 929.645L599.941 931.664L566.445 989.678H497.124L463.708 931.802L462.463 929.645L497.124 869.611H566.445ZM468.032 929.643L499.909 984.855H563.661L595.538 929.643L563.661 874.434H499.909L468.032 929.643Z" fill="#F7B81A"/>
<path shape-rendering="crispEdges" d="M669.762 579.027L702.733 636.14L704.423 639.068L703.329 640.963L669.762 699.102H600.439L565.778 639.068L600.439 579.027H669.762ZM571.346 639.067L603.225 694.279H666.976L698.853 639.067L666.978 583.85H603.224L571.346 639.067Z" fill="#F7B81A"/>
<path shape-rendering="crispEdges" d="M694.307 638.974L664.656 690.325H605.355L575.704 638.974L605.355 587.614H664.656L694.307 638.974Z" fill="#FFDD00"/>
<path shape-rendering="crispEdges" d="M669.808 345.256L704.412 405.19L669.808 465.12H600.606L566.003 405.19L600.606 345.256H669.808ZM571.572 405.189L603.39 460.295H667.025L698.842 405.189L667.024 350.079H603.392L571.572 405.189Z" fill="#F7B81A"/>
<path shape-rendering="crispEdges" d="M694.542 405.232L664.891 456.592H605.589L575.939 405.232L605.589 353.876H664.891L694.542 405.232Z" fill="#FFDD00"/>
<path shape-rendering="crispEdges" d="M669.998 462.285L703.839 520.897L704.66 522.318L703.978 523.499L669.998 582.352H600.675L566.014 522.318L600.675 462.285H669.998ZM571.583 522.316L603.461 577.529H667.212L699.089 522.316L667.212 467.108H603.461L571.583 522.316Z" fill="#F7B81A"/>
<path shape-rendering="crispEdges" d="M163.526 751.443L198.13 811.38L163.526 871.31L93.1944 869.354L59.7209 811.38L94.3237 751.443H163.526ZM65.2897 811.379L97.1081 866.485H160.743L192.56 811.379L160.742 756.266H97.1097L65.2897 811.379Z" fill="#F7B81A"/>
<path shape-rendering="crispEdges" d="M188.26 811.423L158.609 862.782H99.3075L69.6574 811.423L99.3075 760.063H158.609L188.26 811.423Z" fill="#F7B81A"/>
<path shape-rendering="crispEdges" d="M567.876 751.443L602.48 811.38L567.876 871.31H498.673L464.071 811.38L498.673 751.443H567.876ZM469.639 811.379L501.458 866.485H565.093L596.91 811.379L565.091 756.266H501.459L469.639 811.379Z" fill="#F7B81A"/>
<path shape-rendering="crispEdges" d="M592.61 811.423L562.959 862.782H503.657L474.007 811.423L503.657 760.063H562.959L592.61 811.423Z" fill="#F7B81A"/>
<path shape-rendering="crispEdges" d="M366.907 753.853L401.511 813.79L366.907 873.719H297.704L263.101 813.79L297.704 753.853H366.907ZM268.67 813.789L300.489 868.895H364.124L395.941 813.789L364.122 758.676H300.49L268.67 813.789Z" fill="#F7B81A"/>
<path shape-rendering="crispEdges" d="M391.641 813.833L361.99 865.192H302.688L273.038 813.833L302.688 762.473H361.99L391.641 813.833Z" fill="#FFDD00"/>
<path shape-rendering="crispEdges" d="M694.543 522.221L664.892 573.58H605.591L575.94 522.221L605.591 470.869H664.892L694.543 522.221Z" fill="#FFDD00"/>
<path shape-rendering="crispEdges" d="M265.376 459.445L300.039 519.478L265.376 579.512H196.053L161.394 519.478L196.053 459.445H265.376ZM166.962 519.477L198.839 574.689H262.59L294.469 519.477L262.59 464.268H198.839L166.962 519.477Z" fill="#F7B81A"/>
<path shape-rendering="crispEdges" d="M289.922 519.381L260.271 570.741H200.97L171.319 519.381L200.97 468.029H260.271L289.922 519.381Z" fill="#FFDD00"/>
<path shape-rendering="crispEdges" d="M367.003 400.592L401.664 460.634L367.003 520.667H297.68L263.019 460.634L297.68 400.592H367.003ZM268.587 460.632L300.466 515.844H364.217L396.094 460.632L364.219 405.415H300.465L268.587 460.632Z" fill="#F7B81A"/>
<path shape-rendering="crispEdges" d="M391.548 460.539L361.898 511.891H302.596L272.945 460.539L302.596 409.18H361.898L391.548 460.539Z" fill="#FFDD00"/>
<path shape-rendering="crispEdges" d="M164.425 400.787L199.086 460.821L164.425 520.854H95.1039L62.8417 464.976L60.4425 460.821L61.124 459.64L95.1039 400.787H164.425ZM66.0112 460.819L97.8882 516.031H161.641L193.518 460.819L161.641 405.61H97.8882L66.0112 460.819Z" fill="#F7B81A"/>
<path shape-rendering="crispEdges" d="M188.971 460.723L159.321 512.083H100.019L70.368 460.723L100.019 409.372H159.321L188.971 460.723Z" fill="#F7B81A"/>
<path shape-rendering="crispEdges" d="M366.766 518.057L401.427 578.09L366.766 638.124H297.443L262.783 578.09L297.443 518.057H366.766ZM268.352 578.089L300.229 633.301H363.98L395.857 578.089L363.98 522.88H300.229L268.352 578.089Z" fill="#F7B81A"/>
<path shape-rendering="crispEdges" d="M391.311 578.001L361.66 629.352H302.359L272.708 578.001L302.359 526.641H361.66L391.311 578.001Z" fill="#FFDD00"/>
<path shape-rendering="crispEdges" d="M164.189 518.246L198.85 578.279L164.189 638.313H94.8675L60.2061 578.279L94.8675 518.246H164.189ZM65.7748 578.278L97.6518 633.49H161.404L193.281 578.278L161.404 523.069H97.6518L65.7748 578.278Z" fill="#F7B81A"/>
<path shape-rendering="crispEdges" d="M188.734 578.183L159.084 629.543H99.7819L70.1309 578.183L99.7819 526.824H159.084L188.734 578.183Z" fill="#FFDD00"/>
<path shape-rendering="crispEdges" d="M467.92 460.858L502.581 520.9L467.92 580.933H398.597L363.937 520.9L398.597 460.858H467.92ZM369.506 520.898L401.383 576.11H465.134L497.011 520.898L465.136 465.681H401.382L369.506 520.898Z" fill="#F7B81A"/>
<path shape-rendering="crispEdges" d="M492.466 520.805L462.815 572.157H403.514L373.863 520.805L403.514 469.446H462.815L492.466 520.805Z" fill="#F7B81A"/>
<path shape-rendering="crispEdges" d="M569.547 402.018L604.208 462.052L569.547 522.085H500.224L465.562 462.052L500.224 402.018H569.547ZM471.131 462.052L503.01 517.262H566.761L598.638 462.052L566.761 406.841H503.01L471.131 462.052Z" fill="#F7B81A"/>
<path shape-rendering="crispEdges" d="M594.092 461.951L564.441 513.311H505.139L475.489 461.951L505.139 410.599H564.441L594.092 461.951Z" fill="#FFDD00"/>
<path shape-rendering="crispEdges" d="M569.311 519.477L603.972 579.51L569.311 639.544H499.988L465.326 579.51L499.988 519.477H569.311ZM470.895 579.51L502.774 634.721H566.525L598.402 579.51L566.525 524.3H502.774L470.895 579.51Z" fill="#F7B81A"/>
<path shape-rendering="crispEdges" d="M593.855 579.414L564.204 630.774H504.903L475.252 579.414L504.903 528.055H564.204L593.855 579.414Z" fill="#F7B81A"/>
<path shape-rendering="crispEdges" d="M467.921 577.613L502.582 637.647L467.921 697.68H398.598L363.938 637.647L398.598 577.613H467.921ZM369.507 637.645L401.384 692.857H465.135L497.012 637.645L465.135 582.436H401.384L369.507 637.645Z" fill="#F7B81A"/>
<path shape-rendering="crispEdges" d="M492.466 637.549L462.816 688.909H403.514L373.863 637.549L403.514 586.198H462.816L492.466 637.549Z" fill="#F7B81A"/>
<path shape-rendering="crispEdges" d="M365.868 637.606L400.473 697.543L365.868 757.473H296.666L262.063 697.543L296.666 637.606H365.868ZM267.632 697.542L299.45 752.648H363.085L394.902 697.542L363.084 642.429H299.452L267.632 697.542Z" fill="#F7B81A"/>
<path shape-rendering="crispEdges" d="M390.602 697.582L360.951 748.942H301.65L271.999 697.582L301.65 646.223H360.951L390.602 697.582Z" fill="#FFDD00"/>
<path shape-rendering="crispEdges" d="M467.391 693.567L501.996 753.504L467.391 813.434H398.189L363.586 753.504L398.189 693.567H467.391ZM369.155 753.503L400.973 808.609H464.608L496.425 753.503L464.607 698.39H400.975L369.155 753.503Z" fill="#F7B81A"/>
<path shape-rendering="crispEdges" d="M492.126 753.544L462.475 804.903H403.173L373.522 753.544L403.173 702.184H462.475L492.126 753.544Z" fill="#F7B81A"/>
<path shape-rendering="crispEdges" d="M266.422 695.977L301.027 755.914L266.422 815.844H197.22L162.617 755.914L197.22 695.977H266.422ZM168.186 755.913L200.004 811.019H263.639L295.456 755.913L263.638 700.8H200.006L168.186 755.913Z" fill="#F7B81A"/>
<path shape-rendering="crispEdges" d="M291.157 755.953L261.506 807.313H202.204L172.554 755.953L202.204 704.594H261.506L291.157 755.953Z" fill="#F7B81A"/>
<path shape-rendering="crispEdges" d="M671.576 695.977L704.873 753.651L706.18 755.914L704.919 758.099L671.576 815.844H602.373L567.771 755.914L602.373 695.977H671.576ZM573.339 755.913L605.158 811.019H668.793L700.61 755.913L668.791 700.8H605.159L573.339 755.913Z" fill="#F7B81A"/>
<path shape-rendering="crispEdges" d="M696.31 755.953L666.659 807.313H607.357L577.707 755.953L607.357 704.594H666.659L696.31 755.953Z" fill="#F7B81A"/>
<path shape-rendering="crispEdges" d="M163.293 637.801L197.895 697.731L163.293 757.668H94.0902L59.571 697.875L59.4874 697.731L61.8914 693.567L94.0902 637.801H163.293ZM65.0561 697.729L96.8729 752.843H160.508L192.325 697.729L160.508 642.624H96.8745L65.0561 697.729Z" fill="#F7B81A"/>
<path shape-rendering="crispEdges" d="M188.027 697.778L158.376 749.13H99.0736L69.4227 697.778L99.0736 646.418H158.376L188.027 697.778Z" fill="#F7B81A"/>
<path shape-rendering="crispEdges" d="M164.486 286.788L199.149 346.821L164.486 406.856H95.165L62.4346 350.165L60.5036 346.821L61.4898 345.113L95.165 286.788H164.486ZM66.0724 346.821L97.9494 402.033H161.702L193.579 346.821L161.702 291.611H97.951L66.0724 346.821Z" fill="#F7B81A"/>
<path shape-rendering="crispEdges" d="M189.032 346.726L159.381 398.082H100.08L70.4292 346.726L100.08 295.369H159.381L189.032 346.726Z" fill="#F7B81A"/>
<path shape-rendering="crispEdges" d="M266.196 230.097L300.859 290.13L266.196 350.165H196.874L162.213 290.13L196.874 230.097H266.196ZM167.782 290.13L199.659 345.342H263.411L295.288 290.13L263.411 234.92H199.66L167.782 290.13Z" fill="#F7B81A"/>
<path shape-rendering="crispEdges" d="M290.741 290.035L261.091 341.392H201.789L172.139 290.035L201.789 238.678H261.091L290.741 290.035Z" fill="#F7B81A"/>
<path shape-rendering="crispEdges" d="M671.065 226.762L705.728 286.796L671.065 346.831H601.743L567.082 286.796L601.743 226.762H671.065ZM572.651 286.796L604.528 342.008H668.28L700.157 286.796L668.28 231.585H604.529L572.651 286.796Z" fill="#F7B81A"/>
<path shape-rendering="crispEdges" d="M695.61 286.701L665.96 338.057H606.658L577.007 286.701L606.658 235.343H665.96L695.61 286.701Z" fill="#F7B81A"/>
<path shape-rendering="crispEdges" d="M164.486 170.072L199.149 230.105L164.486 290.14H95.165L63.087 234.58L60.5036 230.105L60.1061 230.097L95.165 170.072H164.486ZM66.0724 230.105L97.9494 285.317H161.702L193.579 230.105L161.702 174.895H97.951L66.0724 230.105Z" fill="#F7B81A"/>
<path shape-rendering="crispEdges" d="M189.032 230.01L159.381 281.366H100.08L70.4292 230.01L100.08 178.653H159.381L189.032 230.01Z" fill="#FFDD00"/>
<path shape-rendering="crispEdges" d="M266.196 343.478L300.859 403.512L266.196 463.547H196.874L162.213 403.512L196.874 343.478H266.196ZM167.782 403.512L199.659 458.724H263.411L295.288 403.512L263.411 348.301H199.66L167.782 403.512Z" fill="#F7B81A"/>
<path shape-rendering="crispEdges" d="M290.741 403.416L261.091 454.773H201.789L172.139 403.416L201.789 352.059H261.091L290.741 403.416Z" fill="#F7B81A"/>
<path shape-rendering="crispEdges" d="M262.183 931.802H196.475L196.395 931.664L162.9 989.678H497.124L463.708 931.802H463.649H396.34H395.032L394.829 931.451L362.058 988.209L361.673 988.877H295.135L294.75 988.209L262.183 931.802Z" fill="#F7B81A"/>
<path shape-rendering="crispEdges" fill-rule="evenodd" clip-rule="evenodd" d="M295.135 988.877H361.673L362.058 988.209L394.829 931.451L394.942 931.255L361.673 873.633H295.135L261.867 931.255L262.183 931.802L294.75 988.209L295.135 988.877ZM266.835 930.002L297.989 876.043H360.28L392.157 931.252L360.28 986.464H299.434L266.835 930.002Z" fill="#F7B81A"/>
<path shape-rendering="crispEdges" d="M360.28 986.464L392.157 931.252L360.28 876.043H297.989L266.835 930.002L299.434 986.464H360.28Z" fill="#F7B81A"/>
<path shape-rendering="crispEdges" d="M88.9899 59.9383L59.3393 111.295H0.0377528V8.58109H59.3393L88.9899 59.9383Z" fill="#F7B81A"/>
<path shape-rendering="crispEdges" d="M87.3225 174.987L57.6719 226.343H0.0377528V123.63H57.6719L87.3225 174.987Z" fill="#FFDD00"/>
<path shape-rendering="crispEdges" d="M88.9899 290.035L59.3393 341.392H0.0377528V238.678H59.3393L88.9899 290.035Z" fill="#F7B81A"/>
<path shape-rendering="crispEdges" d="M88.952 405.085L59.3016 456.445H0V353.73H59.3016L88.952 405.085Z" fill="#F7B81A"/>
<path shape-rendering="crispEdges" d="M87.3459 637.743L57.6954 689.102H0V586.383H57.6954L87.3459 637.743Z" fill="#FFDD00"/>
<path shape-rendering="crispEdges" d="M86.972 753.544L57.3211 804.903H0V702.184H57.3211L86.972 753.544Z" fill="#FFDD00"/>
<path shape-rendering="crispEdges" d="M60.9896 922.153L93.1944 869.354L61.3173 814.145H0L1.92665 922.153H60.9896Z" fill="#F7B81A"/>
<path shape-rendering="crispEdges" d="M87.3451 519.575L57.6942 570.934H0V468.215H57.6942L87.3451 519.575Z" fill="#FFDD00"/>
<path shape-rendering="crispEdges" d="M0 814.145H61.3173L59.7209 811.38L61.3209 808.609H0V814.145Z" fill="#F7B81A"/>
<path shape-rendering="crispEdges" d="M60.9896 922.153H1.92665L1.92659 929.389H59.4155L60.9896 922.153Z" fill="#F7B81A"/>
<path shape-rendering="crispEdges" d="M0 697.875H59.571L59.4874 697.731L61.8914 693.567H0V697.875Z" fill="#F7B81A"/>
<path shape-rendering="crispEdges" d="M62.1662 574.884H0V582.632H62.719L60.2061 578.279L62.1662 574.884Z" fill="#F7B81A"/>
<path shape-rendering="crispEdges" d="M60.3108 464.976H62.8417L60.4425 460.821L61.124 459.64H0V464.976H60.3108Z" fill="#F7B81A"/>
<path shape-rendering="crispEdges" d="M61.4898 345.113H0V350.165H61.5653H62.4346L60.5036 346.821L61.4898 345.113Z" fill="#F7B81A"/>
<path shape-rendering="crispEdges" d="M60.1061 230.097H0.0377528V235.117H61.7735H62.7767L63.087 234.58L60.5036 230.105L60.1061 230.097Z" fill="#F7B81A"/>
<path shape-rendering="crispEdges" d="M61.1691 115.048H0.0377528V120.069H60.1061L60.2017 116.724L61.1691 115.048Z" fill="#F7B81A"/>
<path shape-rendering="crispEdges" d="M64.4441 0H0.0377528V4.823H61.6597L93.2349 59.5106L94.8631 56.6906H97.177L64.4441 0Z" fill="#F7B81A"/>
<path shape-rendering="crispEdges" d="M59.4155 929.389H1.92659L1.92665 989.678H93.5785L59.4155 929.389Z" fill="#F7B81A"/>
<path shape-rendering="crispEdges" d="M702.926 873.633L669.342 931.802H668.944H600.02L599.941 931.664L566.445 989.678H767.971V986.464V873.633H702.926Z" fill="#F7B81A"/>
<path shape-rendering="crispEdges" d="M767.971 865.192H707.842L678.192 813.833L707.842 762.473H767.971V865.192Z" fill="#FFDD00"/>
<path shape-rendering="crispEdges" d="M767.971 750.36H706.033L676.383 699.001L706.033 647.649H767.971V750.36Z" fill="#FFDD00"/>
<path shape-rendering="crispEdges" d="M767.971 632.189H706.98L677.329 580.829L706.98 529.478H767.971V632.189Z" fill="#FFDD00"/>
<path shape-rendering="crispEdges" d="M767.971 514.727H707.216L677.566 463.376L707.216 412.016H767.971V514.727Z" fill="#F7B81A"/>
<path shape-rendering="crispEdges" d="M767.971 396.49H706.223L676.573 345.137L706.223 293.779H767.971V396.49Z" fill="#FFDD00"/>
<path shape-rendering="crispEdges" d="M767.971 277.892H707.063L677.412 226.535L707.063 175.178H767.971V277.892Z" fill="#F7B81A"/>
<path shape-rendering="crispEdges" d="M767.971 162.983H708.67L679.019 111.627L708.67 60.2695H767.971V162.983Z" fill="#F7B81A"/>
<path shape-rendering="crispEdges" d="M703.867 290.018H767.971V281.603H702.729L705.728 286.796L703.867 290.018Z" fill="#F7B81A"/>
<path shape-rendering="crispEdges" d="M767.971 400.444H701.672L704.412 405.19L702.643 408.255H767.971V400.444Z" fill="#F7B81A"/>
<path shape-rendering="crispEdges" d="M702.733 636.14L704.423 639.068L703.329 640.963H767.971V636.101L704.851 636.14L702.733 636.14Z" fill="#F7B81A"/>
<path shape-rendering="crispEdges" d="M706.033 758.099H767.971L768 753.651H704.873L706.18 755.914L704.919 758.099H706.033Z" fill="#F7B81A"/>
<path shape-rendering="crispEdges" d="M702.929 869.909L704.003 871.769L702.926 873.633H767.971V869.909H702.929Z" fill="#F7B81A"/>
<path shape-rendering="crispEdges" d="M703.839 520.897L704.66 522.318L703.978 523.499H767.971V520.897H703.839Z" fill="#F7B81A"/>
<path shape-rendering="crispEdges" d="M767.971 166.561H706.628L707.697 168.412L705.766 171.757H767.971V166.561Z" fill="#F7B81A"/>
<path shape-rendering="crispEdges" d="M671.023 108.379H673.034L674.813 111.46L706.541 56.5114H767.971L768 51.6885H703.755L671.023 108.379Z" fill="#F7B81A"/>
<path shape-rendering="crispEdges" d="M707.697 168.412L706.628 166.561L674.662 111.722L674.813 111.46L673.034 108.379H671.023L669.093 111.722L669.948 113.202L670.091 113.449L701.403 167.684L702.079 168.854L703.755 171.757H705.766L707.697 168.412Z" fill="#F7B81A"/>
<path shape-rendering="crispEdges" d="M668.504 226.762H671.065L672.587 229.399L705.766 171.757H703.755L702.079 168.854L670.289 223.556L668.504 226.762Z" fill="#F7B81A"/>
<path shape-rendering="crispEdges" d="M66.0728 117.248L98.2525 61.5136L99.1071 60.0334L97.177 56.6906H94.8631L93.2349 59.5106L61.1691 115.048L60.2017 116.724L60.1061 120.069L91.8694 175.082L60.1061 230.097L95.165 170.072L66.0728 117.248Z" fill="#F7B81A"/>
</svg>
