<svg width="866" height="604" viewBox="0 0 866 604" fill="none" xmlns="http://www.w3.org/2000/svg">
<g opacity="0.8">
<path d="M139.415 544.768L103.541 481.851L139.415 418.934H211.16L247.032 481.851L211.16 544.768H139.415ZM240.105 481.851L207.696 425.01H142.879L110.47 481.851L142.879 538.692H207.696L240.105 481.851Z" fill="#F7B81A"/>
<path d="M114.53 481.949L144.957 428.582H205.812L236.24 481.949L205.812 535.317H144.957L114.53 481.949Z" fill="#FFDD00"/>
<path d="M758.227 304.797L722.353 241.881L758.227 178.963H829.971L865.843 241.881L829.971 304.797H758.227ZM858.917 241.881L826.507 185.039H761.691L729.282 241.881L761.691 298.721H826.507L858.917 241.881Z" fill="#F7B81A"/>
<path d="M733.341 241.978L763.769 188.611H824.624L855.051 241.978L824.624 295.346H763.769L733.341 241.978Z" fill="#FFDD00"/>
<path d="M449.925 245.455L414.051 182.538L449.925 119.621H521.669L557.541 182.538L521.669 245.455H449.925ZM550.615 182.538L518.205 125.696H453.389L420.98 182.538L453.389 239.379H518.205L550.615 182.538Z" fill="#F7B81A"/>
<path d="M551.993 543.707L516.119 480.791L551.993 417.873H623.737L659.609 480.791L623.737 543.707H551.993ZM652.683 480.791L620.273 423.949H555.457L523.048 480.791L555.457 537.631H620.273L652.683 480.791Z" fill="#F7B81A"/>
<path d="M527.108 480.888L557.535 427.521H618.39L648.817 480.888L618.39 534.256H557.535L527.108 480.888Z" fill="#FFDD00"/>
<path d="M139.525 304.797L103.651 241.881L139.525 178.963H211.27L247.142 241.881L211.27 304.797H139.525ZM240.215 241.881L207.806 185.039H142.989L110.58 241.881L142.989 298.721H207.806L240.215 241.881Z" fill="#F7B81A"/>
<path d="M114.64 241.978L145.067 188.611H205.922L236.35 241.978L205.922 295.346H145.067L114.64 241.978Z" fill="#FFDD00"/>
<path d="M425.04 182.636L455.467 129.269H516.322L546.749 182.636L516.322 236.004H455.467L425.04 182.636Z" fill="#FFDD00"/>
<path d="M655.11 126.031L619.236 63.1147L655.11 0.197266H726.854L762.727 63.1147L726.854 126.031H655.11ZM755.8 63.1147L723.391 6.27304H658.574L626.165 63.1147L658.574 119.955H723.391L755.8 63.1147Z" fill="#F7B81A"/>
<path d="M630.225 63.2124L660.652 9.84513H721.507L751.935 63.2124L721.507 116.58H660.652L630.225 63.2124Z" fill="#F7B81A"/>
<path d="M345.76 185.342L309.886 122.426L345.76 59.5085H417.504L453.376 122.426L417.504 185.342H345.76ZM446.449 122.426L414.04 65.5842H349.224L316.815 122.426L349.224 179.267H414.04L446.449 122.426Z" fill="#F7B81A"/>
<path d="M320.874 122.524L351.302 69.1563H412.157L442.584 122.524L412.157 175.892H351.302L320.874 122.524Z" fill="#FFDD00"/>
<path d="M139.525 424.252L103.651 361.335L139.525 298.418H211.27L247.142 361.335L211.27 424.252H139.525ZM240.215 361.335L207.806 304.494H142.989L110.58 361.335L142.989 418.176H207.806L240.215 361.335Z" fill="#F7B81A"/>
<path d="M114.64 361.433L145.067 308.066H205.922L236.35 361.433L205.922 414.801H145.067L114.64 361.433Z" fill="#F7B81A"/>
<path d="M551.993 185.342L516.119 122.425L551.993 59.5079H623.737L659.609 122.425L623.737 185.342H551.993ZM652.683 122.425L620.273 65.5837H555.457L523.048 122.425L555.457 179.266H620.273L652.683 122.425Z" fill="#F7B81A"/>
<path d="M527.108 122.523L557.535 69.1558H618.39L648.817 122.523L618.39 175.891H557.535L527.108 122.523Z" fill="#F7B81A"/>
<path d="M243.914 603.724L208.04 540.807L243.914 477.89H315.658L351.53 540.807L315.658 603.724H243.914ZM344.603 540.807L312.194 483.966H247.378L214.968 540.807L247.378 597.648H312.194L344.603 540.807Z" fill="#F7B81A"/>
<path d="M219.028 540.905L249.456 487.538H310.31L340.738 540.905L310.31 594.273H249.456L219.028 540.905Z" fill="#F7B81A"/>
<path d="M655.11 484.398L619.236 421.481L655.11 358.564H726.854L762.727 421.481L726.854 484.398H655.11ZM755.8 421.481L723.391 364.64H658.574L626.165 421.481L658.574 478.322H723.391L755.8 421.481Z" fill="#F7B81A"/>
<path d="M630.225 421.579L660.652 368.212H721.507L751.935 421.579L721.507 474.947H660.652L630.225 421.579Z" fill="#F7B81A"/>
<path d="M655.11 245.487L619.236 182.57L655.11 119.653H726.854L762.727 182.57L726.854 245.487H655.11ZM755.8 182.57L723.391 125.729H658.574L626.165 182.57L658.574 239.411H723.391L755.8 182.57Z" fill="#F7B81A"/>
<path d="M630.225 182.668L660.652 129.301H721.507L751.935 182.668L721.507 236.036H660.652L630.225 182.668Z" fill="#FFDD00"/>
<path d="M242.642 245.487L206.768 182.57L242.642 119.653H314.386L350.258 182.57L314.386 245.487H242.642ZM343.332 182.57L310.922 125.729H246.106L213.697 182.57L246.106 239.411H310.922L343.332 182.57Z" fill="#F7B81A"/>
<path d="M217.757 182.668L248.184 129.301H309.039L339.466 182.668L309.039 236.036H248.184L217.757 182.668Z" fill="#F7B81A"/>
<path d="M655.936 603.724L620.062 540.807L655.936 477.89H727.68L763.552 540.807L727.68 603.724H655.936ZM756.626 540.807L724.216 483.966H659.4L626.991 540.807L659.4 597.648H724.216L756.626 540.807Z" fill="#F7B81A"/>
<path d="M631.051 540.905L661.478 487.538H722.333L752.76 540.905L722.333 594.273H661.478L631.051 540.905Z" fill="#F7B81A"/>
<path d="M655.11 364.942L619.236 302.026L655.11 239.109H726.854L762.727 302.026L726.854 364.942H655.11ZM755.8 302.026L723.391 245.184H658.574L626.165 302.026L658.574 358.867H723.391L755.8 302.026Z" fill="#F7B81A"/>
<path d="M630.225 302.124L660.652 248.756H721.507L751.935 302.124L721.507 355.492H660.652L630.225 302.124Z" fill="#FFDD00"/>
<path d="M242.642 364.942L206.768 302.026L242.642 239.109H314.386L350.258 302.026L314.386 364.942H242.642ZM343.332 302.026L310.922 245.184H246.106L213.697 302.026L246.106 358.867H310.922L343.332 302.026Z" fill="#F7B81A"/>
<path d="M217.757 302.124L248.184 248.756H309.039L339.466 302.124L309.039 355.492H248.184L217.757 302.124Z" fill="#FFDD00"/>
<path d="M758.227 422.581L722.353 359.664L758.227 296.747H829.971L865.843 359.664L829.971 422.581H758.227ZM858.917 359.664L826.507 302.823H761.691L729.282 359.664L761.691 416.505H826.507L858.917 359.664Z" fill="#F7B81A"/>
<path d="M733.341 359.762L763.769 306.395H824.624L855.051 359.762L824.624 413.13H763.769L733.341 359.762Z" fill="#F7B81A"/>
<path d="M242.642 126.032L206.768 63.1153L242.642 0.197806H314.386L350.258 63.1153L314.386 126.032H242.642ZM343.331 63.1153L310.922 6.27358H246.105L213.696 63.1153L246.105 119.956H310.922L343.331 63.1153Z" fill="#F7B81A"/>
<path d="M217.756 63.213L248.183 9.84567H309.038L339.466 63.213L309.038 116.581H248.183L217.756 63.213Z" fill="#FFDD00"/>
<path d="M139.415 183.475L103.541 120.559L139.415 57.6415H211.16L247.032 120.559L211.16 183.475H139.415ZM240.105 120.559L207.696 63.7172H142.879L110.47 120.559L142.879 177.4H207.696L240.105 120.559Z" fill="#F7B81A"/>
<path d="M114.53 120.657L144.957 67.2894H205.812L236.24 120.657L205.812 174.025H144.957L114.53 120.657Z" fill="#FFDD00"/>
<path d="M448.877 126.031L413.003 63.1147L448.877 0.197266H520.621L556.493 63.1147L520.621 126.031H448.877ZM549.566 63.1147L517.157 6.27304H452.34L419.931 63.1147L452.34 119.955H517.157L549.566 63.1147Z" fill="#F7B81A"/>
<path d="M423.991 63.2124L454.418 9.84513H515.273L545.701 63.2124L515.273 116.58H454.418L423.991 63.2124Z" fill="#FFDD00"/>
<path d="M36.4099 243.943L0.535889 181.026L36.4099 118.109H108.154L144.026 181.026L108.154 243.943H36.4099ZM137.099 181.026L104.69 124.185H39.8738L7.4646 181.026L39.8738 237.867H104.69L137.099 181.026Z" fill="#F7B81A"/>
<path d="M11.5244 181.124L41.9517 127.757H102.807L133.234 181.124L102.807 234.492H41.9517L11.5244 181.124Z" fill="#FFDD00"/>
</g>
</svg>
