<svg width="393" height="1442" viewBox="0 0 393 1442" fill="none" xmlns="http://www.w3.org/2000/svg">
<path d="M166.799 365.481H25.599L-45.0016 243.199L25.599 120.916H166.799L237.399 243.199L166.799 365.481ZM163.013 127.475H29.3861L-37.4283 243.198L29.3861 358.924H163.013L229.827 243.198L163.013 127.475Z" fill="#F7B81A"/>
<path d="M216.798 243.01L156.404 347.616H35.6147L-24.7797 243.01L35.6147 138.403H156.404L216.798 243.01Z" fill="#F7B81A"/>
<path d="M372.8 483.481H231.6L160.999 361.199L231.6 238.916H372.8L443.4 361.199L372.8 483.481ZM369.014 245.475H235.387L168.573 361.198L235.387 476.924H369.014L435.828 361.198L369.014 245.475Z" fill="#F7B81A"/>
<path d="M422.799 361.01L362.405 465.616H241.616L181.221 361.01L241.616 256.403H362.405L422.799 361.01Z" fill="#F7B81A"/>
<path d="M165.801 603.481H24.6006L-46 481.199L24.6006 358.916H165.801L236.4 481.199L165.801 603.481ZM162.015 365.475H28.3877L-38.4268 481.198L28.3877 596.924H162.015L228.828 481.198L162.015 365.475Z" fill="#F7B81A"/>
<path d="M215.8 481.01L155.405 585.616H34.6163L-25.7781 481.01L34.6163 376.403H155.405L215.8 481.01Z" fill="#FFDD00"/>
<path d="M372.8 723.481H231.6L160.999 601.199L231.6 478.916H372.8L443.399 601.199L372.8 723.481ZM369.014 485.475H235.387L168.572 601.198L235.387 716.924H369.014L435.827 601.198L369.014 485.475Z" fill="#F7B81A"/>
<path d="M422.799 601.01L362.404 705.616H241.615L181.221 601.01L241.615 496.403H362.404L422.799 601.01Z" fill="#FFDD00"/>
<path d="M-42.2002 482.481H-183.4L-254.001 360.199L-183.4 237.916H-42.2002L28.3994 360.199L-42.2002 482.481ZM-45.9863 244.475H-179.613L-246.428 360.198L-179.613 475.924H-45.9863L20.8271 360.198L-45.9863 244.475Z" fill="#F7B81A"/>
<path d="M7.79861 360.01L-52.5958 464.616H-173.385L-233.779 360.01L-173.385 255.403H-52.5958L7.79861 360.01Z" fill="#FFDD00"/>
<path d="M579.8 603.481H438.6L367.999 481.199L438.6 358.916H579.8L650.399 481.199L579.8 603.481ZM576.014 365.475H442.387L375.572 481.198L442.387 596.924H576.014L642.827 481.198L576.014 365.475Z" fill="#F7B81A"/>
<path d="M629.799 481.01L569.404 585.616H448.615L388.221 481.01L448.615 376.403H569.404L629.799 481.01Z" fill="#FFDD00"/>
<path d="M373.8 963.481H232.6L161.999 841.199L232.6 718.916H373.8L444.4 841.199L373.8 963.481ZM370.014 725.475H236.387L169.573 841.198L236.387 956.924H370.014L436.828 841.198L370.014 725.475Z" fill="#F7B81A"/>
<path d="M423.799 841.01L363.405 945.616H242.616L182.221 841.01L242.616 736.403H363.405L423.799 841.01Z" fill="#F7B81A"/>
<path d="M-38.2002 961.481H-179.4L-250.001 839.199L-179.4 716.916H-38.2002L32.3994 839.199L-38.2002 961.481ZM-41.9863 723.475H-175.613L-242.428 839.198L-175.613 954.924H-41.9863L24.8271 839.198L-41.9863 723.475Z" fill="#F7B81A"/>
<path d="M11.7986 839.01L-48.5958 943.616H-169.385L-229.779 839.01L-169.385 734.403H-48.5958L11.7986 839.01Z" fill="#FFDD00"/>
<path d="M-41.2002 722.481H-182.4L-253.001 600.199L-182.4 477.916H-41.2002L29.3994 600.199L-41.2002 722.481ZM-44.9863 484.475H-178.613L-245.428 600.198L-178.613 715.924H-44.9863L21.8271 600.198L-44.9863 484.475Z" fill="#F7B81A"/>
<path d="M8.79861 600.01L-51.5958 704.616H-172.385L-232.779 600.01L-172.385 495.403H-51.5958L8.79861 600.01Z" fill="#FFDD00"/>
<path d="M165.799 1321.48H24.5992L-46.0014 1199.2L24.5992 1076.92H165.799L236.399 1199.2L165.799 1321.48ZM162.013 1083.47H28.3863L-38.4282 1199.2L28.3863 1314.92H162.013L228.827 1199.2L162.013 1083.47Z" fill="#F7B81A"/>
<path d="M580.8 843.481H439.6L368.999 721.199L439.6 598.916H580.8L651.399 721.199L580.8 843.481ZM577.014 605.475H443.387L376.572 721.198L443.387 836.924H577.014L643.827 721.198L577.014 605.475Z" fill="#F7B81A"/>
<path d="M630.799 721.01L570.404 825.616H449.615L389.221 721.01L449.615 616.403H570.404L630.799 721.01Z" fill="#FFDD00"/>
<path d="M215.798 1199.01L155.404 1303.62H34.6149L-25.7795 1199.01L34.6149 1094.4H155.404L215.798 1199.01Z" fill="#FFDD00"/>
<path d="M-38.1999 1441.48H-179.4L-250.001 1319.2L-179.4 1196.92H-38.1999L32.3997 1319.2L-38.1999 1441.48ZM-41.986 1203.47H-175.613L-242.427 1319.2L-175.613 1434.92H-41.986L24.8275 1319.2L-41.986 1203.47Z" fill="#F7B81A"/>
<path d="M11.799 1319.01L-48.5955 1423.62H-169.384L-229.779 1319.01L-169.384 1214.4H-48.5955L11.799 1319.01Z" fill="#FFDD00"/>
<path d="M-38.2002 1200.48H-179.4L-250.001 1078.2L-179.4 955.916H-38.2002L32.3994 1078.2L-38.2002 1200.48ZM-41.9863 962.475H-175.613L-242.428 1078.2L-175.613 1193.92H-41.9863L24.8271 1078.2L-41.9863 962.475Z" fill="#F7B81A"/>
<path d="M11.7986 1078.01L-48.5958 1182.62H-169.385L-229.779 1078.01L-169.385 973.404H-48.5958L11.7986 1078.01Z" fill="#FFDD00"/>
<path d="M579.801 1083.48H438.601L368 961.199L438.601 838.916H579.801L650.4 961.199L579.801 1083.48ZM576.015 845.475H442.388L375.573 961.198L442.388 1076.92H576.015L642.828 961.198L576.015 845.475Z" fill="#F7B81A"/>
<path d="M629.8 961.01L569.405 1065.62H448.616L388.222 961.01L448.616 856.403H569.405L629.8 961.01Z" fill="#FFDD00"/>
<path d="M373.8 1441.48H232.6L161.999 1319.2L232.6 1196.92H373.8L444.4 1319.2L373.8 1441.48ZM370.014 1203.47H236.387L169.573 1319.2L236.387 1434.92H370.014L436.828 1319.2L370.014 1203.47Z" fill="#F7B81A"/>
<path d="M423.799 1319.01L363.405 1423.62H242.616L182.221 1319.01L242.616 1214.4H363.405L423.799 1319.01Z" fill="#F7B81A"/>
<path d="M579.801 1322.48H438.601L368 1200.2L438.601 1077.92H579.801L650.4 1200.2L579.801 1322.48ZM576.015 1084.47H442.388L375.573 1200.2L442.388 1315.92H576.015L642.828 1200.2L576.015 1084.47Z" fill="#F7B81A"/>
<path d="M629.8 1200.01L569.405 1304.62H448.616L388.222 1200.01L448.616 1095.4H569.405L629.8 1200.01Z" fill="#FFDD00"/>
<path d="M373.8 245.481H232.6L161.999 123.199L232.6 0.916016H373.8L444.399 123.199L373.8 245.481ZM370.014 7.47461H236.387L169.572 123.198L236.387 238.924H370.014L436.827 123.198L370.014 7.47461Z" fill="#F7B81A"/>
<path d="M423.799 123.01L363.404 227.616H242.615L182.221 123.01L242.615 18.4034H363.404L423.799 123.01Z" fill="#FFDD00"/>
<path d="M579.8 365.481H438.6L367.999 243.199L438.6 120.916H579.8L650.399 243.199L579.8 365.481ZM576.014 127.475H442.387L375.572 243.198L442.387 358.924H576.014L642.827 243.198L576.014 127.475Z" fill="#F7B81A"/>
<path d="M629.799 243.01L569.404 347.616H448.615L388.221 243.01L448.615 138.403H569.404L629.799 243.01Z" fill="#FFDD00"/>
<path d="M165.799 842.481H24.599L-46.0016 720.199L24.599 597.916H165.799L236.399 720.199L165.799 842.481ZM162.013 604.475H28.3861L-38.4283 720.198L28.3861 835.924H162.013L228.827 720.198L162.013 604.475Z" fill="#F7B81A"/>
<path d="M215.798 720.01L155.404 824.616H34.6147L-25.7797 720.01L34.6147 615.403H155.404L215.798 720.01Z" fill="#F7B81A"/>
<path d="M165.799 1082.48H24.599L-46.0016 960.199L24.599 837.916H165.799L236.399 960.199L165.799 1082.48ZM162.013 844.475H28.3861L-38.4283 960.198L28.3861 1075.92H162.013L228.827 960.198L162.013 844.475Z" fill="#F7B81A"/>
<path d="M215.798 960.01L155.404 1064.62H34.6147L-25.7797 960.01L34.6147 855.403H155.404L215.798 960.01Z" fill="#F7B81A"/>
<path d="M373.799 1203.48H232.599L161.998 1081.2L232.599 958.916H373.799L444.398 1081.2L373.799 1203.48ZM370.013 965.475H236.386L169.571 1081.2L236.386 1196.92H370.013L436.826 1081.2L370.013 965.475Z" fill="#F7B81A"/>
<path d="M423.798 1081.01L363.403 1185.62H242.614L182.22 1081.01L242.614 976.404H363.403L423.798 1081.01Z" fill="#FFDD00"/>
</svg>
