<svg width="1440" height="1680" viewBox="0 0 1440 1680" fill="none" xmlns="http://www.w3.org/2000/svg">
<path d="M762.074 1315.86L805.193 1390.42L762.074 1464.97H675.843L632.727 1390.42L675.843 1315.86H762.074ZM639.665 1390.42L679.313 1458.97H758.604L798.252 1390.42L758.605 1321.86H679.313L639.665 1390.42Z" fill="#F7B81A"/>
<path d="M792.894 1390.47L755.947 1454.36H682.053L645.107 1390.47L682.053 1326.58H755.947L792.894 1390.47Z" fill="#FFDD00"/>
<path d="M384.475 1241.23L427.666 1315.91L384.475 1390.59H298.096L254.906 1315.91L298.096 1241.23H384.475ZM261.845 1315.91L301.566 1384.59H381.005L420.726 1315.91L381.005 1247.23H301.566L261.845 1315.91Z" fill="#F7B81A"/>
<path d="M415.061 1315.79L378.115 1379.68H304.221L267.274 1315.79L304.221 1251.91H378.115L415.061 1315.79Z" fill="#FFDD00"/>
<path d="M1014.06 877.467L1057.25 952.148L1014.06 1026.83H927.673L884.483 952.148L927.673 877.467H1014.06ZM891.421 952.148L931.143 1020.83H1010.59L1050.31 952.148L1010.59 883.467H931.143L891.421 952.148Z" fill="#F7B81A"/>
<path d="M1044.64 952.031L1007.69 1015.91H933.797L896.851 952.031L933.797 888.144H1007.69L1044.64 952.031Z" fill="#F7B81A"/>
<path d="M1140.51 948.653L1183.62 1023.21L1140.51 1097.77H1054.28L1011.16 1023.21L1054.28 948.653H1140.51ZM1018.09 1023.21L1057.75 1091.77H1137.04L1176.68 1023.21L1137.04 954.653H1057.75L1018.09 1023.21Z" fill="#F7B81A"/>
<path d="M1171.33 1023.26L1134.38 1087.15H1060.49L1023.54 1023.26L1060.49 959.375H1134.38L1171.33 1023.26Z" fill="#F7B81A"/>
<path d="M1140.74 1094.23L1183.93 1168.91L1140.74 1243.59H1054.36L1011.18 1168.91L1054.36 1094.23H1140.74ZM1018.11 1168.91L1057.83 1237.59H1137.27L1176.99 1168.91L1137.27 1100.23H1057.83L1018.11 1168.91Z" fill="#F7B81A"/>
<path d="M1171.33 1168.79L1134.39 1232.68H1060.49L1023.54 1168.79L1060.49 1104.91H1134.39L1171.33 1168.79Z" fill="#FFDD00"/>
<path d="M1267.37 1021.02L1310.56 1095.71L1267.37 1170.39H1180.99L1137.81 1095.71L1180.99 1021.02H1267.37ZM1144.75 1095.71L1184.46 1164.39H1263.9L1303.62 1095.71L1263.9 1027.02H1184.46L1144.75 1095.71Z" fill="#F7B81A"/>
<path d="M1297.96 1095.59L1261.02 1159.47H1187.12L1150.17 1095.59L1187.12 1031.7H1261.02L1297.96 1095.59Z" fill="#FFDD00"/>
<path d="M1267.08 1167.14L1310.28 1241.82L1267.08 1316.5H1180.7L1137.51 1241.82L1180.7 1167.14H1267.08ZM1144.45 1241.82L1184.17 1310.5H1263.61L1303.33 1241.82L1263.61 1173.14H1184.17L1144.45 1241.82Z" fill="#F7B81A"/>
<path d="M1297.67 1241.71L1260.72 1305.59H1186.82L1149.88 1241.71L1186.82 1177.82H1260.72L1297.67 1241.71Z" fill="#F7B81A"/>
<path d="M1267.72 146L1310.84 220.555L1267.72 295.11H1181.49L1138.37 220.555L1181.49 146H1267.72ZM1145.31 220.555L1184.96 289.11H1264.25L1303.9 220.555L1264.25 152H1184.96L1145.31 220.555Z" fill="#F7B81A"/>
<path d="M1298.54 220.608L1261.59 284.494H1187.7L1150.75 220.608L1187.7 156.721H1261.59L1298.54 220.608Z" fill="#F7B81A"/>
<path d="M1393.12 1095.99L1436.32 1170.68L1393.12 1245.36H1306.74L1263.56 1170.68L1306.74 1095.99H1391.05H1393.12ZM1270.5 1170.68L1310.21 1239.36H1389.65L1429.38 1170.68L1389.65 1101.99H1310.21L1270.5 1170.68Z" fill="#F7B81A"/>
<path d="M1423.71 1170.56L1386.76 1234.44H1312.86L1275.92 1170.56L1312.86 1106.67H1386.76L1423.71 1170.56Z" fill="#FFDD00"/>
<path d="M1393.12 1241.23L1436.32 1315.91L1393.12 1390.59H1306.74L1263.56 1315.91L1306.74 1241.23H1393.12ZM1270.5 1315.91L1310.21 1384.59H1389.65L1429.38 1315.91L1389.65 1247.23H1310.21L1270.5 1315.91Z" fill="#F7B81A"/>
<path d="M1423.71 1315.79L1386.76 1379.68H1312.87L1275.92 1315.79L1312.87 1251.91H1386.76L1423.71 1315.79Z" fill="#FFDD00"/>
<path d="M1140.74 1241.23L1183.93 1315.91L1140.74 1390.59H1054.36L1011.18 1315.91L1054.36 1241.23H1140.74ZM1018.11 1315.91L1057.83 1384.59H1137.27L1176.99 1315.91L1137.27 1247.23H1057.83L1018.11 1315.91Z" fill="#F7B81A"/>
<path d="M1171.33 1315.79L1134.39 1379.68H1060.49L1023.54 1315.79L1060.49 1251.91H1134.39L1171.33 1315.79Z" fill="#FFDD00"/>
<path d="M1265.97 1315.86L1309.08 1390.42L1265.97 1464.97H1179.73L1136.62 1390.42L1179.73 1315.86H1265.97ZM1143.55 1390.42L1183.2 1458.97H1262.5L1302.14 1390.42L1262.5 1321.86H1183.2L1143.55 1390.42Z" fill="#F7B81A"/>
<path d="M1296.78 1390.47L1259.84 1454.36H1185.94L1149 1390.47L1185.94 1326.58H1259.84L1296.78 1390.47Z" fill="#F7B81A"/>
<path d="M888.363 1242.99L931.553 1317.68L888.363 1392.36H801.984L758.793 1317.68L801.984 1242.99H888.363ZM765.731 1317.68L805.453 1386.36H884.893L924.614 1317.68L884.893 1248.99H805.453L765.731 1317.68Z" fill="#F7B81A"/>
<path d="M918.948 1317.56L882.001 1381.44H808.109L771.162 1317.56L808.109 1253.67H882.001L918.948 1317.56Z" fill="#FFDD00"/>
<path d="M1013.58 1317.63L1056.7 1392.18L1013.58 1466.74H927.35L884.232 1392.18L927.35 1317.63H1013.58ZM891.171 1392.18L930.819 1460.74H1010.12L1049.76 1392.18L1010.12 1323.63H930.819L891.171 1392.18Z" fill="#F7B81A"/>
<path d="M1044.4 1392.23L1007.45 1456.12H933.56L896.614 1392.23L933.56 1328.35H1007.45L1044.4 1392.23Z" fill="#F7B81A"/>
<path d="M134.041 809.021L177.233 883.702L134.041 958.384H47.6619L4.47234 883.702L47.6619 809.021H134.041ZM11.4107 883.702L51.1316 952.384H130.571L170.293 883.702L130.572 815.021H51.1316L11.4107 883.702Z" fill="#F7B81A"/>
<path d="M164.627 883.585L127.68 947.471H53.7868L16.8402 883.585L53.7868 819.698H127.68L164.627 883.585Z" fill="#F7B81A"/>
<path d="M888.422 952.181L931.539 1026.74L888.422 1101.29H802.191L759.074 1026.74L802.191 952.181H888.422ZM766.012 1026.74L805.66 1095.29H884.953L924.599 1026.74L884.953 958.181H805.66L766.012 1026.74Z" fill="#F7B81A"/>
<path d="M919.241 1026.79L882.295 1090.68H808.401L771.454 1026.79L808.401 962.902H882.295L919.241 1026.79Z" fill="#FFDD00"/>
<path d="M888.657 1097.76L931.848 1172.44L888.657 1247.12H802.278L759.088 1172.44L802.278 1097.76H888.657ZM766.026 1172.44L805.748 1241.12H885.188L924.908 1172.44L885.188 1103.76H805.748L766.026 1172.44Z" fill="#F7B81A"/>
<path d="M257.564 1457.47L300.682 1532.03L298.51 1535.79L257.783 1606.2L257.564 1606.58H255.757H172.43H171.332L170.257 1604.72L129.69 1534.58L128.215 1532.03L171.332 1457.47H257.564ZM135.153 1532.03L174.802 1600.58H254.093L293.742 1532.03L254.094 1463.47H174.802L135.153 1532.03Z" fill="#F7B81A"/>
<path d="M288.383 1532.08L251.436 1595.97H177.543L140.597 1532.08L177.543 1468.19H251.436L288.383 1532.08Z" fill="#F7B81A"/>
<path d="M761.408 1457.47L804.526 1532.03L802.855 1534.92L761.408 1606.58H760.846H758.6H675.273H675.177L673.956 1604.47L633.534 1534.58L632.06 1532.03L675.177 1457.47H761.408ZM638.998 1532.03L678.646 1600.58H757.938L797.587 1532.03L757.939 1463.47H678.646L638.998 1532.03Z" fill="#F7B81A"/>
<path d="M792.228 1532.08L755.281 1595.97H681.387L644.441 1532.08L681.387 1468.19H755.281L792.228 1532.08Z" fill="#F7B81A"/>
<path d="M1265.26 1457.47L1308.37 1532.03L1266.48 1604.47L1265.26 1606.58H1182.12H1179.02L1178.95 1606.46L1137.38 1534.58L1135.9 1532.03L1179.02 1457.47H1265.26ZM1142.84 1532.03L1182.49 1600.58H1261.79L1301.43 1532.03L1261.79 1463.47H1182.49L1142.84 1532.03Z" fill="#F7B81A"/>
<path d="M1296.08 1532.08L1259.12 1595.97H1185.23L1148.29 1532.08L1185.23 1468.19H1259.12L1296.08 1532.08Z" fill="#F7B81A"/>
<path d="M510.988 1460.47L553.846 1534.58L554.107 1535.03L553.852 1535.47L552.117 1538.47L511.088 1609.41L510.988 1609.58H507.718H504.249H426.782H424.757L424.693 1609.47L424.035 1608.33L381.64 1535.03L424.757 1460.47H510.988ZM388.578 1535.03L428.227 1603.58H507.518L547.167 1535.03L507.519 1466.47H428.227L388.578 1535.03Z" fill="#F7B81A"/>
<path d="M541.808 1535.08L504.861 1598.97H430.967L394.021 1535.08L430.967 1471.19H504.861L541.808 1535.08Z" fill="#FFDD00"/>
<path d="M1015.84 1460.47L1058.69 1534.58L1058.95 1535.03L1058.7 1535.47L1056.96 1538.47L1016.94 1607.68L1015.84 1609.58H1014.57H1011.1H929.625H929.603L929.539 1609.47L927.804 1606.47L887.961 1537.58L886.486 1535.03L929.603 1460.47H1015.84ZM893.424 1535.03L933.073 1603.58H1012.37L1052.01 1535.03L1012.37 1466.47H933.073L893.424 1535.03Z" fill="#F7B81A"/>
<path d="M1046.66 1535.08L1009.71 1598.97H935.814L898.868 1535.08L935.814 1471.19H1009.71L1046.66 1535.08Z" fill="#FFDD00"/>
<path d="M919.243 1172.32L882.296 1236.21H808.403L771.456 1172.32L808.403 1108.44H882.296L919.243 1172.32Z" fill="#FFDD00"/>
<path d="M1015.29 1024.55L1058.48 1099.23L1015.29 1173.91H928.91L885.72 1099.23L928.91 1024.55H1015.29ZM892.658 1099.23L932.38 1167.91H1011.82L1051.54 1099.23L1011.82 1030.55H932.38L892.658 1099.23Z" fill="#F7B81A"/>
<path d="M1045.88 1099.12L1008.93 1163H935.034L898.088 1099.12L935.034 1035.23H1008.93L1045.88 1099.12Z" fill="#FFDD00"/>
<path d="M1015 1170.67L1058.18 1245.35L1015 1320.03H928.616L885.425 1245.35L928.616 1170.67H1015ZM892.364 1245.35L932.086 1314.03H1011.53L1051.24 1245.35L1011.53 1176.67H932.086L892.364 1245.35Z" fill="#F7B81A"/>
<path d="M1045.58 1245.23L1008.63 1309.12H934.74L897.793 1245.23L934.74 1181.35H1008.63L1045.58 1245.23Z" fill="#F7B81A"/>
<path d="M133.821 952L176.938 1026.56L133.821 1101.11H47.5881L4.47186 1026.56L47.5881 952H133.821ZM11.4102 1026.56L51.0578 1095.11H130.351L169.997 1026.56L130.351 958H51.0587L11.4102 1026.56Z" fill="#F7B81A"/>
<path d="M164.639 1026.61L127.693 1090.5H53.7992L16.8525 1026.61L53.7992 962.722H127.693L164.639 1026.61Z" fill="#FFDD00"/>
<path d="M1014.87 729.889L1057.98 804.444L1014.87 878.998H928.633L885.516 804.444L928.633 729.889H1014.87ZM892.454 804.444L932.102 872.998H1011.4L1051.04 804.444L1011.4 735.889H932.102L892.454 804.444Z" fill="#F7B81A"/>
<path d="M1045.69 804.497L1008.73 868.383H934.843L897.896 804.497L934.843 740.61H1008.73L1045.69 804.497Z" fill="#FFDD00"/>
<path d="M1139.08 510.889L1182.19 585.444L1139.08 659.998H1052.84L1009.72 585.444L1052.84 510.889H1139.08ZM1016.66 585.444L1056.31 653.998H1135.61L1175.25 585.444L1135.61 516.889H1056.31L1016.66 585.444Z" fill="#F7B81A"/>
<path d="M1169.9 585.497L1132.94 649.383H1059.05L1022.11 585.497L1059.05 521.61H1132.94L1169.9 585.497Z" fill="#F7B81A"/>
<path d="M1267.72 0L1310.84 74.5547L1267.72 149.11H1181.49L1138.37 74.5547L1181.49 0H1267.72ZM1145.31 74.5547L1184.96 143.11H1264.25L1303.9 74.5547L1264.25 6H1184.96L1145.31 74.5547Z" fill="#F7B81A"/>
<path d="M1298.54 74.6077L1261.59 138.494H1187.7L1150.75 74.6077L1187.7 10.7214H1261.59L1298.54 74.6077Z" fill="#FFDD00"/>
<path d="M384.474 1094.23L427.666 1168.91L384.474 1243.59H298.095L254.905 1168.91L298.095 1094.23H384.474ZM261.844 1168.91L301.565 1237.59H381.004L420.726 1168.91L381.004 1100.23H301.565L261.844 1168.91Z" fill="#F7B81A"/>
<path d="M415.06 1168.79L378.113 1232.68H304.22L267.273 1168.79L304.22 1104.91H378.113L415.06 1168.79Z" fill="#FFDD00"/>
<path d="M132.051 1094.47L175.243 1169.15L132.051 1243.83H45.6713L2.4817 1169.15L45.6713 1094.47H132.051ZM9.42009 1169.15L49.141 1237.83H128.582L168.303 1169.15L128.582 1100.47H49.141L9.42009 1169.15Z" fill="#F7B81A"/>
<path d="M162.637 1169.03L125.69 1232.92H51.7962L14.8496 1169.03L51.7962 1105.14H125.69L162.637 1169.03Z" fill="#F7B81A"/>
<path d="M511.106 1021.02L554.297 1095.71L511.106 1170.39H424.727L381.537 1095.71L424.727 1021.02H511.106ZM388.475 1095.71L428.197 1164.39H507.637L547.358 1095.71L507.637 1027.02H428.197L388.475 1095.71Z" fill="#F7B81A"/>
<path d="M541.692 1095.59L504.746 1159.47H430.852L393.905 1095.59L430.852 1031.7H504.746L541.692 1095.59Z" fill="#FFDD00"/>
<path d="M1141.73 802.257L1184.92 876.938L1141.73 951.62H1055.35L1012.17 876.938L1055.35 802.257H1141.73ZM1019.11 876.938L1058.82 945.62H1138.26L1177.98 876.938L1138.26 808.257H1058.82L1019.11 876.938Z" fill="#F7B81A"/>
<path d="M1172.32 876.821L1135.37 940.707H1061.47L1024.53 876.821L1061.47 812.934H1135.37L1172.32 876.821Z" fill="#FFDD00"/>
<path d="M1265.94 583.257L1309.13 657.938L1265.94 732.62H1179.56L1136.36 657.938L1179.56 583.257H1265.94ZM1143.3 657.938L1183.03 726.62H1262.47L1302.19 657.938L1262.47 589.257H1183.03L1143.3 657.938Z" fill="#F7B81A"/>
<path d="M1296.53 657.821L1259.58 721.707H1185.68L1148.74 657.821L1185.68 593.934H1259.58L1296.53 657.821Z" fill="#FFDD00"/>
<path d="M258.683 1021.26L301.874 1095.94L258.683 1170.62H172.304L129.113 1095.94L172.304 1021.26H258.683ZM136.052 1095.94L175.774 1164.62H255.214L294.934 1095.94L255.214 1027.26H175.774L136.052 1095.94Z" fill="#F7B81A"/>
<path d="M289.269 1095.82L252.323 1159.71H178.429L141.482 1095.82L178.429 1031.94H252.323L289.269 1095.82Z" fill="#FFDD00"/>
<path d="M1392.15 221.021L1435.34 295.701L1392.15 370.383H1305.77L1262.58 295.701L1305.77 221.021H1392.15ZM1269.51 295.701L1309.24 364.383H1388.68L1428.4 295.701L1388.68 227.021H1309.24L1269.51 295.701Z" fill="#F7B81A"/>
<path d="M1422.74 295.584L1385.79 359.471H1311.89L1274.95 295.584L1311.89 231.698H1385.79L1422.74 295.584Z" fill="#FFDD00"/>
<path d="M510.812 1167.14L554.002 1241.82L510.812 1316.5H424.433L381.243 1241.82L424.433 1167.14H510.812ZM388.182 1241.82L427.902 1310.5H507.342L547.063 1241.82L507.342 1173.14H427.902L388.182 1241.82Z" fill="#F7B81A"/>
<path d="M541.396 1241.71L504.451 1305.59H430.557L393.61 1241.71L430.557 1177.82H504.451L541.396 1241.71Z" fill="#F7B81A"/>
<path d="M258.389 1167.38L301.579 1242.06L258.389 1316.74H172.01L128.82 1242.06L172.01 1167.38H258.389ZM135.758 1242.06L175.479 1310.74H254.919L294.64 1242.06L254.919 1173.38H175.479L135.758 1242.06Z" fill="#F7B81A"/>
<path d="M288.973 1241.94L252.027 1305.83H178.133L141.187 1241.94L178.133 1178.05H252.027L288.973 1241.94Z" fill="#F7B81A"/>
<path d="M1394.15 367.021L1437.35 441.702L1394.15 516.384H1307.77L1264.58 441.702L1307.77 367.021H1394.15ZM1271.52 441.702L1311.24 510.384H1390.68L1430.41 441.702L1390.68 373.021H1311.24L1271.52 441.702Z" fill="#F7B81A"/>
<path d="M1424.74 441.585L1387.79 505.471H1313.9L1276.95 441.585L1313.9 377.698H1387.79L1424.74 441.585Z" fill="#F7B81A"/>
<path d="M1142.03 657.021L1185.21 731.701L1142.03 806.383H1055.65L1012.46 731.701L1055.65 657.021H1142.03ZM1019.4 731.701L1059.12 800.383H1138.56L1178.27 731.701L1138.56 663.021H1059.12L1019.4 731.701Z" fill="#F7B81A"/>
<path d="M1172.61 731.585L1135.67 795.471H1061.77L1024.82 731.585L1061.77 667.698H1135.67L1172.61 731.585Z" fill="#F7B81A"/>
<path d="M1266.24 438.021L1309.42 512.702L1266.24 587.384H1179.86L1136.67 512.702L1179.86 438.021H1266.24ZM1143.6 512.702L1183.33 581.384H1262.77L1302.48 512.702L1262.77 444.021H1183.33L1143.6 512.702Z" fill="#F7B81A"/>
<path d="M1296.82 512.585L1259.88 576.471H1185.98L1149.03 512.585L1185.98 448.698H1259.88L1296.82 512.585Z" fill="#FFDD00"/>
<path d="M1139.73 368.021L1182.92 442.702L1139.73 517.384H1053.35L1010.16 442.702L1053.35 368.021H1139.73ZM1017.1 442.702L1056.82 511.384H1136.26L1175.98 442.702L1136.26 374.021H1056.82L1017.1 442.702Z" fill="#F7B81A"/>
<path d="M1170.32 442.585L1133.36 506.471H1059.47L1022.53 442.585L1059.47 378.698H1133.36L1170.32 442.585Z" fill="#FFDD00"/>
<path d="M636.621 950.417L679.738 1024.97L636.621 1099.53H550.39L507.272 1024.97L550.39 950.417H636.621ZM514.211 1024.97L553.859 1093.53H633.151L672.799 1024.97L633.151 956.417H553.859L514.211 1024.97Z" fill="#F7B81A"/>
<path d="M667.44 1025.03L630.494 1088.91H556.6L519.653 1025.03L556.6 961.138H630.494L667.44 1025.03Z" fill="#F7B81A"/>
<path d="M1265.72 876L1308.83 950.555L1265.72 1025.11H1179.49L1136.36 950.555L1179.49 876H1265.72ZM1143.3 950.555L1182.96 1019.11H1262.25L1301.89 950.555L1262.25 882H1182.96L1143.3 950.555Z" fill="#F7B81A"/>
<path d="M1296.54 950.608L1259.59 1014.5H1185.7L1148.75 950.608L1185.7 886.721H1259.59L1296.54 950.608Z" fill="#FFDD00"/>
<path d="M1391.46 512.653L1434.57 587.207L1391.46 661.762H1305.22L1262.11 587.207L1305.22 512.653H1391.46ZM1269.04 587.207L1308.69 655.762H1387.99L1427.63 587.207L1387.99 518.653H1308.69L1269.04 587.207Z" fill="#F7B81A"/>
<path d="M1422.28 587.26L1385.33 651.146H1311.43L1274.49 587.26L1311.43 523.374H1385.33L1422.28 587.26Z" fill="#FFDD00"/>
<path d="M636.856 1095.99L680.047 1170.68L636.856 1245.36H550.477L507.287 1170.68L550.477 1095.99H636.856ZM514.226 1170.68L553.947 1239.36H633.387L673.107 1170.68L633.387 1101.99H553.947L514.226 1170.68Z" fill="#F7B81A"/>
<path d="M667.442 1170.56L630.495 1234.44H556.602L519.655 1170.56L556.602 1106.67H630.495L667.442 1170.56Z" fill="#FFDD00"/>
<path d="M763.488 1022.79L806.679 1097.47L763.488 1172.15H677.109L633.919 1097.47L677.109 1022.79H763.488ZM640.857 1097.47L680.579 1166.15H760.019L799.74 1097.47L760.019 1028.79H680.579L640.857 1097.47Z" fill="#F7B81A"/>
<path d="M794.074 1097.35L757.127 1161.24H683.234L646.287 1097.35L683.234 1033.47H757.127L794.074 1097.35Z" fill="#F7B81A"/>
<path d="M763.194 1168.91L806.385 1243.59L763.194 1318.27H676.815L633.624 1243.59L676.815 1168.91H763.194ZM640.563 1243.59L680.284 1312.27H759.724L799.445 1243.59L759.724 1174.91H680.284L640.563 1243.59Z" fill="#F7B81A"/>
<path d="M793.78 1243.47L756.833 1307.36H682.94L645.993 1243.47L682.94 1179.58H756.833L793.78 1243.47Z" fill="#F7B81A"/>
<path d="M636.857 1241.23L680.048 1315.91L636.857 1390.59H550.478L507.288 1315.91L550.478 1241.23H636.857ZM514.227 1315.91L553.948 1384.59H633.388L673.108 1315.91L633.388 1247.23H553.948L514.227 1315.91Z" fill="#F7B81A"/>
<path d="M667.443 1315.79L630.497 1379.68H556.603L519.656 1315.79L556.603 1251.91H630.497L667.443 1315.79Z" fill="#F7B81A"/>
<path d="M132.052 1241.47L175.243 1316.15L132.052 1390.83H45.6723L2.48269 1316.15L45.6723 1241.47H132.052ZM9.42107 1316.15L49.142 1384.83H128.583L168.303 1316.15L128.583 1247.47H49.142L9.42107 1316.15Z" fill="#F7B81A"/>
<path d="M162.638 1316.03L125.692 1379.92H51.7978L14.8511 1316.03L51.7978 1252.14H125.692L162.638 1316.03Z" fill="#FFDD00"/>
<path d="M509.694 1315.86L552.812 1390.42L509.694 1464.97H423.463L380.346 1390.42L423.463 1315.86H509.694ZM387.284 1390.42L426.933 1458.97H506.224L545.873 1390.42L506.225 1321.86H426.933L387.284 1390.42Z" fill="#F7B81A"/>
<path d="M540.514 1390.47L503.567 1454.36H429.673L392.727 1390.47L429.673 1326.58H503.567L540.514 1390.47Z" fill="#FFDD00"/>
<path d="M131.352 1385.47L174.47 1460.03L131.352 1534.58H129.69H48.7872H45.1206L2.00336 1460.03L45.1206 1385.47H131.352ZM8.94175 1460.03L48.5902 1528.58H127.881L167.531 1460.03L127.882 1391.47H48.5902L8.94175 1460.03Z" fill="#F7B81A"/>
<path d="M162.172 1460.08L125.225 1523.97H51.3309L14.385 1460.08L51.3309 1396.19H125.225L162.172 1460.08Z" fill="#FFDD00"/>
<path d="M636.198 1385.47L679.317 1460.03L636.198 1534.58H633.534H553.846H549.967L506.85 1460.03L549.967 1385.47H636.198ZM513.788 1460.03L553.437 1528.58H632.728L672.377 1460.03L632.729 1391.47H553.437L513.788 1460.03Z" fill="#F7B81A"/>
<path d="M667.018 1460.08L630.071 1523.97H556.177L519.231 1460.08L556.177 1396.19H630.071L667.018 1460.08Z" fill="#F7B81A"/>
<path d="M385.779 1388.47L428.897 1463.03L385.779 1537.58H299.547L299.339 1537.22L298.51 1535.79L256.43 1463.03L299.547 1388.47H385.779ZM263.368 1463.03L303.017 1531.58H382.308L421.957 1463.03L382.309 1394.47H303.017L263.368 1463.03Z" fill="#F7B81A"/>
<path d="M1140.05 1385.47L1183.16 1460.03L1140.05 1534.58H1137.38H1058.69H1053.81L1010.69 1460.03L1053.81 1385.47H1140.05ZM1017.63 1460.03L1057.28 1528.58H1136.58L1176.22 1460.03L1136.58 1391.47H1057.28L1017.63 1460.03Z" fill="#F7B81A"/>
<path d="M1170.87 1460.08L1133.91 1523.97H1060.02L1023.08 1460.08L1060.02 1396.19H1133.91L1170.87 1460.08Z" fill="#F7B81A"/>
<path d="M416.598 1463.08L379.651 1526.97H305.757L268.811 1463.08L305.757 1399.19H379.651L416.598 1463.08Z" fill="#FFDD00"/>
<path d="M890.625 1388.47L933.743 1463.03L890.625 1537.58H887.961H887.326H804.393L803.184 1535.49L802.855 1534.92L761.276 1463.03L804.393 1388.47H890.625ZM768.215 1463.03L807.863 1531.58H887.154L926.804 1463.03L887.155 1394.47H807.863L768.215 1463.03Z" fill="#F7B81A"/>
<path d="M921.445 1463.08L884.498 1526.97H810.604L773.658 1463.08L810.604 1399.19H884.498L921.445 1463.08Z" fill="#F7B81A"/>
<path d="M1394.47 1388.47L1437.59 1463.03L1396.06 1534.83L1394.47 1537.58H1394.18H1308.83H1308.24L1306.8 1535.09L1265.12 1463.03L1308.24 1388.47H1394.47ZM1272.06 1463.03L1311.7 1531.58H1391L1430.65 1463.03L1391 1394.47H1311.7L1272.06 1463.03Z" fill="#F7B81A"/>
<path d="M1425.29 1463.08L1388.34 1526.97H1314.45L1277.51 1463.08L1314.45 1399.19H1388.34L1425.29 1463.08Z" fill="#FFDD00"/>
<path d="M257.272 1316.1L300.389 1390.65L257.272 1465.21H171.041L127.923 1390.65L171.041 1316.1H257.272ZM134.862 1390.65L174.51 1459.21H253.802L293.45 1390.65L253.802 1322.1H174.51L134.862 1390.65Z" fill="#F7B81A"/>
<path d="M288.092 1390.71L251.145 1454.59H177.251L140.304 1390.71L177.251 1326.82H251.145L288.092 1390.71Z" fill="#F7B81A"/>
<path d="M1307.07 1679.68L1265.12 1607.15L1266.58 1604.64L1266.48 1604.47H1266.48L1265.26 1606.58H1182.12L1182.45 1607.15L1182.26 1607.47L1140.51 1679.68H1307.07Z" fill="#F7B81A"/>
<path d="M1048.45 1679.68L1009.58 1612.47H930.14L891.27 1679.68H1048.45Z" fill="#F7B81A"/>
<path d="M800.217 1679.68L758.271 1607.15L758.6 1606.58H675.273L675.602 1607.15L675.417 1607.47L633.656 1679.68H800.217Z" fill="#F7B81A"/>
<path d="M425.111 1612.47L386.241 1679.68H541.601L502.73 1612.47H425.111Z" fill="#F7B81A"/>
<path d="M297.374 1679.68L255.428 1607.15L255.757 1606.58H172.43L172.759 1607.15L172.574 1607.47L130.813 1679.68H297.374Z" fill="#F7B81A"/>
<path d="M544.789 1679.68L504.249 1609.58H426.782L425.111 1612.47H502.73L541.601 1679.68H544.789Z" fill="#F7B81A"/>
<path d="M929.625 1609.58L889.084 1679.68H891.27L930.14 1612.47H1009.58L1048.45 1679.68H1051.64L1011.1 1609.58H929.625Z" fill="#F7B81A"/>
<path fill-rule="evenodd" clip-rule="evenodd" d="M1310.05 1678.83H1392.96L1433.22 1609.2L1434.41 1607.15L1434.41 1607.14L1394.18 1537.58L1392.96 1535.47H1310.05L1308.83 1537.58L1268.59 1607.15L1310.05 1678.83ZM1311.79 1675.83L1272.06 1607.15L1311.79 1538.47H1391.22L1430.94 1607.15L1391.22 1675.83H1311.79Z" fill="#F7B81A"/>
<path d="M1272.06 1607.15L1311.79 1675.83H1391.22L1430.94 1607.15L1391.22 1538.47H1311.79L1272.06 1607.15Z" fill="#F7B81A"/>
<path fill-rule="evenodd" clip-rule="evenodd" d="M1054.62 1678.83H1137.09H1137.53L1178.98 1607.15L1178.77 1606.78L1137.53 1535.47H1058.7H1054.62L1013.16 1607.15L1014.57 1609.58L1054.62 1678.83ZM1056.36 1675.83L1016.94 1607.68L1056.96 1538.47H1135.8L1175.51 1607.15L1135.8 1675.83H1056.36Z" fill="#F7B81A"/>
<path fill-rule="evenodd" clip-rule="evenodd" d="M803.195 1678.83H886.105L927.561 1607.15L927.167 1606.47L887.326 1537.58L886.105 1535.47H803.195L803.184 1535.49L761.741 1607.15L803.195 1678.83ZM804.93 1675.83L765.21 1607.15L804.93 1538.47H884.37L924.091 1607.15L884.37 1675.83H804.93Z" fill="#F7B81A"/>
<path d="M1056.36 1675.83H1135.8L1175.51 1607.15L1135.8 1538.47H1056.96L1016.94 1607.68L1056.36 1675.83Z" fill="#F7B81A"/>
<path d="M765.21 1607.15L804.93 1675.83H884.37L924.091 1607.15L884.37 1538.47H804.93L765.21 1607.15Z" fill="#F7B81A"/>
<path fill-rule="evenodd" clip-rule="evenodd" d="M547.767 1678.83H630.241H630.677L672.133 1607.15L671.914 1606.77L630.677 1535.47H553.852H547.767L506.313 1607.15L507.718 1609.58L547.767 1678.83ZM549.502 1675.83L511.088 1609.41L552.117 1538.47H628.942L668.663 1607.15L628.942 1675.83H549.502Z" fill="#F7B81A"/>
<path fill-rule="evenodd" clip-rule="evenodd" d="M300.352 1678.83H383.262L423.376 1609.47L424.035 1608.33L424.718 1607.15L383.262 1535.47H300.352L299.339 1537.22L258.898 1607.15L300.352 1678.83ZM302.087 1675.83L262.367 1607.15L302.087 1538.47H381.527L420.855 1606.47L421.248 1607.15L381.527 1675.83H302.087Z" fill="#F7B81A"/>
<path d="M262.367 1607.15L302.087 1675.83H381.527L421.248 1607.15L420.855 1606.47L381.527 1538.47H302.087L262.367 1607.15Z" fill="#F7B81A"/>
<path d="M549.502 1675.83H628.942L668.663 1607.15L628.942 1538.47H552.117L511.088 1609.41L549.502 1675.83Z" fill="#F7B81A"/>
<path d="M126.099 1675.83L165.82 1607.15L126.099 1538.47H46.6593L7.77327 1605.71L48.3292 1675.83H126.099Z" fill="#F7B81A"/>
<path d="M127.834 1678.83H127.398H50.064L50.5555 1679.68H130.813L172.574 1607.47L172.759 1607.15L172.43 1606.58H171.332L170.257 1604.72L169.071 1606.77L169.29 1607.15L127.834 1678.83Z" fill="#F7B81A"/>
<path d="M46.5936 1678.83L47.0853 1679.68L50.5555 1679.68L50.064 1678.83H46.5936Z" fill="#F7B81A"/>
<path d="M44.9247 1678.83L3.96125 1608H0.491768L2.22674 1611H3.8952L43.6151 1679.68L47.0853 1679.68L46.5936 1678.83H44.9247Z" fill="#F7B81A"/>
<path d="M43.6151 1679.68L3.8952 1611H2.22674L41.9458 1679.68H43.6151Z" fill="#F7B81A"/>
<path d="M383.262 1678.83H300.352L258.898 1607.15L299.339 1537.22L298.51 1535.79L257.783 1606.2L257.564 1606.58H255.757L255.428 1607.15L297.374 1679.68H386.241L425.111 1612.47L426.782 1609.58H424.757L424.693 1609.47H423.376L383.262 1678.83Z" fill="#F7B81A"/>
<path d="M630.677 1678.83H630.241H547.767L507.718 1609.58H504.249L544.789 1679.68H633.656L675.417 1607.47L675.602 1607.15L675.273 1606.58H675.177L673.956 1604.47H673.246L671.914 1606.77L672.133 1607.15L630.677 1678.83Z" fill="#F7B81A"/>
<path d="M886.105 1678.83H803.195L761.741 1607.15L803.184 1535.49L802.855 1534.92L761.408 1606.58H760.846H758.6L758.271 1607.15L800.217 1679.68H889.084L929.625 1609.58H929.603L929.539 1609.47L927.804 1606.47H927.167L927.561 1607.15L886.105 1678.83Z" fill="#F7B81A"/>
<path d="M1137.53 1678.83H1137.09H1054.62L1014.57 1609.58H1011.1L1051.64 1679.68H1140.51L1182.26 1607.47L1182.45 1607.15L1182.12 1606.58H1179.02L1178.95 1606.46L1178.77 1606.78L1178.98 1607.15L1137.53 1678.83Z" fill="#F7B81A"/>
<path d="M1392.96 1678.83H1310.05L1268.59 1607.15L1308.83 1537.58H1308.24L1306.8 1535.09L1266.58 1604.64L1265.12 1607.15L1307.07 1679.68H1395.94L1436.47 1609.58H1436.47H1433.45L1433.22 1609.2L1392.96 1678.83Z" fill="#F7B81A"/>
<path fill-rule="evenodd" clip-rule="evenodd" d="M46.5936 1678.83H44.9247L3.96125 1608L3.46968 1607.15L3.79916 1606.58L44.9247 1535.47H48.2727L7.71137 1605.6L7.77327 1605.71L48.3292 1675.83L50.064 1678.83H46.5936ZM127.398 1678.83H127.834L169.29 1607.15L169.071 1606.77L127.398 1678.83Z" fill="#F7B81A"/>
<path d="M165.82 1607.15L126.099 1675.83H48.3292L50.064 1678.83H127.398L169.071 1606.77L127.834 1535.47H48.2727L7.71137 1605.6L7.77327 1605.71L46.6593 1538.47H126.099L165.82 1607.15Z" fill="#F7B81A"/>
<path d="M129.69 1534.58H48.7872L48.2727 1535.47H127.834L169.071 1606.77L170.257 1604.72L129.69 1534.58Z" fill="#F7B81A"/>
<path d="M423.376 1609.47H424.693L424.035 1608.33L423.376 1609.47Z" fill="#F7B81A"/>
<path d="M553.852 1535.47H630.677L671.914 1606.77L673.246 1604.47H673.956L633.534 1534.58H553.846L554.107 1535.03L553.852 1535.47Z" fill="#F7B81A"/>
<path d="M887.961 1537.58H887.326L927.167 1606.47H927.804L887.961 1537.58Z" fill="#F7B81A"/>
<path d="M1058.7 1535.47H1137.53L1178.77 1606.78L1178.95 1606.46L1137.38 1534.58H1058.69L1058.95 1535.03L1058.7 1535.47Z" fill="#F7B81A"/>
<path d="M3.46968 1607.15L3.79916 1606.58H0.329264L0 1607.15L0.491768 1608H3.96125L3.46968 1607.15Z" fill="#F7B81A"/>
<path d="M1394.18 1537.58L1434.41 1607.14L1436.14 1604.14L1396.06 1534.83L1394.47 1537.58H1394.18Z" fill="#F7B81A"/>
<path d="M1433.45 1609.58H1436.47L1437.88 1607.14L1436.14 1604.14L1434.41 1607.14L1434.41 1607.15L1433.22 1609.2L1433.45 1609.58Z" fill="#F7B81A"/>
<path d="M1439.66 1598.97L1402.72 1535.08L1439.66 1471.19V1598.97Z" fill="#FFDD00"/>
<path d="M1438.33 1454.36L1401.37 1390.47L1438.33 1326.58V1454.36Z" fill="#F7B81A"/>
<path d="M1439.21 1307.36L1402.26 1243.47L1439.21 1179.58V1307.36Z" fill="#FFDD00"/>
<path d="M1439.5 1161.24L1402.56 1097.35L1439.5 1033.47V1161.24Z" fill="#F7B81A"/>
<path d="M1391.05 1095.99H1393.12L1395.55 1100.2L1439.5 1024.21V1012.21L1391.05 1095.99Z" fill="#F7B81A"/>
<path d="M39.4172 955.585L2.47054 1019.47V891.698L39.4172 955.585Z" fill="#F7B81A"/>
<path d="M39.4172 1095.59L2.47054 1159.47V1031.7L39.4172 1095.59Z" fill="#FFDD00"/>
<path d="M39.4172 1242.59L2.47054 1306.47V1178.7L39.4172 1242.59Z" fill="#FFDD00"/>
<path d="M37.9635 1387.08L1.01654 1450.97V1323.19L37.9635 1387.08Z" fill="#FFDD00"/>
<path d="M37.9635 1532.08L1.01654 1595.97V1468.19L37.9635 1532.08Z" fill="#F7B81A"/>
<path d="M41.9458 1679.68L2.22674 1611L0.491768 1608L0 1607.15V1679.68H41.9458Z" fill="#F7B81A"/>
<path d="M1436.47 1609.58L1395.94 1679.68H1440V1609.47L1439.94 1609.58H1436.47Z" fill="#F7B81A"/>
</svg>
