<svg width="393" height="160" viewBox="0 0 393 160" fill="none" xmlns="http://www.w3.org/2000/svg">
<path d="M37.7586 66.4776C37.7586 66.4776 28.4863 28.3944 13.2123 17.3521C11.6634 16.2324 7.22337 12.7598 0 9.427V0H393V46.825C391.336 48.6182 389.738 50.6662 387.686 53.5774C377.668 67.7848 375.619 81.8025 375.619 95.5032C375.619 110.553 389.243 129.904 381.847 145.312C372.664 164.444 345.737 164.077 331.246 148.896C318.863 135.923 326.186 105.537 326.186 105.537C326.186 105.537 336.358 60.1066 316.455 45.6939C303.373 36.2212 284.343 29.7646 269.999 36.7354C258.514 42.317 249.684 54.28 251.583 65.3521C253.482 76.4242 236.237 80.676 226.006 66.7042C216.622 53.8898 223.318 48.8333 213.306 36.7354C207.078 29.2102 199.927 26.5002 191.119 27.4185C178.814 28.7015 172.046 41.0356 171.268 50.7107C170.49 60.3858 177.508 69.4875 183.335 80.8113C186.838 87.6197 186.448 93.3531 184.502 101.953C181.398 115.67 152.452 119.487 142.853 105.895C137.581 98.4285 136.77 93.7536 137.404 82.9613C138.183 69.7027 144.8 61.4609 138.572 46.0523C132.344 30.6437 100.037 28.852 88.3598 38.8855C76.6826 48.919 72.9387 62.0022 76.6826 78.6612C81.3535 99.445 92.6415 109.837 91.863 131.337C91.2592 148.013 70.0655 162.513 51.382 154.271C31.303 145.414 29.1953 130.621 36.9801 102.67C41.7708 85.4697 37.7586 66.4776 37.7586 66.4776Z" fill="#FFDD00"/>
</svg>
