<svg width="96" height="97" viewBox="0 0 96 97" fill="none" xmlns="http://www.w3.org/2000/svg">
<g clip-path="url(#clip0_808_15749)">
<path d="M96 48.25C96 21.7403 74.5097 0.25 48 0.25C21.4903 0.25 0 21.7403 0 48.25C0 72.2078 17.5528 92.0659 40.5 95.6669V62.125H28.3125V48.25H40.5V37.675C40.5 25.645 47.6663 19 58.6303 19C63.8803 19 69.375 19.9375 69.375 19.9375V31.75H63.3225C57.36 31.75 55.5 35.4503 55.5 39.25V48.25H68.8125L66.6844 62.125H55.5V95.6669C78.4472 92.0659 96 72.2078 96 48.25Z" fill="#111111"/>
<path d="M66.6844 62.125L68.8125 48.25H55.5V39.25C55.5 35.4541 57.36 31.75 63.3225 31.75H69.375V19.9375C69.375 19.9375 63.8822 19 58.6303 19C47.6663 19 40.5 25.645 40.5 37.675V48.25H28.3125V62.125H40.5V95.6669C45.4698 96.4444 50.5302 96.4444 55.5 95.6669V62.125H66.6844Z" fill="#FAFAFA"/>
</g>
<defs>
<clipPath id="clip0_808_15749">
<rect width="96" height="96" fill="white" transform="translate(0 0.25)"/>
</clipPath>
</defs>
</svg>
