<svg width="1440" height="356" viewBox="0 0 1440 356" fill="none" xmlns="http://www.w3.org/2000/svg">
<path d="M776.984 147.659C776.984 147.659 795.5 63.1621 826 38.6621C832.5 33.4408 864.5 5.16207 920 5.16211C1123.07 5.16226 1440 5.16211 1440 5.16211V0.162109H0V55.578C14.0465 60.3657 27.6323 67.1852 38.5887 76.8983C61.9065 97.5702 66.0734 99.8811 78.229 119.037C98.2322 150.56 102.324 181.661 102.324 212.06C102.324 245.453 75.12 288.386 89.8879 322.574C108.224 365.023 161.995 364.209 190.931 330.525C215.657 301.742 201.036 234.322 201.036 234.322C201.036 234.322 180.723 133.524 220.467 101.545C246.589 80.5279 284.589 66.2023 313.232 81.6688C336.167 94.053 353.798 120.596 350.006 145.162C346.214 169.728 380.651 179.162 401.081 148.162C419.818 119.73 406.448 108.511 426.441 81.6688C438.877 64.9722 453.158 58.9595 470.745 60.997C495.316 63.8436 508.83 91.2099 510.385 112.677C511.939 134.143 497.924 154.338 486.29 179.462C479.294 194.568 480.072 207.289 483.958 226.371C490.156 256.806 547.958 265.275 567.125 235.117C577.653 218.55 579.272 208.178 578.006 184.232C576.452 154.815 563.238 136.528 575.674 102.341C588.111 68.1528 652.623 64.1776 675.941 86.4394C699.259 108.701 706.735 137.73 699.259 174.692C689.931 220.806 667.391 243.863 668.945 291.567C670.151 328.566 712.472 360.738 749.78 342.451C789.875 322.799 794.084 289.977 778.539 227.961C768.973 189.798 776.984 147.659 776.984 147.659Z" fill="#FFDD00"/>
</svg>
