<svg width="96" height="97" viewBox="0 0 96 97" fill="none" xmlns="http://www.w3.org/2000/svg">
<path d="M0 48.25C0 74.7597 21.4903 96.25 48 96.25C74.5097 96.25 96 74.7597 96 48.25C96 21.7403 74.5097 0.25 48 0.25C21.4903 0.25 0 21.7403 0 48.25Z" fill="#111111"/>
<path d="M48.0001 27.8516C54.6001 27.8516 55.5001 27.8516 58.2001 27.8516C60.6001 27.8516 61.8001 28.4516 62.7001 28.7516C63.9001 29.3516 64.8001 29.6516 65.7001 30.5516C66.6001 31.4516 67.2001 32.3516 67.5001 33.5516C67.8001 34.4516 68.1001 35.6516 68.4001 38.0516C68.4001 40.7516 68.4001 41.3516 68.4001 48.2516C68.4001 55.1516 68.4001 55.7516 68.4001 58.4516C68.4001 60.8516 67.8001 62.0516 67.5001 62.9516C66.9001 64.1516 66.6001 65.0516 65.7001 65.9516C64.8001 66.8516 63.9001 67.4516 62.7001 67.7516C61.8001 68.0516 60.6001 68.3516 58.2001 68.6516C55.5001 68.6516 54.9001 68.6516 48.0001 68.6516C41.1001 68.6516 40.5001 68.6516 37.8001 68.6516C35.4001 68.6516 34.2001 68.0516 33.3001 67.7516C32.1001 67.1516 31.2001 66.8516 30.3001 65.9516C29.4001 65.0516 28.8001 64.1516 28.5001 62.9516C28.2001 62.0516 27.9001 60.8516 27.6001 58.4516C27.6001 55.7516 27.6001 55.1516 27.6001 48.2516C27.6001 41.3516 27.6001 40.7516 27.6001 38.0516C27.6001 35.6516 28.2001 34.4516 28.5001 33.5516C29.1001 32.3516 29.4001 31.4516 30.3001 30.5516C31.2001 29.6516 32.1001 29.0516 33.3001 28.7516C34.2001 28.4516 35.4001 28.1516 37.8001 27.8516C40.5001 27.8516 41.4001 27.8516 48.0001 27.8516ZM48.0001 23.3516C41.1001 23.3516 40.5001 23.3516 37.8001 23.3516C35.1001 23.3516 33.3001 23.9516 31.8001 24.5516C30.3001 25.1516 28.8001 26.0516 27.3001 27.5516C25.8001 29.0516 25.2001 30.2516 24.3001 32.0516C23.7001 33.5516 23.4001 35.3516 23.1001 38.0516C23.1001 40.7516 23.1001 41.6516 23.1001 48.2516C23.1001 55.1516 23.1001 55.7516 23.1001 58.4516C23.1001 61.1516 23.7001 62.9516 24.3001 64.4516C24.9001 65.9516 25.8001 67.4516 27.3001 68.9516C28.8001 70.4516 30.0001 71.0516 31.8001 71.9516C33.3001 72.5516 35.1001 72.8516 37.8001 73.1516C40.5001 73.1516 41.4001 73.1516 48.0001 73.1516C54.6001 73.1516 55.5001 73.1516 58.2001 73.1516C60.9001 73.1516 62.7001 72.5516 64.2001 71.9516C65.7001 71.3516 67.2001 70.4516 68.7001 68.9516C70.2001 67.4516 70.8001 66.2516 71.7001 64.4516C72.3001 62.9516 72.6001 61.1516 72.9001 58.4516C72.9001 55.7516 72.9001 54.8516 72.9001 48.2516C72.9001 41.6516 72.9001 40.7516 72.9001 38.0516C72.9001 35.3516 72.3001 33.5516 71.7001 32.0516C71.1001 30.5516 70.2001 29.0516 68.7001 27.5516C67.2001 26.0516 66.0001 25.4516 64.2001 24.5516C62.7001 23.9516 60.9001 23.6516 58.2001 23.3516C55.5001 23.3516 54.9001 23.3516 48.0001 23.3516Z" fill="#FAFAFA"/>
<path d="M48.0001 35.3516C40.8001 35.3516 35.1001 41.0516 35.1001 48.2516C35.1001 55.4516 40.8001 61.1516 48.0001 61.1516C55.2001 61.1516 60.9001 55.4516 60.9001 48.2516C60.9001 41.0516 55.2001 35.3516 48.0001 35.3516ZM48.0001 56.6516C43.5001 56.6516 39.6001 53.0516 39.6001 48.2516C39.6001 43.7516 43.2001 39.8516 48.0001 39.8516C52.5001 39.8516 56.4001 43.4516 56.4001 48.2516C56.4001 52.7516 52.5001 56.6516 48.0001 56.6516Z" fill="#FAFAFA"/>
<path d="M61.2001 38.0516C62.857 38.0516 64.2001 36.7084 64.2001 35.0516C64.2001 33.3947 62.857 32.0516 61.2001 32.0516C59.5432 32.0516 58.2001 33.3947 58.2001 35.0516C58.2001 36.7084 59.5432 38.0516 61.2001 38.0516Z" fill="#FAFAFA"/>
</svg>
