<svg width="48" height="49" viewBox="0 0 48 49" fill="none" xmlns="http://www.w3.org/2000/svg">
<path d="M24 2.25C11.6085 2.25 2 11.3305 2 23.59C2 30.003 4.629 35.547 8.908 39.375C9.2655 39.694 9.4855 40.145 9.4965 40.629L9.6175 44.545C9.62631 44.8331 9.70576 45.1147 9.84887 45.3649C9.99197 45.6152 10.1944 45.8264 10.4382 45.9801C10.6821 46.1338 10.96 46.2253 11.2475 46.2465C11.535 46.2676 11.8233 46.2178 12.087 46.1015L16.454 44.1765C16.8225 44.0115 17.2405 43.984 17.631 44.0885C19.6385 44.6385 21.7725 44.9355 24 44.9355C36.3915 44.9355 46 35.855 46 23.5955C46 11.336 36.3915 2.25 24 2.25Z" fill="#111111"/>
<path d="M10.7891 29.8353L17.2516 19.5833C17.4947 19.1973 17.8152 18.8659 18.1928 18.61C18.5705 18.3542 18.9971 18.1794 19.4457 18.0967C19.8943 18.014 20.3551 18.0252 20.7992 18.1296C21.2432 18.234 21.6608 18.4293 22.0256 18.7033L27.1681 22.5588C27.3977 22.7307 27.677 22.8231 27.9638 22.8221C28.2505 22.8211 28.5292 22.7267 28.7576 22.5533L35.6986 17.2843C36.6226 16.5803 37.8326 17.6913 37.2166 18.6758L30.7486 28.9223C30.5055 29.3083 30.185 29.6396 29.8073 29.8955C29.4297 30.1514 29.0031 30.3262 28.5545 30.4089C28.1059 30.4916 27.645 30.4804 27.201 30.376C26.7569 30.2715 26.3393 30.0762 25.9746 29.8023L20.8321 25.9468C20.6025 25.7749 20.3232 25.6825 20.0364 25.6835C19.7496 25.6844 19.471 25.7788 19.2426 25.9523L12.3016 31.2213C11.3776 31.9253 10.1676 30.8198 10.7891 29.8353Z" fill="#FAFAFA"/>
</svg>
