<svg xmlns="http://www.w3.org/2000/svg" xmlns:xlink="http://www.w3.org/1999/xlink" width="378" zoomAndPan="magnify" viewBox="0 0 283.5 283.500005" height="378" preserveAspectRatio="xMidYMid meet" version="1.2"><defs><clipPath id="c44bffb37a"><path d="M 141.5 0 C 63.351562 0 0 63.351562 0 141.5 C 0 219.648438 63.351562 283 141.5 283 C 219.648438 283 283 219.648438 283 141.5 C 283 63.351562 219.648438 0 141.5 0 Z M 141.5 0 "/></clipPath><clipPath id="c85637d6fe"><path d="M 141.5 0 C 63.351562 0 0 63.351562 0 141.5 C 0 219.648438 63.351562 283 141.5 283 C 219.648438 283 283 219.648438 283 141.5 C 283 63.351562 219.648438 0 141.5 0 Z M 141.5 0 "/></clipPath><clipPath id="007685c3a7"><rect x="0" width="283" y="0" height="283"/></clipPath><clipPath id="ba41326f25"><path d="M 0.664062 0 L 281.789062 0 L 281.789062 281.121094 L 0.664062 281.121094 Z M 0.664062 0 "/></clipPath><clipPath id="dfe50cd477"><path d="M 0.480469 3 L 281 3 L 281 283 L 0.480469 283 Z M 0.480469 3 "/></clipPath><filter x="0%" y="0%" width="100%" filterUnits="objectBoundingBox" id="7f1ca38c73" height="100%"><feColorMatrix values="0 0 0 0 1 0 0 0 0 1 0 0 0 0 1 0 0 0 1 0" type="matrix" in="SourceGraphic"/></filter><clipPath id="4aa72496eb"><path d="M 0.625 0.707031 L 279.917969 0.707031 L 279.917969 280 L 0.625 280 Z M 0.625 0.707031 "/></clipPath><clipPath id="82f1446394"><path d="M 140.269531 0.707031 C 63.144531 0.707031 0.625 63.230469 0.625 140.355469 C 0.625 217.480469 63.144531 280 140.269531 280 C 217.394531 280 279.917969 217.480469 279.917969 140.355469 C 279.917969 63.230469 217.394531 0.707031 140.269531 0.707031 Z M 140.269531 0.707031 "/></clipPath><clipPath id="ca33d1a464"><path d="M 0.625 0.707031 L 279.917969 0.707031 L 279.917969 280 L 0.625 280 Z M 0.625 0.707031 "/></clipPath><clipPath id="2f3276879a"><path d="M 140.269531 0.707031 C 63.144531 0.707031 0.625 63.230469 0.625 140.355469 C 0.625 217.480469 63.144531 280 140.269531 280 C 217.394531 280 279.917969 217.480469 279.917969 140.355469 C 279.917969 63.230469 217.394531 0.707031 140.269531 0.707031 Z M 140.269531 0.707031 "/></clipPath><clipPath id="fdbb91cc98"><rect x="0" width="280" y="0" height="280"/></clipPath><clipPath id="fce1845ea3"><rect x="0" width="281" y="0" height="280"/></clipPath><clipPath id="cfbfc752f8"><path d="M 0.335938 1 L 192.171875 1 L 192.171875 194.316406 L 0.335938 194.316406 Z M 0.335938 1 "/></clipPath><clipPath id="82dda89a60"><rect x="0" width="193" y="0" height="195"/></clipPath><clipPath id="48478d838b"><rect x="0" width="135" y="0" height="79"/></clipPath><clipPath id="790e3377ea"><rect x="0" width="137" y="0" height="107"/></clipPath><clipPath id="10368d9f0a"><path d="M 60 136 L 102 136 L 102 202 L 60 202 Z M 60 136 "/></clipPath><clipPath id="09b7ba377e"><path d="M 28.554688 143.476562 L 90.230469 119.105469 L 116.742188 186.199219 L 55.066406 210.570312 Z M 28.554688 143.476562 "/></clipPath><clipPath id="ac3aca4317"><path d="M 28.554688 143.476562 L 90.230469 119.105469 L 116.742188 186.199219 L 55.066406 210.570312 Z M 28.554688 143.476562 "/></clipPath><clipPath id="866a1b4893"><path d="M 32 140 L 61 140 L 61 172 L 32 172 Z M 32 140 "/></clipPath><clipPath id="6418607e36"><path d="M 28.554688 143.476562 L 90.230469 119.105469 L 116.742188 186.199219 L 55.066406 210.570312 Z M 28.554688 143.476562 "/></clipPath><clipPath id="395d722a08"><path d="M 28.554688 143.476562 L 90.230469 119.105469 L 116.742188 186.199219 L 55.066406 210.570312 Z M 28.554688 143.476562 "/></clipPath><clipPath id="111bb8cb7f"><path d="M 217 199 L 258.621094 199 L 258.621094 234 L 217 234 Z M 217 199 "/></clipPath><clipPath id="07690f968a"><path d="M 96 23.367188 L 192 23.367188 L 192 37 L 96 37 Z M 96 23.367188 "/></clipPath><clipPath id="3d10555878"><path d="M 244 89 L 258.621094 89 L 258.621094 174 L 244 174 Z M 244 89 "/></clipPath><clipPath id="0a8d6bcc95"><path d="M 88 246 L 184 246 L 184 259.519531 L 88 259.519531 Z M 88 246 "/></clipPath><clipPath id="d3a77b89f6"><path d="M 21.820312 109 L 36 109 L 36 194 L 21.820312 194 Z M 21.820312 109 "/></clipPath><clipPath id="1410c73719"><rect x="0" width="283" y="0" height="283"/></clipPath><clipPath id="067e0d3ee2"><rect x="0" width="283" y="0" height="283"/></clipPath></defs><g id="b07f96c322"><g transform="matrix(1,0,0,1,0,0.000000000000005262)"><g clip-path="url(#067e0d3ee2)"><g clip-rule="nonzero" clip-path="url(#c44bffb37a)"><g transform="matrix(1,0,0,1,0,0.000000000000005262)"><g id="045593a6c4" clip-path="url(#007685c3a7)"><g clip-rule="nonzero" clip-path="url(#c85637d6fe)"><rect x="0" width="283" y="0" height="283" style="fill:#ffffff;fill-opacity:1;stroke:none;"/></g></g></g></g><g transform="matrix(1,0,0,1,0,0.000000000000005262)"><g id="8301612cc9" clip-path="url(#1410c73719)"><g clip-rule="nonzero" clip-path="url(#ba41326f25)"><path style=" stroke:none;fill-rule:nonzero;fill:#feb80a;fill-opacity:1;" d="M 278.132812 140.59375 C 278.132812 65.09375 216.710938 3.667969 141.210938 3.667969 C 65.710938 3.667969 4.289062 65.09375 4.289062 140.59375 C 4.289062 216.089844 65.710938 277.515625 141.210938 277.515625 C 216.710938 277.515625 278.132812 216.089844 278.132812 140.59375 Z M 0.632812 140.59375 C 0.632812 63.078125 63.695312 0.015625 141.210938 0.015625 C 218.726562 0.015625 281.789062 63.078125 281.789062 140.59375 C 281.789062 218.105469 218.726562 281.167969 141.210938 281.167969 C 63.695312 281.167969 0.632812 218.105469 0.632812 140.59375 "/></g><g clip-rule="nonzero" clip-path="url(#dfe50cd477)"><g mask="url(#ab7d158d0e)" transform="matrix(1,0,0,1,0,3)"><g id="0619d493ed" clip-path="url(#fce1845ea3)"><g clip-rule="nonzero" clip-path="url(#4aa72496eb)"><g clip-rule="nonzero" clip-path="url(#82f1446394)"><g transform="matrix(1,0,0,1,0,0.000000000000005773)"><g id="ae373e6b08" clip-path="url(#fdbb91cc98)"><g clip-rule="nonzero" clip-path="url(#ca33d1a464)"><g clip-rule="nonzero" clip-path="url(#2f3276879a)"><path style=" stroke:none;fill-rule:nonzero;fill:#ffde59;fill-opacity:1;" d="M 0.625 0.707031 L 279.917969 0.707031 L 279.917969 280 L 0.625 280 Z M 0.625 0.707031 "/></g></g></g></g></g></g></g><mask id="ab7d158d0e"><g filter="url(#7f1ca38c73)"><rect x="0" width="283" y="0" height="283" style="fill:#000000;fill-opacity:0.39;stroke:none;"/></g></mask></g></g><g mask="url(#90074d0bd0)" transform="matrix(1,0,0,1,44,44)"><g id="207160bbcc" clip-path="url(#82dda89a60)"><g clip-rule="nonzero" clip-path="url(#cfbfc752f8)"><path style=" stroke:none;fill-rule:nonzero;fill:#feb80a;fill-opacity:1;" d="M 54.757812 1.046875 L 51.109375 3.152344 L 49.71875 2.351562 C 49.332031 2.632812 48.976562 2.957031 48.640625 3.304688 L 50.429688 4.335938 L 50.429688 16.453125 L 41.101562 21.847656 C 41.101562 22.347656 41.140625 22.855469 41.167969 23.371094 L 51.109375 17.636719 L 61.597656 23.6875 L 61.597656 35.816406 L 51.109375 41.878906 L 42.964844 37.175781 C 43.007812 37.734375 43.035156 38.273438 43.050781 38.796875 L 45.179688 40.023438 L 50.425781 43.0625 L 50.425781 55.1875 L 39.9375 61.25 L 29.792969 55.394531 C 28.710938 55.578125 27.695312 55.734375 26.824219 55.914062 L 24.359375 57.34375 C 24.234375 57.882812 24.519531 58.273438 24.859375 58.621094 L 28.765625 56.367188 L 39.257812 62.429688 L 39.257812 74.550781 L 28.765625 80.609375 L 18.273438 74.550781 L 18.273438 62.429688 L 19.859375 61.515625 C 19.175781 61.765625 18.492188 62.128906 17.824219 62.664062 C 17.492188 62.929688 17.191406 63.300781 16.914062 63.710938 L 16.914062 74.550781 L 12.324219 77.203125 C 12.042969 77.769531 11.726562 78.257812 11.375 78.644531 C 9.878906 80.285156 7.636719 81.230469 5.742188 81.898438 L 5.742188 88.058594 C 6.390625 88.710938 6.910156 89.316406 7.105469 89.773438 L 7.105469 81.78125 L 17.59375 75.730469 L 28.085938 81.78125 L 28.085938 93.910156 L 17.59375 99.972656 L 7.105469 93.910156 L 7.105469 90.398438 C 6.90625 90.660156 6.390625 90.503906 5.742188 90.359375 L 5.742188 93.90625 L 3.113281 95.425781 C 3.238281 95.867188 3.378906 96.335938 3.527344 96.804688 L 6.425781 95.132812 L 16.914062 101.195312 L 16.914062 113.296875 L 6.425781 119.351562 L 1.839844 116.707031 C 1.527344 117.015625 0.980469 117.234375 0.335938 117.410156 L 5.742188 120.53125 L 5.742188 132.660156 L 2.023438 134.804688 C 2.382812 135.109375 2.757812 135.425781 3.128906 135.742188 L 6.425781 133.839844 L 11.671875 136.871094 L 16.914062 139.898438 L 16.914062 146.902344 C 17.359375 147.25 17.824219 147.605469 18.273438 147.953125 L 18.273438 139.898438 L 28.765625 133.839844 L 34.019531 136.871094 L 39.257812 139.898438 L 39.257812 152.027344 L 30.511719 157.082031 C 30.914062 157.371094 31.328125 157.660156 31.738281 157.949219 L 39.9375 153.210938 L 50.429688 159.265625 L 50.429688 170.40625 C 50.882812 170.6875 51.335938 170.976562 51.792969 171.253906 L 51.792969 159.265625 L 62.285156 153.210938 L 72.777344 159.265625 L 72.777344 171.390625 L 62.363281 177.402344 C 62.828125 177.660156 63.296875 177.910156 63.757812 178.160156 L 73.457031 172.566406 L 83.941406 178.617188 L 83.941406 187.628906 C 84.398438 187.800781 84.851562 187.988281 85.308594 188.15625 L 85.308594 178.65625 L 95.789062 172.59375 L 106.289062 178.65625 L 106.289062 190.78125 L 102.378906 193.042969 C 103.082031 193.171875 103.777344 193.296875 104.46875 193.402344 L 106.96875 191.953125 L 110.570312 194.03125 C 111.539062 194.085938 112.492188 194.113281 113.433594 194.113281 L 107.648438 190.769531 L 107.648438 178.640625 L 118.140625 172.59375 L 128.632812 178.640625 L 128.632812 190.769531 L 126.042969 192.269531 C 126.078125 192.269531 126.089844 192.269531 126.105469 192.230469 C 127.441406 191.792969 128.757812 191.308594 130.0625 190.796875 L 129.992188 190.757812 L 129.992188 178.628906 L 140.484375 172.578125 L 150.949219 178.613281 C 151.976562 177.800781 153 176.964844 154.003906 176.101562 L 151.65625 177.453125 L 141.164062 171.394531 L 141.164062 159.277344 L 151.65625 153.214844 L 162.144531 159.277344 L 162.144531 168.222656 C 162.605469 167.726562 163.058594 167.222656 163.507812 166.71875 L 163.507812 159.277344 L 173.667969 153.40625 C 174.007812 152.882812 174.34375 152.359375 174.675781 151.832031 L 174.675781 139.902344 L 183.574219 134.765625 C 183.863281 134.082031 184.144531 133.394531 184.421875 132.703125 L 173.996094 138.726562 L 163.507812 132.664062 L 163.507812 120.535156 L 173.996094 114.484375 L 184.488281 120.535156 L 184.488281 132.527344 C 184.960938 131.339844 185.417969 130.144531 185.847656 128.941406 L 185.847656 120.535156 L 189 118.714844 C 189.15625 118.105469 189.316406 117.496094 189.460938 116.878906 L 185.167969 119.363281 L 174.675781 113.300781 L 174.675781 101.199219 L 185.167969 95.136719 L 192.125 99.15625 C 192.160156 98.632812 192.183594 98.113281 192.203125 97.589844 L 185.847656 93.917969 L 185.847656 81.789062 L 191.019531 78.804688 C 190.929688 78.328125 190.851562 77.855469 190.757812 77.386719 L 185.167969 80.617188 L 174.675781 74.554688 L 174.675781 62.429688 L 182.800781 57.734375 C 182.535156 57.371094 182.277344 56.996094 182 56.628906 L 173.996094 61.253906 L 163.503906 55.191406 L 163.503906 43.0625 L 166.105469 41.558594 C 165.703125 41.269531 165.304688 40.976562 164.898438 40.6875 L 162.824219 41.886719 L 152.332031 35.824219 L 152.332031 32.84375 C 151.886719 32.597656 151.421875 32.355469 150.972656 32.101562 L 150.972656 35.824219 L 140.480469 41.886719 L 129.992188 35.824219 L 129.992188 23.695312 L 131.457031 22.847656 C 130.933594 22.625 130.410156 22.402344 129.882812 22.191406 L 129.308594 22.515625 L 126.132812 20.6875 C 123.503906 19.652344 120.871094 18.648438 118.242188 17.703125 L 128.625 23.695312 L 128.625 35.824219 L 118.132812 41.886719 L 107.648438 35.824219 L 107.648438 23.695312 L 118.113281 17.652344 C 117.546875 17.453125 116.984375 17.253906 116.421875 17.058594 L 106.96875 22.515625 L 96.476562 16.460938 L 96.476562 10.617188 C 96.011719 10.480469 95.570312 10.355469 95.109375 10.222656 L 95.109375 16.433594 L 84.617188 22.496094 L 74.128906 16.433594 L 74.128906 4.777344 C 73.679688 4.671875 73.207031 4.554688 72.769531 4.460938 L 72.769531 16.433594 L 62.277344 22.496094 L 51.785156 16.433594 L 51.785156 4.3125 L 56.976562 1.320312 C 55.96875 1.160156 55.191406 1.0625 54.75 1.03125 Z M 73.457031 17.636719 L 83.941406 23.6875 L 83.941406 35.816406 L 73.457031 41.878906 L 62.964844 35.816406 L 62.964844 23.6875 Z M 95.789062 17.675781 L 106.289062 23.738281 L 106.289062 35.867188 L 95.804688 41.921875 L 85.308594 35.855469 L 85.308594 23.738281 Z M 62.285156 37.011719 L 67.523438 40.039062 L 72.777344 43.074219 L 72.777344 55.203125 L 62.285156 61.257812 L 51.792969 55.203125 L 51.792969 43.074219 Z M 84.578125 37.054688 L 95.113281 43.136719 L 95.113281 55.214844 L 84.621094 61.277344 L 74.136719 55.214844 L 74.136719 43.089844 Z M 106.972656 37.054688 L 112.207031 40.078125 L 117.460938 43.109375 L 117.460938 55.242188 L 106.972656 61.300781 L 96.480469 55.242188 L 96.480469 43.109375 L 101.726562 40.078125 Z M 129.3125 37.054688 L 134.554688 40.078125 L 139.804688 43.109375 L 139.804688 55.242188 L 129.3125 61.300781 L 118.824219 55.242188 L 118.824219 43.109375 Z M 151.65625 37.054688 L 156.898438 40.078125 L 162.148438 43.109375 L 162.148438 55.242188 L 151.65625 61.300781 L 141.164062 55.242188 L 141.164062 43.109375 Z M 51.109375 56.394531 L 61.601562 62.457031 L 61.601562 74.578125 L 51.109375 80.636719 L 40.617188 74.578125 L 40.617188 62.457031 Z M 73.457031 56.394531 L 83.941406 62.457031 L 83.941406 74.578125 L 73.457031 80.636719 L 62.964844 74.578125 L 62.964844 62.457031 Z M 95.800781 56.433594 L 106.289062 62.496094 L 106.289062 74.613281 L 95.800781 80.675781 L 85.308594 74.613281 L 85.308594 62.496094 Z M 118.140625 56.433594 L 128.632812 62.496094 L 128.632812 74.613281 L 118.140625 80.675781 L 107.652344 74.613281 L 107.652344 62.496094 Z M 140.484375 56.433594 L 150.976562 62.496094 L 150.976562 74.613281 L 140.484375 80.675781 L 129.992188 74.613281 L 129.992188 62.496094 Z M 162.828125 56.433594 L 173.316406 62.496094 L 173.316406 74.613281 L 162.828125 80.675781 L 152.335938 74.613281 L 152.335938 62.496094 Z M 39.9375 75.769531 L 50.429688 81.824219 L 50.429688 93.949219 L 39.9375 100.011719 L 29.445312 93.949219 L 29.445312 81.824219 Z M 62.285156 75.769531 L 72.777344 81.824219 L 72.777344 93.949219 L 62.285156 100.011719 L 51.792969 93.949219 L 51.792969 81.824219 Z M 106.972656 75.8125 L 117.460938 81.863281 L 117.460938 93.992188 L 106.972656 100.050781 L 96.480469 93.992188 L 96.480469 81.863281 Z M 129.3125 75.8125 L 139.804688 81.863281 L 139.804688 93.992188 L 129.3125 100.050781 L 118.824219 93.992188 L 118.824219 81.863281 Z M 151.65625 75.8125 L 162.148438 81.863281 L 162.148438 93.992188 L 151.65625 100.050781 L 141.164062 93.992188 L 141.164062 81.863281 Z M 173.996094 75.8125 L 184.492188 81.863281 L 184.492188 93.992188 L 173.996094 100.050781 L 163.507812 93.992188 L 163.507812 81.863281 Z M 84.574219 75.8125 L 95.105469 81.898438 L 95.105469 93.972656 L 84.617188 100.035156 L 74.125 93.972656 L 74.125 81.84375 Z M 28.773438 95.1875 L 39.257812 101.25 L 39.257812 113.351562 L 28.773438 119.414062 L 18.28125 113.351562 L 18.28125 101.25 Z M 51.109375 95.1875 L 61.601562 101.25 L 61.601562 113.351562 L 51.117188 119.414062 L 40.625 113.351562 L 40.625 101.25 Z M 73.457031 95.1875 L 83.949219 101.25 L 83.949219 113.351562 L 73.457031 119.414062 L 62.964844 113.351562 L 62.964844 101.25 Z M 95.789062 95.1875 L 106.289062 101.257812 L 106.289062 113.363281 L 95.816406 119.414062 L 85.308594 113.347656 L 85.308594 101.238281 Z M 118.144531 95.1875 L 128.632812 101.25 L 128.632812 113.351562 L 118.144531 119.414062 L 107.652344 113.351562 L 107.652344 101.25 Z M 140.484375 95.1875 L 150.976562 101.25 L 150.976562 113.351562 L 140.484375 119.414062 L 129.992188 113.351562 L 129.992188 101.25 Z M 162.828125 95.1875 L 173.320312 101.25 L 173.320312 113.351562 L 162.828125 119.414062 L 152.335938 113.351562 L 152.335938 101.25 Z M 17.597656 114.507812 L 28.089844 120.558594 L 28.089844 132.6875 L 17.597656 138.75 L 7.105469 132.6875 L 7.105469 120.558594 Z M 39.9375 114.507812 L 50.429688 120.558594 L 50.429688 132.6875 L 39.9375 138.75 L 29.453125 132.6875 L 29.453125 120.558594 Z M 62.285156 114.507812 L 72.777344 120.558594 L 72.777344 132.6875 L 62.285156 138.75 L 51.792969 132.6875 L 51.792969 120.558594 Z M 84.59375 114.507812 L 95.109375 120.574219 L 95.109375 132.679688 L 84.617188 138.738281 L 74.128906 132.679688 L 74.128906 120.550781 Z M 106.972656 114.507812 L 117.460938 120.558594 L 117.460938 132.6875 L 106.972656 138.75 L 96.480469 132.6875 L 96.480469 120.558594 Z M 129.316406 114.507812 L 139.804688 120.558594 L 139.804688 132.6875 L 129.316406 138.75 L 118.824219 132.6875 L 118.824219 120.558594 Z M 151.65625 114.507812 L 162.148438 120.558594 L 162.148438 132.6875 L 151.65625 138.75 L 141.164062 132.6875 L 141.164062 120.558594 Z M 51.117188 133.839844 L 56.363281 136.875 L 61.601562 139.902344 L 61.601562 152.035156 L 51.117188 158.09375 L 40.625 152.035156 L 40.625 139.902344 Z M 73.457031 133.839844 L 78.707031 136.875 L 83.949219 139.902344 L 83.949219 152.035156 L 73.457031 158.09375 L 62.964844 152.035156 L 62.964844 139.902344 Z M 95.800781 133.886719 L 101.050781 136.917969 L 106.289062 139.941406 L 106.289062 152.070312 L 95.804688 158.128906 L 85.308594 152.0625 L 85.308594 139.941406 Z M 118.144531 133.886719 L 123.390625 136.917969 L 128.632812 139.941406 L 128.632812 152.070312 L 118.144531 158.132812 L 107.652344 152.070312 L 107.652344 139.941406 Z M 140.484375 133.886719 L 145.734375 136.917969 L 150.976562 139.941406 L 150.976562 152.070312 L 140.484375 158.132812 L 129.992188 152.070312 L 129.992188 139.941406 Z M 162.828125 133.886719 L 168.074219 136.917969 L 173.320312 139.941406 L 173.320312 152.070312 L 162.828125 158.132812 L 152.335938 152.070312 L 152.335938 139.941406 Z M 84.59375 153.25 L 95.113281 159.320312 L 95.113281 171.414062 L 84.628906 177.46875 L 74.136719 171.414062 L 74.136719 159.289062 Z M 106.972656 153.25 L 117.460938 159.304688 L 117.460938 171.429688 L 106.972656 177.484375 L 96.480469 171.429688 L 96.480469 159.304688 Z M 129.316406 153.25 L 139.804688 159.304688 L 139.804688 171.429688 L 129.316406 177.484375 L 118.824219 171.429688 L 118.824219 159.304688 Z M 129.316406 153.25 "/></g></g><mask id="90074d0bd0"><g filter="url(#7f1ca38c73)"><rect x="0" width="283" y="0" height="283" style="fill:#000000;fill-opacity:0.58;stroke:none;"/></g></mask></g><g transform="matrix(1,0,0,1,80,72)"><g id="80baac74a6" clip-path="url(#48478d838b)"><g style="fill:#800000;fill-opacity:1;"><g transform="translate(6.873283, 60.843497)"><path style="stroke:none" d="M 4.53125 -0.375 C 4.132812 -0.3125 3.671875 -0.414062 3.140625 -0.6875 C 2.617188 -0.96875 2.117188 -1.328125 1.640625 -1.765625 C 1.171875 -2.203125 0.769531 -2.628906 0.4375 -3.046875 C 0.101562 -3.460938 -0.0703125 -3.757812 -0.09375 -3.9375 C -0.125 -4.144531 -0.0859375 -4.738281 0.015625 -5.71875 C 0.117188 -6.707031 0.265625 -7.9375 0.453125 -9.40625 C 0.648438 -10.882812 0.859375 -12.488281 1.078125 -14.21875 C 1.304688 -15.957031 1.546875 -17.695312 1.796875 -19.4375 C 2.046875 -21.1875 2.265625 -22.832031 2.453125 -24.375 C 2.640625 -25.914062 2.800781 -27.207031 2.9375 -28.25 C 2.257812 -28.445312 1.675781 -28.75 1.1875 -29.15625 C 0.707031 -29.5625 0.328125 -29.972656 0.046875 -30.390625 C -0.222656 -30.816406 -0.375 -31.117188 -0.40625 -31.296875 C -0.414062 -31.390625 -0.265625 -31.46875 0.046875 -31.53125 C 0.359375 -31.601562 0.703125 -31.675781 1.078125 -31.75 C 1.453125 -31.820312 1.707031 -31.882812 1.84375 -31.9375 L 4.71875 -32.703125 C 5.082031 -32.753906 5.890625 -32.960938 7.140625 -33.328125 C 8.390625 -33.691406 9.859375 -33.992188 11.546875 -34.234375 C 14.296875 -34.617188 16.476562 -34.210938 18.09375 -33.015625 C 19.71875 -31.828125 20.675781 -30.195312 20.96875 -28.125 C 21.09375 -27.257812 21.007812 -26.234375 20.71875 -25.046875 C 20.4375 -23.859375 19.988281 -22.628906 19.375 -21.359375 C 18.757812 -20.097656 18.023438 -18.910156 17.171875 -17.796875 C 16.328125 -16.679688 15.421875 -15.757812 14.453125 -15.03125 C 11.671875 -12.945312 9.269531 -11.628906 7.25 -11.078125 C 6.925781 -9.171875 6.597656 -7.410156 6.265625 -5.796875 C 5.929688 -4.191406 5.609375 -2.894531 5.296875 -1.90625 C 4.992188 -0.914062 4.738281 -0.40625 4.53125 -0.375 Z M 8.3125 -17.4375 C 9.226562 -17.6875 10.101562 -18.160156 10.9375 -18.859375 C 11.769531 -19.554688 12.507812 -20.378906 13.15625 -21.328125 C 13.800781 -22.273438 14.289062 -23.242188 14.625 -24.234375 C 14.957031 -25.234375 15.066406 -26.140625 14.953125 -26.953125 C 14.867188 -27.554688 14.578125 -28.101562 14.078125 -28.59375 C 13.578125 -29.09375 12.878906 -29.28125 11.984375 -29.15625 C 11.117188 -29.03125 10.414062 -28.882812 9.875 -28.71875 C 9.84375 -28.3125 9.75 -27.53125 9.59375 -26.375 C 9.445312 -25.21875 9.257812 -23.847656 9.03125 -22.265625 C 8.8125 -20.691406 8.570312 -19.082031 8.3125 -17.4375 Z M 8.3125 -17.4375 "/></g></g><g style="fill:#800000;fill-opacity:1;"><g transform="translate(30.901276, 57.438361)"><path style="stroke:none" d="M 4.703125 -0.203125 C 4.304688 -0.148438 3.785156 -0.191406 3.140625 -0.328125 C 2.503906 -0.472656 1.835938 -0.757812 1.140625 -1.1875 C 0.453125 -1.625 -0.160156 -2.269531 -0.703125 -3.125 C -1.253906 -3.988281 -1.628906 -5.113281 -1.828125 -6.5 C -2.109375 -8.476562 -1.84375 -10.179688 -1.03125 -11.609375 C -0.226562 -13.035156 0.894531 -14.171875 2.34375 -15.015625 C 3.800781 -15.867188 5.367188 -16.414062 7.046875 -16.65625 C 8.253906 -16.820312 9.242188 -16.816406 10.015625 -16.640625 C 10.796875 -16.460938 11.390625 -16.289062 11.796875 -16.125 C 11.816406 -16.226562 11.878906 -16.519531 11.984375 -17 C 12.085938 -17.488281 12.171875 -18.046875 12.234375 -18.671875 C 12.296875 -19.296875 12.300781 -19.796875 12.25 -20.171875 C 12.132812 -20.960938 11.804688 -21.429688 11.265625 -21.578125 C 10.722656 -21.734375 10.0625 -21.757812 9.28125 -21.65625 C 8.257812 -21.507812 7.300781 -21.226562 6.40625 -20.8125 C 5.519531 -20.394531 4.804688 -20 4.265625 -19.625 C 3.722656 -19.257812 3.453125 -19.078125 3.453125 -19.078125 C 3.453125 -19.078125 3.320312 -19.273438 3.0625 -19.671875 C 2.8125 -20.066406 2.546875 -20.5 2.265625 -20.96875 C 1.984375 -21.4375 1.820312 -21.800781 1.78125 -22.0625 C 1.769531 -22.125 1.769531 -22.160156 1.78125 -22.171875 C 1.800781 -22.191406 1.8125 -22.210938 1.8125 -22.234375 C 2.550781 -23.054688 3.785156 -23.832031 5.515625 -24.5625 C 7.253906 -25.300781 9.304688 -25.835938 11.671875 -26.171875 C 12.628906 -26.304688 13.671875 -26.257812 14.796875 -26.03125 C 15.929688 -25.8125 16.9375 -25.410156 17.8125 -24.828125 C 18.695312 -24.253906 19.207031 -23.472656 19.34375 -22.484375 C 19.488281 -21.492188 19.445312 -20.285156 19.21875 -18.859375 C 19 -17.429688 18.695312 -15.835938 18.3125 -14.078125 C 17.9375 -12.328125 17.570312 -10.453125 17.21875 -8.453125 C 16.988281 -7.273438 16.957031 -6.085938 17.125 -4.890625 C 17.28125 -3.804688 17.476562 -3.128906 17.71875 -2.859375 C 17.96875 -2.597656 18.097656 -2.4375 18.109375 -2.375 C 18.109375 -2.34375 18.039062 -2.28125 17.90625 -2.1875 C 17.769531 -2.09375 17.3125 -1.988281 16.53125 -1.875 C 15.394531 -1.71875 14.460938 -1.835938 13.734375 -2.234375 C 13.003906 -2.640625 12.441406 -3.132812 12.046875 -3.71875 C 11.648438 -4.3125 11.367188 -4.796875 11.203125 -5.171875 C 10.929688 -4.484375 10.46875 -3.785156 9.8125 -3.078125 C 9.164062 -2.378906 8.398438 -1.757812 7.515625 -1.21875 C 6.628906 -0.6875 5.691406 -0.347656 4.703125 -0.203125 Z M 6.84375 -5.09375 C 7.300781 -5.164062 7.753906 -5.394531 8.203125 -5.78125 C 8.660156 -6.164062 9.078125 -6.613281 9.453125 -7.125 C 9.835938 -7.632812 10.148438 -8.097656 10.390625 -8.515625 C 10.640625 -8.929688 10.789062 -9.207031 10.84375 -9.34375 C 10.914062 -9.84375 10.992188 -10.34375 11.078125 -10.84375 C 11.171875 -11.34375 11.238281 -11.84375 11.28125 -12.34375 C 11.164062 -12.320312 10.851562 -12.378906 10.34375 -12.515625 C 9.832031 -12.660156 9.160156 -12.675781 8.328125 -12.5625 C 7.398438 -12.425781 6.601562 -12.09375 5.9375 -11.5625 C 5.28125 -11.03125 4.785156 -10.410156 4.453125 -9.703125 C 4.128906 -8.992188 4.015625 -8.3125 4.109375 -7.65625 C 4.210938 -6.925781 4.484375 -6.285156 4.921875 -5.734375 C 5.367188 -5.191406 6.007812 -4.976562 6.84375 -5.09375 Z M 6.84375 -5.09375 "/></g></g><g style="fill:#800000;fill-opacity:1;"><g transform="translate(53.624379, 54.218149)"><path style="stroke:none" d="M 4.5 -0.3125 C 3.570312 -0.1875 2.546875 -0.222656 1.421875 -0.421875 C 0.304688 -0.617188 -0.660156 -0.9375 -1.484375 -1.375 C -2.304688 -1.8125 -2.757812 -2.347656 -2.84375 -2.984375 C -2.9375 -3.609375 -2.859375 -4.300781 -2.609375 -5.0625 C -2.367188 -5.820312 -2.082031 -6.484375 -1.75 -7.046875 C -1.425781 -7.617188 -1.203125 -7.910156 -1.078125 -7.921875 C -1.015625 -7.929688 -0.929688 -7.828125 -0.828125 -7.609375 C -0.722656 -7.390625 -0.429688 -7.109375 0.046875 -6.765625 C 0.566406 -6.398438 1.207031 -6.101562 1.96875 -5.875 C 2.738281 -5.65625 3.378906 -5.582031 3.890625 -5.65625 C 5.148438 -5.832031 6.125 -6.160156 6.8125 -6.640625 C 7.5 -7.117188 7.820312 -7.539062 7.78125 -7.90625 C 7.195312 -8.175781 6.519531 -8.59375 5.75 -9.15625 C 4.976562 -9.71875 4.222656 -10.382812 3.484375 -11.15625 C 2.753906 -11.925781 2.113281 -12.769531 1.5625 -13.6875 C 1.019531 -14.613281 0.679688 -15.570312 0.546875 -16.5625 C 0.335938 -17.96875 0.484375 -19.21875 0.984375 -20.3125 C 1.492188 -21.40625 2.21875 -22.347656 3.15625 -23.140625 C 4.101562 -23.929688 5.15625 -24.570312 6.3125 -25.0625 C 7.476562 -25.550781 8.613281 -25.875 9.71875 -26.03125 C 11.425781 -26.269531 12.785156 -26.113281 13.796875 -25.5625 C 14.804688 -25.019531 15.40625 -24.085938 15.59375 -22.765625 C 15.71875 -21.867188 15.707031 -21.003906 15.5625 -20.171875 C 15.425781 -19.335938 15.273438 -18.597656 15.109375 -17.953125 C 14.941406 -17.304688 14.882812 -16.800781 14.9375 -16.4375 C 14.945312 -16.3125 14.976562 -16.160156 15.03125 -15.984375 C 15.09375 -15.804688 15.132812 -15.648438 15.15625 -15.515625 C 15.207031 -15.179688 15.125 -15 14.90625 -14.96875 C 14.21875 -14.875 13.515625 -14.90625 12.796875 -15.0625 C 12.085938 -15.21875 11.488281 -15.46875 11 -15.8125 C 10.507812 -16.164062 10.234375 -16.546875 10.171875 -16.953125 C 10.097656 -17.503906 10.113281 -18.09375 10.21875 -18.71875 C 10.332031 -19.34375 10.445312 -19.9375 10.5625 -20.5 C 10.6875 -21.070312 10.722656 -21.519531 10.671875 -21.84375 C 10.585938 -22.414062 10.320312 -22.671875 9.875 -22.609375 C 9.332031 -22.535156 8.753906 -22.191406 8.140625 -21.578125 C 7.523438 -20.972656 7.019531 -20.242188 6.625 -19.390625 C 6.226562 -18.535156 6.085938 -17.703125 6.203125 -16.890625 C 6.285156 -16.296875 6.582031 -15.742188 7.09375 -15.234375 C 7.601562 -14.734375 8.222656 -14.242188 8.953125 -13.765625 C 9.679688 -13.285156 10.398438 -12.789062 11.109375 -12.28125 C 11.828125 -11.769531 12.445312 -11.222656 12.96875 -10.640625 C 13.5 -10.054688 13.816406 -9.390625 13.921875 -8.640625 C 14.085938 -7.410156 13.84375 -6.304688 13.1875 -5.328125 C 12.539062 -4.347656 11.675781 -3.503906 10.59375 -2.796875 C 9.519531 -2.085938 8.421875 -1.523438 7.296875 -1.109375 C 6.179688 -0.691406 5.25 -0.425781 4.5 -0.3125 Z M 4.5 -0.3125 "/></g></g><g style="fill:#800000;fill-opacity:1;"><g transform="translate(72.522801, 51.539953)"><path style="stroke:none" d="M 7.03125 -0.671875 C 5.34375 -0.429688 3.898438 -0.601562 2.703125 -1.1875 C 1.503906 -1.769531 0.785156 -2.882812 0.546875 -4.53125 C 0.453125 -5.226562 0.472656 -6.347656 0.609375 -7.890625 C 0.742188 -9.441406 0.945312 -11.238281 1.21875 -13.28125 C 1.5 -15.320312 1.789062 -17.40625 2.09375 -19.53125 C 1.019531 -19.132812 0.140625 -18.78125 -0.546875 -18.46875 C -1.242188 -18.164062 -1.660156 -18.003906 -1.796875 -17.984375 C -1.890625 -17.960938 -1.941406 -17.984375 -1.953125 -18.046875 C -1.972656 -18.210938 -1.847656 -18.597656 -1.578125 -19.203125 C -1.316406 -19.816406 -1.015625 -20.421875 -0.671875 -21.015625 C -0.335938 -21.617188 -0.0625 -21.992188 0.15625 -22.140625 C 0.332031 -22.265625 0.640625 -22.394531 1.078125 -22.53125 C 1.515625 -22.664062 2.023438 -22.804688 2.609375 -22.953125 C 2.972656 -25.179688 3.257812 -27.128906 3.46875 -28.796875 C 3.6875 -30.460938 3.757812 -31.535156 3.6875 -32.015625 C 3.65625 -32.253906 3.625 -32.414062 3.59375 -32.5 C 3.5625 -32.59375 3.546875 -32.640625 3.546875 -32.640625 C 3.546875 -32.640625 3.738281 -32.617188 4.125 -32.578125 C 4.519531 -32.546875 4.988281 -32.46875 5.53125 -32.34375 C 6.082031 -32.21875 6.628906 -32.035156 7.171875 -31.796875 C 7.710938 -31.554688 8.132812 -31.238281 8.4375 -30.84375 C 8.84375 -30.601562 9.113281 -30.375 9.25 -30.15625 C 9.382812 -29.945312 9.46875 -29.722656 9.5 -29.484375 C 9.570312 -28.953125 9.367188 -27.148438 8.890625 -24.078125 C 8.890625 -24.078125 9.066406 -24.101562 9.421875 -24.15625 C 9.785156 -24.207031 10.210938 -24.257812 10.703125 -24.3125 C 11.191406 -24.363281 11.628906 -24.398438 12.015625 -24.421875 C 12.398438 -24.453125 12.628906 -24.457031 12.703125 -24.4375 C 12.867188 -24.394531 12.976562 -24.269531 13.03125 -24.0625 C 13.082031 -23.851562 13.125 -23.640625 13.15625 -23.421875 C 13.1875 -23.222656 13.164062 -22.992188 13.09375 -22.734375 C 13.03125 -22.484375 12.910156 -22.34375 12.734375 -22.3125 L 12.046875 -22.21875 C 11.359375 -22.125 10.644531 -22.007812 9.90625 -21.875 C 9.175781 -21.75 8.695312 -21.648438 8.46875 -21.578125 C 8.195312 -19.773438 7.90625 -17.859375 7.59375 -15.828125 C 7.28125 -13.796875 7.007812 -11.851562 6.78125 -10 C 6.5625 -8.144531 6.398438 -6.539062 6.296875 -5.1875 C 6.265625 -4.957031 6.25 -4.726562 6.25 -4.5 C 6.25 -4.269531 6.257812 -4.0625 6.28125 -3.875 C 6.425781 -2.882812 6.742188 -2.175781 7.234375 -1.75 C 7.722656 -1.332031 8.082031 -1.0625 8.3125 -0.9375 C 8.101562 -0.882812 7.894531 -0.835938 7.6875 -0.796875 C 7.476562 -0.753906 7.257812 -0.710938 7.03125 -0.671875 Z M 7.03125 -0.671875 "/></g></g><g style="fill:#800000;fill-opacity:1;"><g transform="translate(86.51664, 49.556811)"><path style="stroke:none" d="M 3.625 -0.046875 C 3.257812 0.00390625 2.84375 -0.113281 2.375 -0.40625 C 1.90625 -0.695312 1.46875 -1.054688 1.0625 -1.484375 C 0.65625 -1.921875 0.304688 -2.335938 0.015625 -2.734375 C -0.273438 -3.128906 -0.4375 -3.421875 -0.46875 -3.609375 C -0.519531 -3.960938 -0.488281 -4.644531 -0.375 -5.65625 C -0.257812 -6.664062 -0.0859375 -7.878906 0.140625 -9.296875 C 0.378906 -10.710938 0.617188 -12.191406 0.859375 -13.734375 C 1.097656 -15.285156 1.328125 -16.78125 1.546875 -18.21875 C 1.773438 -19.65625 1.941406 -20.90625 2.046875 -21.96875 C 2.160156 -23.039062 2.1875 -23.789062 2.125 -24.21875 C 2.082031 -24.550781 2.039062 -24.742188 2 -24.796875 C 1.957031 -24.859375 1.9375 -24.890625 1.9375 -24.890625 C 1.9375 -24.890625 2.21875 -24.859375 2.78125 -24.796875 C 3.34375 -24.734375 3.984375 -24.625 4.703125 -24.46875 C 5.429688 -24.3125 6.085938 -24.109375 6.671875 -23.859375 C 7.253906 -23.609375 7.570312 -23.285156 7.625 -22.890625 C 7.664062 -22.628906 7.691406 -22.296875 7.703125 -21.890625 C 7.710938 -21.492188 7.71875 -21.132812 7.71875 -20.8125 C 7.71875 -20.488281 7.71875 -20.328125 7.71875 -20.328125 C 7.84375 -20.554688 8.097656 -20.984375 8.484375 -21.609375 C 8.867188 -22.234375 9.347656 -22.894531 9.921875 -23.59375 C 10.492188 -24.300781 11.128906 -24.9375 11.828125 -25.5 C 12.535156 -26.0625 13.265625 -26.394531 14.015625 -26.5 C 14.878906 -26.625 15.585938 -26.410156 16.140625 -25.859375 C 16.691406 -25.304688 17.117188 -24.597656 17.421875 -23.734375 C 17.734375 -22.878906 17.945312 -22.046875 18.0625 -21.234375 C 18.113281 -20.847656 18.15625 -20.375 18.1875 -19.8125 C 18.226562 -19.257812 18.179688 -18.894531 18.046875 -18.71875 C 17.910156 -18.539062 17.703125 -18.382812 17.421875 -18.25 C 17.140625 -18.125 16.640625 -17.984375 15.921875 -17.828125 C 15.210938 -17.679688 14.132812 -17.507812 12.6875 -17.3125 C 12.632812 -17.300781 12.585938 -17.429688 12.546875 -17.703125 C 12.515625 -17.953125 12.488281 -18.226562 12.46875 -18.53125 C 12.457031 -18.832031 12.441406 -19.046875 12.421875 -19.171875 C 12.359375 -19.617188 12.238281 -20.035156 12.0625 -20.421875 C 11.894531 -20.804688 11.613281 -20.972656 11.21875 -20.921875 C 10.945312 -20.878906 10.628906 -20.632812 10.265625 -20.1875 C 9.898438 -19.738281 9.535156 -19.191406 9.171875 -18.546875 C 8.804688 -17.898438 8.46875 -17.253906 8.15625 -16.609375 C 7.851562 -15.960938 7.597656 -15.425781 7.390625 -15 C 7.191406 -14.582031 7.09375 -14.375 7.09375 -14.375 C 6.882812 -12.863281 6.632812 -11.289062 6.34375 -9.65625 C 6.050781 -8.03125 5.75 -6.492188 5.4375 -5.046875 C 5.125 -3.597656 4.804688 -2.410156 4.484375 -1.484375 C 4.171875 -0.566406 3.882812 -0.0859375 3.625 -0.046875 Z M 3.625 -0.046875 "/></g></g><g style="fill:#800000;fill-opacity:1;"><g transform="translate(106.134995, 46.776589)"><path style="stroke:none" d="M 4.703125 -0.203125 C 4.304688 -0.148438 3.785156 -0.191406 3.140625 -0.328125 C 2.503906 -0.472656 1.835938 -0.757812 1.140625 -1.1875 C 0.453125 -1.625 -0.160156 -2.269531 -0.703125 -3.125 C -1.253906 -3.988281 -1.628906 -5.113281 -1.828125 -6.5 C -2.109375 -8.476562 -1.84375 -10.179688 -1.03125 -11.609375 C -0.226562 -13.035156 0.894531 -14.171875 2.34375 -15.015625 C 3.800781 -15.867188 5.367188 -16.414062 7.046875 -16.65625 C 8.253906 -16.820312 9.242188 -16.816406 10.015625 -16.640625 C 10.796875 -16.460938 11.390625 -16.289062 11.796875 -16.125 C 11.816406 -16.226562 11.878906 -16.519531 11.984375 -17 C 12.085938 -17.488281 12.171875 -18.046875 12.234375 -18.671875 C 12.296875 -19.296875 12.300781 -19.796875 12.25 -20.171875 C 12.132812 -20.960938 11.804688 -21.429688 11.265625 -21.578125 C 10.722656 -21.734375 10.0625 -21.757812 9.28125 -21.65625 C 8.257812 -21.507812 7.300781 -21.226562 6.40625 -20.8125 C 5.519531 -20.394531 4.804688 -20 4.265625 -19.625 C 3.722656 -19.257812 3.453125 -19.078125 3.453125 -19.078125 C 3.453125 -19.078125 3.320312 -19.273438 3.0625 -19.671875 C 2.8125 -20.066406 2.546875 -20.5 2.265625 -20.96875 C 1.984375 -21.4375 1.820312 -21.800781 1.78125 -22.0625 C 1.769531 -22.125 1.769531 -22.160156 1.78125 -22.171875 C 1.800781 -22.191406 1.8125 -22.210938 1.8125 -22.234375 C 2.550781 -23.054688 3.785156 -23.832031 5.515625 -24.5625 C 7.253906 -25.300781 9.304688 -25.835938 11.671875 -26.171875 C 12.628906 -26.304688 13.671875 -26.257812 14.796875 -26.03125 C 15.929688 -25.8125 16.9375 -25.410156 17.8125 -24.828125 C 18.695312 -24.253906 19.207031 -23.472656 19.34375 -22.484375 C 19.488281 -21.492188 19.445312 -20.285156 19.21875 -18.859375 C 19 -17.429688 18.695312 -15.835938 18.3125 -14.078125 C 17.9375 -12.328125 17.570312 -10.453125 17.21875 -8.453125 C 16.988281 -7.273438 16.957031 -6.085938 17.125 -4.890625 C 17.28125 -3.804688 17.476562 -3.128906 17.71875 -2.859375 C 17.96875 -2.597656 18.097656 -2.4375 18.109375 -2.375 C 18.109375 -2.34375 18.039062 -2.28125 17.90625 -2.1875 C 17.769531 -2.09375 17.3125 -1.988281 16.53125 -1.875 C 15.394531 -1.71875 14.460938 -1.835938 13.734375 -2.234375 C 13.003906 -2.640625 12.441406 -3.132812 12.046875 -3.71875 C 11.648438 -4.3125 11.367188 -4.796875 11.203125 -5.171875 C 10.929688 -4.484375 10.46875 -3.785156 9.8125 -3.078125 C 9.164062 -2.378906 8.398438 -1.757812 7.515625 -1.21875 C 6.628906 -0.6875 5.691406 -0.347656 4.703125 -0.203125 Z M 6.84375 -5.09375 C 7.300781 -5.164062 7.753906 -5.394531 8.203125 -5.78125 C 8.660156 -6.164062 9.078125 -6.613281 9.453125 -7.125 C 9.835938 -7.632812 10.148438 -8.097656 10.390625 -8.515625 C 10.640625 -8.929688 10.789062 -9.207031 10.84375 -9.34375 C 10.914062 -9.84375 10.992188 -10.34375 11.078125 -10.84375 C 11.171875 -11.34375 11.238281 -11.84375 11.28125 -12.34375 C 11.164062 -12.320312 10.851562 -12.378906 10.34375 -12.515625 C 9.832031 -12.660156 9.160156 -12.675781 8.328125 -12.5625 C 7.398438 -12.425781 6.601562 -12.09375 5.9375 -11.5625 C 5.28125 -11.03125 4.785156 -10.410156 4.453125 -9.703125 C 4.128906 -8.992188 4.015625 -8.3125 4.109375 -7.65625 C 4.210938 -6.925781 4.484375 -6.285156 4.921875 -5.734375 C 5.367188 -5.191406 6.007812 -4.976562 6.84375 -5.09375 Z M 6.84375 -5.09375 "/></g></g><g style="fill:#800000;fill-opacity:1;"><g transform="translate(128.868256, 43.554937)"><path style="stroke:none" d=""/></g></g></g></g><g transform="matrix(1,0,0,1,91,91)"><g id="908c3183d9" clip-path="url(#790e3377ea)"><g style="fill:#d6a82c;fill-opacity:0.4;"><g transform="translate(17.447513, 87.154802)"><path style="stroke:none" d="M 12.140625 -15.3125 C 9.960938 -15.007812 8.226562 -14.941406 6.9375 -15.109375 C 6.4375 -13.191406 6.28125 -10.878906 6.46875 -8.171875 C 14.375 -9.710938 21.816406 -12.546875 28.796875 -16.671875 C 31.171875 -18.023438 33.421875 -19.550781 35.546875 -21.25 L 37.953125 -14.4375 C 34.015625 -11.113281 29.25 -8.007812 23.65625 -5.125 C 17.695312 -2.050781 11.953125 0 6.421875 1.03125 L -3.265625 -5.78125 C -4.140625 -12.175781 -3.195312 -18.25 -0.4375 -24 C 1.570312 -28 4.019531 -31.28125 6.90625 -33.84375 C 9.789062 -36.40625 12.625 -38.347656 15.40625 -39.671875 L 28.46875 -31.546875 C 27.96875 -26.566406 26.242188 -22.765625 23.296875 -20.140625 C 20.347656 -17.523438 16.628906 -15.914062 12.140625 -15.3125 Z M 8.984375 -21.75 C 11.679688 -22.113281 13.925781 -23.171875 15.71875 -24.921875 C 17.789062 -27.003906 18.613281 -29.617188 18.1875 -32.765625 C 13.851562 -29.585938 10.785156 -25.914062 8.984375 -21.75 Z M 8.984375 -21.75 "/></g></g><g style="fill:#d6a82c;fill-opacity:0.4;"><g transform="translate(54.820005, 82.070017)"><path style="stroke:none" d="M 12.140625 -15.3125 C 9.960938 -15.007812 8.226562 -14.941406 6.9375 -15.109375 C 6.4375 -13.191406 6.28125 -10.878906 6.46875 -8.171875 C 14.375 -9.710938 21.816406 -12.546875 28.796875 -16.671875 C 31.171875 -18.023438 33.421875 -19.550781 35.546875 -21.25 L 37.953125 -14.4375 C 34.015625 -11.113281 29.25 -8.007812 23.65625 -5.125 C 17.695312 -2.050781 11.953125 0 6.421875 1.03125 L -3.265625 -5.78125 C -4.140625 -12.175781 -3.195312 -18.25 -0.4375 -24 C 1.570312 -28 4.019531 -31.28125 6.90625 -33.84375 C 9.789062 -36.40625 12.625 -38.347656 15.40625 -39.671875 L 28.46875 -31.546875 C 27.96875 -26.566406 26.242188 -22.765625 23.296875 -20.140625 C 20.347656 -17.523438 16.628906 -15.914062 12.140625 -15.3125 Z M 8.984375 -21.75 C 11.679688 -22.113281 13.925781 -23.171875 15.71875 -24.921875 C 17.789062 -27.003906 18.613281 -29.617188 18.1875 -32.765625 C 13.851562 -29.585938 10.785156 -25.914062 8.984375 -21.75 Z M 8.984375 -21.75 "/></g></g><g style="fill:#d6a82c;fill-opacity:0.4;"><g transform="translate(92.192496, 76.985231)"><path style="stroke:none" d="M 2.78125 -8.65625 C 14.78125 -11.050781 25.050781 -15.160156 33.59375 -20.984375 L 36.015625 -14.171875 C 32.023438 -10.835938 26.882812 -7.660156 20.59375 -4.640625 C 13.90625 -1.515625 7.914062 0.546875 2.625 1.546875 L -6.765625 -5.03125 C -6.453125 -8.976562 -6.0625 -11.789062 -5.59375 -13.46875 C 2.664062 -19.40625 9.28125 -24.363281 14.25 -28.34375 C 10.65625 -29.175781 5.210938 -28.640625 -2.078125 -26.734375 L 2.203125 -36.890625 C 3.234375 -37.273438 4.421875 -37.554688 5.765625 -37.734375 C 8.535156 -38.109375 11.144531 -37.90625 13.59375 -37.125 C 16.039062 -36.351562 18.554688 -35.316406 21.140625 -34.015625 L 24.59375 -37.09375 L 29.34375 -30.390625 C 23.863281 -25.265625 18.835938 -20.925781 14.265625 -17.375 C 9.703125 -13.820312 5.875 -10.914062 2.78125 -8.65625 Z M 2.78125 -8.65625 "/></g></g><g style="fill:#ffa31b;fill-opacity:1;"><g transform="translate(13.958959, 84.501844)"><path style="stroke:none" d="M 12.140625 -15.3125 C 9.960938 -15.007812 8.226562 -14.941406 6.9375 -15.109375 C 6.4375 -13.191406 6.28125 -10.878906 6.46875 -8.171875 C 14.375 -9.710938 21.816406 -12.546875 28.796875 -16.671875 C 31.171875 -18.023438 33.421875 -19.550781 35.546875 -21.25 L 37.953125 -14.4375 C 34.015625 -11.113281 29.25 -8.007812 23.65625 -5.125 C 17.695312 -2.050781 11.953125 0 6.421875 1.03125 L -3.265625 -5.78125 C -4.140625 -12.175781 -3.195312 -18.25 -0.4375 -24 C 1.570312 -28 4.019531 -31.28125 6.90625 -33.84375 C 9.789062 -36.40625 12.625 -38.347656 15.40625 -39.671875 L 28.46875 -31.546875 C 27.96875 -26.566406 26.242188 -22.765625 23.296875 -20.140625 C 20.347656 -17.523438 16.628906 -15.914062 12.140625 -15.3125 Z M 8.984375 -21.75 C 11.679688 -22.113281 13.925781 -23.171875 15.71875 -24.921875 C 17.789062 -27.003906 18.613281 -29.617188 18.1875 -32.765625 C 13.851562 -29.585938 10.785156 -25.914062 8.984375 -21.75 Z M 8.984375 -21.75 "/></g></g><g style="fill:#ffa31b;fill-opacity:1;"><g transform="translate(51.33145, 79.417058)"><path style="stroke:none" d="M 12.140625 -15.3125 C 9.960938 -15.007812 8.226562 -14.941406 6.9375 -15.109375 C 6.4375 -13.191406 6.28125 -10.878906 6.46875 -8.171875 C 14.375 -9.710938 21.816406 -12.546875 28.796875 -16.671875 C 31.171875 -18.023438 33.421875 -19.550781 35.546875 -21.25 L 37.953125 -14.4375 C 34.015625 -11.113281 29.25 -8.007812 23.65625 -5.125 C 17.695312 -2.050781 11.953125 0 6.421875 1.03125 L -3.265625 -5.78125 C -4.140625 -12.175781 -3.195312 -18.25 -0.4375 -24 C 1.570312 -28 4.019531 -31.28125 6.90625 -33.84375 C 9.789062 -36.40625 12.625 -38.347656 15.40625 -39.671875 L 28.46875 -31.546875 C 27.96875 -26.566406 26.242188 -22.765625 23.296875 -20.140625 C 20.347656 -17.523438 16.628906 -15.914062 12.140625 -15.3125 Z M 8.984375 -21.75 C 11.679688 -22.113281 13.925781 -23.171875 15.71875 -24.921875 C 17.789062 -27.003906 18.613281 -29.617188 18.1875 -32.765625 C 13.851562 -29.585938 10.785156 -25.914062 8.984375 -21.75 Z M 8.984375 -21.75 "/></g></g><g style="fill:#ffa31b;fill-opacity:1;"><g transform="translate(88.703942, 74.332273)"><path style="stroke:none" d="M 2.78125 -8.65625 C 14.78125 -11.050781 25.050781 -15.160156 33.59375 -20.984375 L 36.015625 -14.171875 C 32.023438 -10.835938 26.882812 -7.660156 20.59375 -4.640625 C 13.90625 -1.515625 7.914062 0.546875 2.625 1.546875 L -6.765625 -5.03125 C -6.453125 -8.976562 -6.0625 -11.789062 -5.59375 -13.46875 C 2.664062 -19.40625 9.28125 -24.363281 14.25 -28.34375 C 10.65625 -29.175781 5.210938 -28.640625 -2.078125 -26.734375 L 2.203125 -36.890625 C 3.234375 -37.273438 4.421875 -37.554688 5.765625 -37.734375 C 8.535156 -38.109375 11.144531 -37.90625 13.59375 -37.125 C 16.039062 -36.351562 18.554688 -35.316406 21.140625 -34.015625 L 24.59375 -37.09375 L 29.34375 -30.390625 C 23.863281 -25.265625 18.835938 -20.925781 14.265625 -17.375 C 9.703125 -13.820312 5.875 -10.914062 2.78125 -8.65625 Z M 2.78125 -8.65625 "/></g></g><g style="fill:#d6a82c;fill-opacity:0.4;"><g transform="translate(127.636917, 72.162773)"><path style="stroke:none" d=""/></g></g><g style="fill:#ffa31b;fill-opacity:1;"><g transform="translate(124.148363, 69.509815)"><path style="stroke:none" d=""/></g></g></g></g><g clip-rule="nonzero" clip-path="url(#10368d9f0a)"><g clip-rule="nonzero" clip-path="url(#09b7ba377e)"><g clip-rule="nonzero" clip-path="url(#ac3aca4317)"><path style=" stroke:none;fill-rule:nonzero;fill:#800000;fill-opacity:1;" d="M 100.757812 145.925781 C 98.304688 140.230469 92.675781 136.632812 86.546875 136.71875 C 78.949219 136.824219 72.667969 142.578125 68.488281 148.441406 C 65.097656 153.199219 61.886719 159.71875 60.613281 166.316406 C 59.515625 171.960938 59.828125 177.652344 62.644531 182.351562 C 62.734375 182.503906 62.957031 182.5 63.046875 182.347656 L 71.441406 167.878906 C 71.507812 167.765625 71.464844 167.613281 71.34375 167.554688 C 70.035156 166.898438 68.691406 166.417969 67.339844 166.125 C 66.558594 165.957031 65.78125 165.847656 65 165.8125 C 65.0625 156.910156 73.945312 139.773438 87.167969 141.40625 C 90.738281 141.847656 94.429688 144.554688 95.957031 147.503906 C 101.984375 159.136719 84.632812 171.289062 77.800781 172.644531 C 77.5 172.300781 77.195312 171.96875 76.878906 171.648438 C 76.675781 171.4375 76.46875 171.230469 76.257812 171.03125 C 76.15625 170.941406 76 170.953125 75.914062 171.0625 L 64.964844 185.015625 C 64.875 185.132812 64.878906 185.304688 64.984375 185.414062 C 65.476562 185.921875 65.980469 186.390625 66.503906 186.8125 C 66.582031 186.875 66.691406 186.878906 66.773438 186.828125 L 81.1875 178.050781 C 81.292969 177.988281 81.332031 177.851562 81.273438 177.742188 C 80.902344 177.023438 80.5 176.328125 80.070312 175.65625 C 85.40625 173.671875 89.660156 171.140625 92.9375 168.328125 L 92.941406 168.324219 C 94.324219 169.101562 95.625 170.773438 96.019531 172.6875 C 96.253906 173.8125 96.304688 174.972656 96.125 176.109375 C 95.246094 181.9375 89.335938 185.480469 84.175781 187.488281 C 84.039062 186.066406 83.78125 184.625 83.390625 183.183594 C 83.308594 182.894531 83.226562 182.605469 83.136719 182.3125 C 83.097656 182.179688 82.945312 182.109375 82.816406 182.171875 L 69.578125 188.386719 C 69.371094 188.484375 69.421875 188.796875 69.652344 188.8125 C 75.074219 189.234375 78 193.457031 78.414062 196.683594 C 78.652344 198.53125 78.441406 199.9375 78.210938 200.808594 C 78.128906 201.121094 78.496094 201.355469 78.742188 201.148438 C 80.445312 199.714844 84.007812 195.988281 84.289062 189.707031 C 85.238281 189.460938 86.183594 189.171875 87.121094 188.84375 C 92.53125 186.941406 99.359375 183.3125 100.308594 177.007812 C 100.488281 175.875 100.4375 174.710938 100.203125 173.585938 C 99.5625 170.476562 97.632812 168.101562 94.789062 166.625 C 101.667969 159.726562 103.203125 151.597656 100.757812 145.925781 "/></g></g></g><g clip-rule="nonzero" clip-path="url(#866a1b4893)"><g clip-rule="nonzero" clip-path="url(#6418607e36)"><g clip-rule="nonzero" clip-path="url(#395d722a08)"><path style=" stroke:none;fill-rule:nonzero;fill:#800000;fill-opacity:1;" d="M 55.890625 157.824219 C 56.011719 158.839844 55.5625 159.882812 54.734375 160.488281 C 53.742188 161.21875 52.550781 161.246094 51.605469 160.773438 C 51.929688 160.800781 52.269531 160.757812 52.59375 160.632812 C 53.710938 160.191406 54.257812 158.925781 53.816406 157.808594 C 53.375 156.695312 52.113281 156.144531 50.996094 156.585938 C 50.617188 156.734375 50.308594 156.980469 50.078125 157.277344 C 50.253906 156.675781 50.621094 156.136719 51.132812 155.761719 C 53.015625 154.371094 55.617188 155.5 55.890625 157.824219 Z M 60.601562 155.90625 C 60.027344 152.871094 58.054688 150.089844 54.835938 149.613281 C 53.683594 149.441406 52.597656 149.507812 51.589844 149.757812 C 50.273438 147.308594 48.441406 145.148438 46.183594 143.554688 C 44.519531 142.378906 42.625 141.519531 40.636719 141.121094 C 39.515625 140.894531 38.359375 140.820312 37.21875 140.902344 C 35.785156 141.007812 34.257812 141.242188 33.171875 142.273438 C 32.335938 143.066406 31.832031 144.269531 32.179688 145.410156 C 32.660156 146.992188 34.546875 147.742188 36.398438 147.089844 C 38.25 146.4375 39.359375 144.628906 38.878906 143.046875 C 38.710938 142.496094 38.367188 142.046875 37.914062 141.71875 C 38.757812 141.773438 39.589844 141.914062 40.394531 142.144531 C 42.191406 142.652344 43.847656 143.570312 45.269531 144.75 C 47.160156 146.320312 48.617188 148.332031 49.617188 150.542969 C 48.484375 151.167969 47.488281 152.050781 46.652344 153.097656 C 45.132812 152.101562 43.425781 151.398438 41.644531 151.117188 C 39.347656 150.742188 36.929688 151.128906 34.960938 152.289062 C 33.609375 153.003906 32.917969 154.496094 33.410156 155.707031 C 33.925781 156.964844 35.535156 157.4375 37.003906 156.757812 C 38.472656 156.082031 39.242188 154.507812 38.726562 153.25 C 38.480469 152.648438 37.980469 152.226562 37.371094 152.027344 C 38.71875 151.789062 40.113281 151.859375 41.421875 152.203125 C 43.011719 152.609375 44.480469 153.390625 45.746094 154.40625 C 43.75 157.695312 43.109375 162.027344 44.34375 165.386719 C 45.074219 167.386719 46.183594 169.203125 47.910156 170.476562 C 50.222656 172.175781 53.570312 171.132812 55.582031 169.464844 C 59.308594 166.375 61.5 160.667969 60.601562 155.90625 "/></g></g></g><path style=" stroke:none;fill-rule:nonzero;fill:#d59349;fill-opacity:1;" d="M 193.75 246.605469 C 193.304688 246.726562 192.84375 246.464844 192.722656 246.019531 C 192.601562 245.574219 192.867188 245.113281 193.3125 244.992188 C 193.445312 244.957031 240.148438 232.730469 242.300781 183.722656 C 242.324219 183.261719 242.714844 182.902344 243.175781 182.921875 C 243.640625 182.945312 243.996094 183.332031 243.976562 183.796875 C 241.769531 234.039062 193.886719 246.570312 193.75 246.605469 Z M 193.75 246.605469 "/><path style=" stroke:none;fill-rule:nonzero;fill:#d59349;fill-opacity:1;" d="M 219.675781 222.507812 C 219.664062 222.515625 214.910156 225.667969 212.820312 229.773438 C 211.527344 232.300781 208.195312 236.546875 204.054688 240.214844 C 200.9375 242.96875 197.347656 245.414062 193.792969 246.59375 C 193.355469 246.738281 192.882812 246.5 192.734375 246.0625 C 192.644531 245.789062 192.703125 245.503906 192.867188 245.292969 C 192.878906 245.269531 198.242188 238.28125 198.921875 233.324219 C 199.351562 230.203125 201.554688 226.535156 205.777344 224.007812 C 209.023438 222.070312 213.472656 220.796875 219.234375 220.976562 C 219.695312 220.988281 220.058594 221.371094 220.046875 221.835938 C 220.039062 222.117188 219.894531 222.363281 219.675781 222.507812 Z M 211.320312 229.007812 C 212.675781 226.355469 215.019531 224.082031 216.707031 222.667969 C 212.496094 222.871094 209.160156 223.9375 206.636719 225.445312 C 202.894531 227.683594 200.953125 230.863281 200.585938 233.546875 C 200.109375 237.019531 197.617188 241.285156 195.890625 243.898438 C 198.339844 242.660156 200.757812 240.890625 202.941406 238.957031 C 206.917969 235.433594 210.105469 231.394531 211.320312 229.007812 Z M 211.320312 229.007812 "/><path style=" stroke:none;fill-rule:nonzero;fill:#d59349;fill-opacity:1;" d="M 245.671875 221.964844 L 245.734375 221.960938 C 246.089844 221.925781 246.445312 222.125 246.589844 222.472656 C 246.769531 222.902344 246.566406 223.394531 246.140625 223.570312 C 242.691406 225.007812 240.3125 227.816406 237.566406 231.050781 C 234.039062 235.210938 229.929688 240.054688 222.210938 243.847656 C 208.0625 250.796875 199.335938 244.277344 199.3125 244.257812 C 199.160156 244.148438 199.042969 243.984375 198.992188 243.785156 C 198.878906 243.335938 199.148438 242.882812 199.597656 242.765625 C 205.070312 241.363281 210.027344 239.359375 214.605469 236.953125 C 219.183594 234.539062 223.375 231.722656 227.320312 228.703125 C 235.4375 222.476562 238.796875 222.308594 245.671875 221.964844 Z M 242.292969 223.851562 C 237.832031 224.242188 234.5625 225.265625 228.335938 230.035156 C 224.324219 233.113281 220.054688 235.980469 215.386719 238.4375 C 211.265625 240.605469 206.835938 242.453125 202 243.851562 C 205 245.214844 211.824219 247.085938 221.472656 242.34375 C 228.871094 238.710938 232.859375 234.007812 236.285156 229.972656 C 238.285156 227.617188 240.097656 225.476562 242.292969 223.851562 Z M 242.292969 223.851562 "/><g clip-rule="nonzero" clip-path="url(#111bb8cb7f)"><path style=" stroke:none;fill-rule:nonzero;fill:#d59349;fill-opacity:1;" d="M 258.402344 200.902344 C 257.578125 202.066406 256.910156 204.035156 256.160156 206.238281 C 254.609375 210.804688 252.742188 216.308594 248.203125 218.769531 C 246.070312 219.921875 243.105469 221.085938 239.773438 222.390625 C 232.976562 225.050781 224.621094 228.324219 219.078125 233.234375 C 218.730469 233.539062 218.203125 233.503906 217.894531 233.160156 C 217.617188 232.839844 217.617188 232.371094 217.886719 232.058594 C 217.902344 232.039062 223.890625 225.023438 230.367188 222.03125 C 236.222656 219.324219 239.839844 213.640625 242.539062 209.402344 C 242.832031 208.945312 242.6875 209.164062 242.539062 209.402344 L 242.847656 208.921875 C 244.316406 206.617188 246.546875 204.765625 249.136719 203.25 C 251.683594 201.761719 254.578125 200.589844 257.449219 199.625 C 257.890625 199.476562 258.367188 199.714844 258.511719 200.152344 C 258.601562 200.414062 258.550781 200.691406 258.40625 200.902344 Z M 254.574219 205.699219 C 255.039062 204.324219 255.476562 203.039062 255.953125 201.933594 C 253.863281 202.714844 251.816406 203.621094 249.980469 204.695312 C 247.601562 206.085938 245.570312 207.765625 244.257812 209.824219 L 243.953125 210.300781 C 244.117188 210.039062 244.46875 209.496094 243.957031 210.304688 C 241.144531 214.71875 237.378906 220.640625 231.070312 223.558594 C 229.507812 224.277344 227.976562 225.25 226.554688 226.296875 C 230.738281 224.128906 235.207031 222.375 239.160156 220.828125 C 242.445312 219.542969 245.363281 218.398438 247.40625 217.289062 C 251.359375 215.148438 253.117188 209.984375 254.574219 205.699219 Z M 242.535156 209.402344 C 242.371094 209.660156 242.199219 209.9375 242.539062 209.402344 Z M 243.953125 210.300781 C 243.835938 210.484375 243.875 210.425781 243.953125 210.300781 Z M 243.953125 210.300781 "/></g><path style=" stroke:none;fill-rule:nonzero;fill:#d59349;fill-opacity:1;" d="M 257.800781 180.019531 C 256.808594 182.539062 256.339844 186.132812 255.921875 189.335938 C 255.722656 190.890625 255.527344 192.355469 255.296875 193.574219 C 254.925781 195.519531 253.003906 198.359375 250.40625 201.304688 C 247.574219 204.523438 243.902344 207.925781 240.59375 210.414062 C 234.582031 214.941406 232.160156 219.5 232.152344 219.511719 C 231.929688 219.921875 231.421875 220.074219 231.015625 219.855469 C 230.609375 219.632812 230.453125 219.125 230.675781 218.71875 L 230.675781 218.714844 C 230.898438 218.277344 234.320312 211.613281 240.1875 204.640625 C 242.320312 202.101562 243.34375 199.03125 244.414062 195.8125 C 246.296875 190.140625 248.335938 184.011719 256.605469 178.953125 C 257 178.710938 257.515625 178.835938 257.757812 179.230469 C 257.90625 179.476562 257.914062 179.773438 257.800781 180.019531 Z M 254.261719 189.117188 C 254.582031 186.675781 254.925781 184.011719 255.519531 181.691406 C 249.382812 186.171875 247.632812 191.433594 246 196.339844 C 244.878906 199.71875 243.808594 202.933594 241.464844 205.71875 C 240.054688 207.394531 238.792969 209.050781 237.679688 210.605469 C 238.273438 210.101562 238.910156 209.585938 239.589844 209.074219 C 242.792969 206.664062 246.375 203.347656 249.144531 200.195312 C 251.566406 197.453125 253.339844 194.886719 253.648438 193.265625 C 253.878906 192.066406 254.0625 190.636719 254.261719 189.117188 Z M 254.261719 189.117188 "/><path style=" stroke:none;fill-rule:nonzero;fill:#d59349;fill-opacity:1;" d="M 239.46875 167.878906 C 239.078125 169.230469 238.875 170.273438 238.828125 171.265625 C 238.757812 172.839844 239.089844 174.378906 239.71875 176.894531 C 239.851562 177.429688 239.980469 177.90625 240.113281 178.414062 C 241.195312 182.535156 242.753906 188.460938 242.125 195.375 C 243.511719 191.792969 244.816406 187.234375 244.5 183.273438 C 244.148438 178.839844 242.769531 175.761719 241.433594 172.792969 C 240.714844 171.191406 240.011719 169.621094 239.46875 167.878906 Z M 237.152344 171.191406 C 237.234375 169.394531 237.746094 167.546875 238.796875 164.496094 C 238.894531 164.214844 239.144531 163.992188 239.457031 163.945312 C 239.917969 163.871094 240.347656 164.183594 240.417969 164.640625 C 240.875 167.457031 241.902344 169.75 242.964844 172.109375 C 244.359375 175.214844 245.800781 178.429688 246.175781 183.144531 C 246.847656 191.597656 240.71875 202.402344 240.699219 202.433594 C 240.511719 202.769531 240.105469 202.941406 239.722656 202.824219 C 239.277344 202.6875 239.03125 202.214844 239.164062 201.773438 C 242.050781 192.390625 239.871094 184.097656 238.488281 178.839844 C 238.335938 178.261719 238.195312 177.71875 238.089844 177.300781 C 237.421875 174.636719 237.070312 172.992188 237.152344 171.191406 Z M 237.152344 171.191406 "/><path style=" stroke:none;fill-rule:nonzero;fill:#d59349;fill-opacity:1;" d="M 237.128906 178.882812 C 237.253906 179.546875 237.464844 180.433594 237.707031 181.472656 C 239.34375 188.394531 242.519531 201.820312 234.78125 214.945312 C 234.546875 215.34375 234.03125 215.480469 233.632812 215.246094 C 233.355469 215.082031 233.207031 214.78125 233.21875 214.484375 C 233.21875 214.464844 233.554688 207.710938 234.347656 202.972656 C 234.582031 201.570312 234.242188 199.367188 233.84375 196.8125 C 232.972656 191.222656 231.851562 184.039062 235.617188 178.5625 C 235.878906 178.179688 236.398438 178.082031 236.78125 178.34375 C 236.972656 178.476562 237.089844 178.671875 237.128906 178.882812 Z M 236.070312 181.855469 L 235.957031 181.363281 C 233.859375 186.058594 234.769531 191.890625 235.496094 196.554688 C 235.917969 199.257812 236.28125 201.59375 236.003906 203.25 C 235.621094 205.53125 235.347656 208.292969 235.167969 210.519531 C 240.15625 199.140625 237.507812 187.917969 236.070312 181.855469 Z M 236.070312 181.855469 "/><path style=" stroke:none;fill-rule:nonzero;fill:#d59349;fill-opacity:1;" d="M 231.152344 201.542969 C 227.257812 206.726562 224.730469 215.238281 222.589844 222.433594 C 221.933594 224.652344 221.308594 226.75 220.691406 228.597656 C 224.105469 224.4375 229.046875 217.863281 229.738281 213.867188 C 230.160156 211.4375 230.328125 209.273438 230.480469 207.265625 C 230.632812 205.246094 230.777344 203.382812 231.152344 201.542969 Z M 220.984375 221.960938 C 223.59375 213.179688 226.769531 202.480469 232.441406 197.699219 C 232.671875 197.503906 233.003906 197.441406 233.300781 197.5625 C 233.730469 197.742188 233.933594 198.230469 233.757812 198.65625 C 232.609375 201.445312 232.398438 204.21875 232.152344 207.390625 C 231.996094 209.433594 231.832031 211.644531 231.394531 214.148438 C 230.28125 220.597656 219.398438 232.722656 218.679688 233.519531 C 218.433594 233.832031 217.992188 233.933594 217.632812 233.742188 C 217.21875 233.527344 217.0625 233.019531 217.277344 232.609375 C 218.511719 230.28125 219.671875 226.367188 220.984375 221.960938 Z M 220.984375 221.960938 "/><g clip-rule="nonzero" clip-path="url(#07690f968a)"><path style=" stroke:none;fill-rule:nonzero;fill:#d59349;fill-opacity:1;" d="M 97.59375 33.019531 C 97.160156 33.1875 96.671875 32.976562 96.503906 32.546875 C 96.339844 32.113281 96.550781 31.625 96.980469 31.457031 C 103.828125 28.789062 110.894531 26.761719 118.085938 25.410156 C 125.285156 24.054688 132.601562 23.367188 139.945312 23.367188 C 148.792969 23.367188 157.589844 24.363281 166.175781 26.320312 C 174.757812 28.273438 183.121094 31.191406 191.101562 35.027344 C 191.519531 35.226562 191.695312 35.722656 191.5 36.140625 C 191.296875 36.558594 190.796875 36.734375 190.378906 36.535156 C 182.511719 32.753906 174.269531 29.882812 165.808594 27.957031 C 157.355469 26.03125 148.679688 25.050781 139.945312 25.050781 C 132.691406 25.050781 125.476562 25.726562 118.394531 27.058594 C 111.308594 28.390625 104.34375 30.386719 97.59375 33.019531 Z M 97.59375 33.019531 "/></g><path style=" stroke:none;fill-rule:nonzero;fill:#d59349;fill-opacity:1;" d="M 90.515625 34.058594 C 90.960938 33.9375 91.421875 34.199219 91.542969 34.644531 C 91.664062 35.09375 91.402344 35.550781 90.957031 35.675781 C 90.820312 35.710938 44.121094 47.933594 41.964844 96.941406 C 41.945312 97.40625 41.554688 97.761719 41.089844 97.742188 C 40.628906 97.722656 40.269531 97.332031 40.289062 96.871094 C 42.5 46.625 90.378906 34.09375 90.515625 34.058594 Z M 90.515625 34.058594 "/><path style=" stroke:none;fill-rule:nonzero;fill:#d59349;fill-opacity:1;" d="M 64.589844 58.15625 C 64.605469 58.148438 69.355469 55 71.449219 50.894531 C 72.738281 48.367188 76.070312 44.121094 80.214844 40.453125 C 83.328125 37.699219 86.917969 35.25 90.472656 34.070312 C 90.910156 33.925781 91.386719 34.164062 91.53125 34.601562 C 91.621094 34.878906 91.5625 35.160156 91.402344 35.375 C 91.386719 35.394531 86.019531 42.386719 85.34375 47.34375 C 84.917969 50.464844 82.714844 54.132812 78.488281 56.65625 C 75.242188 58.597656 70.792969 59.867188 65.035156 59.691406 C 64.570312 59.679688 64.207031 59.292969 64.21875 58.828125 C 64.226562 58.546875 64.375 58.304688 64.589844 58.15625 Z M 72.945312 51.65625 C 71.59375 54.3125 69.25 56.582031 67.558594 57.996094 C 71.773438 57.792969 75.105469 56.726562 77.628906 55.21875 C 81.375 52.980469 83.316406 49.800781 83.683594 47.117188 C 84.15625 43.648438 86.648438 39.378906 88.378906 36.765625 C 85.929688 38.003906 83.511719 39.773438 81.324219 41.707031 C 77.34375 45.230469 74.164062 49.269531 72.945312 51.65625 Z M 72.945312 51.65625 "/><path style=" stroke:none;fill-rule:nonzero;fill:#d59349;fill-opacity:1;" d="M 38.59375 58.703125 L 38.535156 58.703125 C 38.175781 58.738281 37.820312 58.539062 37.675781 58.191406 C 37.5 57.761719 37.699219 57.273438 38.128906 57.09375 C 41.574219 55.65625 43.953125 52.847656 46.703125 49.613281 C 50.230469 45.453125 54.335938 40.609375 62.058594 36.816406 C 76.203125 29.867188 84.929688 36.386719 84.957031 36.40625 L 84.957031 36.410156 C 85.105469 36.515625 85.226562 36.679688 85.277344 36.878906 C 85.390625 37.328125 85.121094 37.78125 84.671875 37.898438 C 79.195312 39.300781 74.238281 41.304688 69.664062 43.714844 C 65.085938 46.125 60.890625 48.941406 56.945312 51.964844 C 48.828125 58.1875 45.472656 58.355469 38.59375 58.703125 Z M 41.972656 56.8125 C 46.433594 56.421875 49.707031 55.398438 55.929688 50.628906 C 59.941406 47.554688 64.210938 44.6875 68.882812 42.226562 C 73 40.0625 77.429688 38.210938 82.265625 36.816406 C 79.269531 35.449219 72.441406 33.578125 62.792969 38.320312 C 55.394531 41.957031 51.40625 46.65625 47.984375 50.695312 C 45.984375 53.050781 44.167969 55.1875 41.972656 56.8125 Z M 41.972656 56.8125 "/><path style=" stroke:none;fill-rule:nonzero;fill:#d59349;fill-opacity:1;" d="M 25.863281 79.761719 C 26.6875 78.597656 27.355469 76.628906 28.105469 74.425781 C 29.65625 69.859375 31.527344 64.355469 36.066406 61.894531 C 38.199219 60.742188 41.160156 59.582031 44.496094 58.277344 C 51.289062 55.613281 59.648438 52.339844 65.191406 47.433594 C 65.535156 47.125 66.066406 47.160156 66.375 47.503906 C 66.652344 47.824219 66.652344 48.292969 66.382812 48.605469 C 66.363281 48.625 60.378906 55.640625 53.902344 58.632812 C 48.046875 61.339844 44.429688 67.023438 41.730469 71.261719 C 41.527344 71.582031 41.605469 71.464844 41.730469 71.261719 L 41.421875 71.742188 C 39.949219 74.050781 37.722656 75.898438 35.132812 77.417969 C 32.585938 78.90625 29.6875 80.074219 26.816406 81.039062 C 26.378906 81.1875 25.902344 80.949219 25.753906 80.511719 C 25.667969 80.25 25.71875 79.976562 25.863281 79.765625 Z M 29.695312 74.964844 C 29.230469 76.339844 28.789062 77.628906 28.3125 78.730469 C 30.402344 77.953125 32.449219 77.042969 34.285156 75.96875 C 36.667969 74.578125 38.699219 72.898438 40.011719 70.839844 L 40.316406 70.363281 C 40.132812 70.648438 39.941406 70.949219 40.3125 70.363281 C 43.121094 65.945312 46.890625 60.023438 53.199219 57.109375 C 54.757812 56.386719 56.289062 55.414062 57.714844 54.367188 C 53.527344 56.535156 49.058594 58.289062 45.105469 59.835938 C 41.824219 61.125 38.902344 62.265625 36.863281 63.375 C 32.90625 65.515625 31.152344 70.679688 29.695312 74.964844 Z M 41.730469 71.261719 C 41.949219 70.917969 42.320312 70.332031 41.730469 71.261719 Z M 40.3125 70.363281 C 40.648438 69.84375 40.484375 70.097656 40.3125 70.363281 Z M 40.3125 70.363281 "/><path style=" stroke:none;fill-rule:nonzero;fill:#d59349;fill-opacity:1;" d="M 26.464844 100.648438 C 27.460938 98.125 27.925781 94.53125 28.34375 91.332031 C 28.546875 89.773438 28.738281 88.308594 28.96875 87.089844 C 29.339844 85.148438 31.265625 82.304688 33.859375 79.359375 C 36.695312 76.140625 40.367188 72.738281 43.671875 70.25 C 49.6875 65.722656 52.109375 61.164062 52.117188 61.152344 C 52.335938 60.742188 52.84375 60.589844 53.253906 60.808594 C 53.660156 61.03125 53.8125 61.539062 53.59375 61.949219 L 53.589844 61.949219 C 53.367188 62.390625 49.945312 69.054688 44.078125 76.023438 C 41.945312 78.5625 40.925781 81.628906 39.855469 84.851562 C 37.96875 90.523438 35.929688 96.652344 27.664062 101.710938 C 27.269531 101.953125 26.753906 101.828125 26.511719 101.433594 C 26.359375 101.1875 26.351562 100.890625 26.464844 100.648438 Z M 30.003906 91.546875 C 29.6875 93.988281 29.339844 96.652344 28.746094 98.972656 C 34.882812 94.496094 36.636719 89.234375 38.265625 84.328125 C 39.386719 80.949219 40.457031 77.734375 42.800781 74.949219 C 44.210938 73.273438 45.476562 71.613281 46.585938 70.058594 C 45.992188 70.566406 45.359375 71.078125 44.679688 71.589844 C 41.46875 74.003906 37.894531 77.320312 35.121094 80.46875 C 32.703125 83.210938 30.925781 85.777344 30.617188 87.398438 C 30.390625 88.597656 30.203125 90.027344 30.003906 91.546875 Z M 30.003906 91.546875 "/><path style=" stroke:none;fill-rule:nonzero;fill:#d59349;fill-opacity:1;" d="M 44.800781 112.785156 C 45.191406 111.4375 45.394531 110.390625 45.4375 109.402344 C 45.511719 107.824219 45.179688 106.285156 44.546875 103.769531 C 44.414062 103.238281 44.289062 102.761719 44.15625 102.25 C 43.070312 98.132812 41.515625 92.203125 42.144531 85.289062 C 40.753906 88.871094 39.453125 93.429688 39.765625 97.390625 C 40.121094 101.824219 41.5 104.902344 42.835938 107.875 C 43.550781 109.472656 44.257812 111.042969 44.800781 112.785156 Z M 47.113281 109.472656 C 47.03125 111.269531 46.523438 113.117188 45.472656 116.167969 L 45.46875 116.167969 C 45.371094 116.449219 45.125 116.671875 44.804688 116.722656 C 44.351562 116.792969 43.921875 116.484375 43.847656 116.023438 C 43.390625 113.207031 42.363281 110.914062 41.304688 108.554688 C 39.910156 105.449219 38.464844 102.238281 38.089844 97.523438 C 37.421875 89.066406 43.550781 78.265625 43.566406 78.234375 C 43.757812 77.898438 44.160156 77.722656 44.546875 77.84375 C 44.988281 77.980469 45.238281 78.449219 45.101562 78.890625 C 42.214844 88.273438 44.398438 96.570312 45.777344 101.824219 C 45.929688 102.402344 46.074219 102.945312 46.175781 103.363281 C 46.84375 106.027344 47.199219 107.671875 47.113281 109.472656 Z M 47.113281 109.472656 "/><path style=" stroke:none;fill-rule:nonzero;fill:#d59349;fill-opacity:1;" d="M 47.136719 101.78125 C 47.015625 101.121094 46.804688 100.230469 46.558594 99.191406 C 44.921875 92.269531 41.75 78.847656 49.488281 65.71875 C 49.722656 65.320312 50.238281 65.1875 50.632812 65.421875 C 50.914062 65.585938 51.0625 65.882812 51.050781 66.183594 C 51.050781 66.203125 50.710938 72.957031 49.917969 77.695312 C 49.683594 79.09375 50.027344 81.296875 50.425781 83.855469 C 51.296875 89.445312 52.417969 96.625 48.652344 102.101562 C 48.390625 102.484375 47.871094 102.582031 47.488281 102.320312 C 47.296875 102.191406 47.179688 101.992188 47.136719 101.78125 Z M 48.195312 98.808594 L 48.3125 99.300781 C 50.40625 94.609375 49.5 88.777344 48.773438 84.109375 C 48.351562 81.40625 47.988281 79.074219 48.265625 77.417969 C 48.648438 75.132812 48.921875 72.371094 49.101562 70.144531 C 44.109375 81.523438 46.761719 92.746094 48.195312 98.808594 Z M 48.195312 98.808594 "/><path style=" stroke:none;fill-rule:nonzero;fill:#d59349;fill-opacity:1;" d="M 53.117188 79.121094 C 57.007812 73.9375 59.539062 65.425781 61.675781 58.230469 C 62.335938 56.011719 62.957031 53.914062 63.578125 52.066406 C 60.164062 56.226562 55.21875 62.804688 54.527344 66.796875 C 54.105469 69.226562 53.941406 71.394531 53.789062 73.398438 C 53.632812 75.417969 53.488281 77.285156 53.117188 79.121094 Z M 63.285156 58.703125 C 60.675781 67.488281 57.496094 78.1875 51.824219 82.964844 C 51.59375 83.160156 51.265625 83.222656 50.964844 83.101562 C 50.539062 82.925781 50.332031 82.4375 50.507812 82.007812 C 51.65625 79.222656 51.867188 76.449219 52.113281 73.273438 C 52.269531 71.230469 52.4375 69.023438 52.875 66.515625 C 53.988281 60.066406 64.867188 47.941406 65.589844 47.144531 C 65.835938 46.835938 66.273438 46.734375 66.636719 46.921875 C 67.046875 47.140625 67.207031 47.648438 66.988281 48.054688 C 65.757812 50.382812 64.597656 54.296875 63.285156 58.703125 Z M 63.285156 58.703125 "/><path style=" stroke:none;fill-rule:evenodd;fill:#d59349;fill-opacity:1;" d="M 38.390625 203.300781 C 40.175781 203.300781 41.632812 201.847656 41.632812 200.0625 C 41.632812 198.277344 40.175781 196.820312 38.390625 196.820312 C 36.605469 196.820312 35.148438 198.277344 35.148438 200.0625 C 35.148438 201.847656 36.605469 203.300781 38.390625 203.300781 Z M 38.390625 203.300781 "/><path style=" stroke:none;fill-rule:evenodd;fill:#d59349;fill-opacity:1;" d="M 57.027344 229.296875 C 59.753906 229.296875 61.984375 227.074219 61.984375 224.339844 C 61.984375 221.613281 59.757812 219.386719 57.027344 219.386719 C 54.292969 219.386719 52.066406 221.613281 52.066406 224.339844 C 52.066406 227.074219 54.292969 229.296875 57.027344 229.296875 Z M 57.027344 229.296875 "/><path style=" stroke:none;fill-rule:evenodd;fill:#d59349;fill-opacity:1;" d="M 81.3125 246.214844 C 83.09375 246.214844 84.554688 244.757812 84.554688 242.972656 C 84.554688 241.1875 83.09375 239.730469 81.3125 239.730469 C 79.527344 239.730469 78.070312 241.1875 78.070312 242.972656 C 78.070312 244.757812 79.527344 246.214844 81.3125 246.214844 Z M 81.3125 246.214844 "/><path style=" stroke:none;fill-rule:evenodd;fill:#d59349;fill-opacity:1;" d="M 241.496094 86.070312 C 243.28125 86.070312 244.738281 84.609375 244.738281 82.828125 C 244.738281 81.042969 243.28125 79.585938 241.496094 79.585938 C 239.710938 79.585938 238.253906 81.042969 238.253906 82.828125 C 238.253906 84.613281 239.710938 86.070312 241.496094 86.070312 Z M 241.496094 86.070312 "/><path style=" stroke:none;fill-rule:evenodd;fill:#d59349;fill-opacity:1;" d="M 222.859375 63.503906 C 225.59375 63.503906 227.816406 61.277344 227.816406 58.546875 C 227.816406 55.816406 225.59375 53.589844 222.859375 53.589844 C 220.132812 53.589844 217.902344 55.816406 217.902344 58.546875 C 217.902344 61.277344 220.128906 63.503906 222.859375 63.503906 Z M 222.859375 63.503906 "/><path style=" stroke:none;fill-rule:evenodd;fill:#d59349;fill-opacity:1;" d="M 198.574219 43.15625 C 200.359375 43.15625 201.816406 41.699219 201.816406 39.914062 C 201.816406 38.128906 200.359375 36.675781 198.574219 36.675781 C 196.789062 36.675781 195.332031 38.128906 195.332031 39.914062 C 195.332031 41.699219 196.789062 43.15625 198.574219 43.15625 Z M 198.574219 43.15625 "/><g clip-rule="nonzero" clip-path="url(#3d10555878)"><path style=" stroke:none;fill-rule:nonzero;fill:#d59349;fill-opacity:1;" d="M 244.792969 90.84375 C 244.589844 90.429688 244.765625 89.925781 245.183594 89.726562 C 245.601562 89.523438 246.101562 89.699219 246.304688 90.117188 C 250.167969 98.121094 253.105469 106.507812 255.074219 115.117188 C 257.042969 123.730469 258.046875 132.5625 258.046875 141.445312 C 258.046875 146.796875 257.683594 152.144531 256.953125 157.460938 C 256.226562 162.761719 255.140625 168.015625 253.699219 173.179688 C 253.578125 173.625 253.113281 173.886719 252.667969 173.761719 C 252.222656 173.640625 251.960938 173.179688 252.082031 172.734375 C 253.503906 167.636719 254.574219 162.460938 255.292969 157.234375 C 256.003906 152.019531 256.363281 146.742188 256.363281 141.445312 C 256.363281 132.675781 255.378906 123.972656 253.4375 115.488281 C 251.496094 107.003906 248.601562 98.734375 244.792969 90.84375 Z M 244.792969 90.84375 "/></g><g clip-rule="nonzero" clip-path="url(#0a8d6bcc95)"><path style=" stroke:none;fill-rule:nonzero;fill:#d59349;fill-opacity:1;" d="M 182.292969 249.867188 C 182.726562 249.699219 183.210938 249.910156 183.378906 250.34375 C 183.546875 250.773438 183.335938 251.261719 182.90625 251.429688 C 176.058594 254.101562 168.992188 256.125 161.796875 257.480469 C 154.601562 258.835938 147.285156 259.519531 139.941406 259.519531 C 131.09375 259.519531 122.296875 258.523438 113.707031 256.566406 C 105.128906 254.613281 96.765625 251.699219 88.785156 247.863281 C 88.363281 247.664062 88.191406 247.164062 88.390625 246.746094 C 88.585938 246.328125 89.089844 246.152344 89.507812 246.351562 C 97.371094 250.132812 105.617188 253.003906 114.078125 254.933594 C 122.53125 256.859375 131.207031 257.839844 139.945312 257.839844 C 147.195312 257.839844 154.410156 257.164062 161.492188 255.828125 C 168.578125 254.496094 175.542969 252.503906 182.292969 249.867188 Z M 182.292969 249.867188 "/></g><g clip-rule="nonzero" clip-path="url(#d3a77b89f6)"><path style=" stroke:none;fill-rule:nonzero;fill:#d59349;fill-opacity:1;" d="M 35.09375 192.046875 C 35.296875 192.460938 35.121094 192.964844 34.703125 193.164062 C 34.285156 193.367188 33.785156 193.191406 33.582031 192.773438 C 29.71875 184.769531 26.78125 176.378906 24.8125 167.773438 C 22.84375 159.15625 21.839844 150.328125 21.839844 141.445312 C 21.839844 136.09375 22.207031 130.742188 22.933594 125.429688 C 23.660156 120.128906 24.746094 114.875 26.1875 109.707031 C 26.308594 109.261719 26.773438 109 27.21875 109.125 C 27.664062 109.25 27.929688 109.710938 27.804688 110.15625 C 26.382812 115.25 25.3125 120.425781 24.59375 125.652344 C 23.878906 130.867188 23.523438 136.144531 23.523438 141.445312 C 23.523438 150.210938 24.507812 158.917969 26.449219 167.398438 C 28.390625 175.886719 31.285156 184.15625 35.09375 192.046875 Z M 35.09375 192.046875 "/></g></g></g></g></g></g></svg>