<svg width="56" height="56" viewBox="0 0 56 56" fill="currentColor" xmlns="http://www.w3.org/2000/svg">
<path d="M32.2737 4.85114L36.9665 14.3143C37.6064 15.6317 39.3129 16.8952 40.7528 17.1372L49.2585 18.562C54.6979 19.4761 55.9777 23.4549 52.0582 27.38L45.4456 34.0472C44.3257 35.1764 43.7124 37.354 44.0591 38.9132L45.9522 47.1667C47.4454 53.6995 44.0057 56.2266 38.273 52.8123L30.3006 48.0538C28.8607 47.1935 26.4877 47.1935 25.0212 48.0538L17.0487 52.8123C11.3427 56.2266 7.87639 53.6726 9.36956 47.1667L11.2627 38.9132C11.6093 37.354 10.996 35.1764 9.87617 34.0472L3.26357 27.38C-0.629334 23.4549 0.623863 19.4761 6.06326 18.562L14.569 17.1372C15.9822 16.8952 17.6886 15.6317 18.3286 14.3143L23.0214 4.85114C25.5811 -0.283714 29.7406 -0.283714 32.2737 4.85114Z" stroke="#FFDD00" stroke-width="2" stroke-linecap="round" stroke-linejoin="round"/>
</svg>
