<svg width="96" height="96" viewBox="0 0 96 96" fill="none" xmlns="http://www.w3.org/2000/svg">
<rect width="96" height="96" rx="48" fill="#111111"/>
<g clip-path="url(#clip0_810_15767)">
<path d="M48 96C74.5097 96 96 74.5097 96 48C96 21.4903 74.5097 0 48 0C21.4903 0 0 21.4903 0 48C0 74.5097 21.4903 96 48 96Z" fill="#111111"/>
<path fill-rule="evenodd" clip-rule="evenodd" d="M21.7281 47.4957C35.721 41.3992 45.0519 37.38 49.7206 35.4382C63.0507 29.8937 65.8206 28.9306 67.6259 28.8988C68.023 28.8918 68.9109 28.9902 69.486 29.4568C69.9716 29.8509 70.1052 30.3832 70.1691 30.7567C70.233 31.1303 70.3127 31.9814 70.2494 32.6463C69.527 40.2363 66.4013 58.655 64.8112 67.1558C64.1383 70.7529 62.8135 71.9589 61.5308 72.077C58.7434 72.3335 56.6267 70.2348 53.9269 68.4651C49.7023 65.6958 47.3157 63.9719 43.2149 61.2696C38.4758 58.1466 41.548 56.4301 44.2488 53.625C44.9556 52.8909 57.2372 41.7198 57.4749 40.7065C57.5046 40.5797 57.5322 40.1073 57.2516 39.8578C56.9709 39.6084 56.5567 39.6937 56.2577 39.7615C55.834 39.8577 49.0851 44.3184 36.0111 53.1438C34.0954 54.4592 32.3603 55.1001 30.8056 55.0666C29.0918 55.0295 25.795 54.0975 23.3442 53.3009C20.3382 52.3237 17.9491 51.8071 18.1572 50.1477C18.2655 49.2833 19.4558 48.3993 21.7281 47.4957Z" fill="#FAFAFA"/>
</g>
<defs>
<clipPath id="clip0_810_15767">
<rect width="96" height="96" fill="white"/>
</clipPath>
</defs>
</svg>
